<mxfile host="app.diagrams.net" agent="Mozilla/5.0 (X11; Linux x86_64) AppleWebKit/537.36 (KHTML, like Gecko) Chrome/131.0.0.0 Safari/537.36" version="25.0.3">
  <diagram id="8n8_ORzqe3Ud5HmEjtU1" name="Page-1">
    <mxGraphModel dx="988" dy="370" grid="1" gridSize="10" guides="1" tooltips="1" connect="1" arrows="1" fold="1" page="1" pageScale="1" pageWidth="827" pageHeight="1169" math="0" shadow="0">
      <root>
        <mxCell id="0" />
        <mxCell id="1" parent="0" />
        <mxCell id="lq6CCPgMQ-UnPZAb4OHA-1" value="" style="shape=image;verticalLabelPosition=bottom;labelBackgroundColor=default;verticalAlign=top;aspect=fixed;imageAspect=0;image=data:image/png,iVBORw0KGgoAAAANSUhEUgAAAYUAAAEWCAYAAACJ0YulAAAABHNCSVQICAgIfAhkiAAAABl0RVh0U29mdHdhcmUAZ25vbWUtc2NyZWVuc2hvdO8Dvz4AAAAtdEVYdENyZWF0aW9uIFRpbWUARnJpIDA2IERlYyAyMDI0IDAxOjU4OjMyIFBNIENFVGv/i7MAACAASURBVHic7J13nB1V+f/f55yZW7al7G56IJAAIUCAgD8kVBFEQBAVkI6KIl0U6UhRBL8EEKUoSI0KKAQiAaUEqQkBUuhSQwglvW29986cc35/nJm59+5uKkEF5/N67d7duTOnzczznKcLHRorhQDAWouQ7m93gGpEXxljaWlZQW1tLVJKpJDl66IPa1x7AHH7yIo2bUWbK+mnEtZ0GdvKUNlW3HZlH12bsD0c63pcVBzr4TxjLUKAoOsaRGNeWR9risqxV45FAGYV469c757a6wrRwzlrO+5VrWdP7fV0/1fVTor/XnR9T3p6/9bl+Jr0u6rzV9ZPT+fFWJv+P2cQ1ti1n37F4gXFAD/rd1/0rvgfXuQUKf4nkDKFzwXkOl8ZLZqf9d0fPS2oif7+H17gFCn+57G27/9/ml78p/v/D2PdJAXorsaI/06RIkWKFJ9ZeOullZQZpEiRIsWnDitAfEr01laYftexBVJmkCJFihT/ZnzaZHfdmUKKFClSpPjcIWUKKVKkSJECKHuyp0iRIkWKFEDKFFKkSJEiRQVSppAiRYoUKRKkTCFFihQpUiRImUKKFClSpEiQMoUUKVKkSJEgZQopUqRIkSJByhRSpEiRIkWClCmkSJEiRYoEKVNIkSJFihQJUqaQIkWKFCkSpEwhRYoUKVIkSJlCihQpUqRIkDKFFClSpEiRIGUKKVKkSJEiQcoUUqRIkSJFgpQppEiRIkWKBClTSJEiRYoUCVKmkCJFihQpEnjrfKWwgHBFPXF/un9MDydbyieuC1Z3/aqm0ZXvfdKxxOhpnj3190nHUnnO+uLhstw0gBCAwUb3TyRdS9yNFe7DinITVfc9RYoUnxesG1OwXf6w1v0AyK5EzkTfVZzTEwQRcYK1J34rI9BVg604ZNaCL0TMb3V9xqesao6YLm2thClUdWdWcnwNEGqQPV0kqFpj4QEW0XVOlYR/ZdNa2fKkSJHiM4m1YAq2TMOsBavdP2EIxQACDYtWgAJ0WHGdLl8TY3VExEi3K13fxMYCngRPgFkDriAEBAEoVcGwkkGu5CJZTUCrmMWaSQpWgBUCYW3CZIUBwh5P746EmBtQ0jGG6PbFwp3wc4i6PPStc0xSSTcnK9xcbZf2uk5/VYwiRYoUn1msAVOI3nyDIx5Y9xl0QEcbvDEXvXA5Vgdg3A5cWIO1BoEAqbA6IqDWIqTE9rSbjoiO1BYhQxDWaajWI6wAayQmVBih1+AK4Yj5GjAnsdrTBEJIt5qrmJdJhCWBsWFyqrLgeRaxFuuiwwxWCiwWIYQTxmwslGUg40NDLQzpByMHg5SgpWMKQjr10cqEtpQhpEjxuYSwZpX6jvIO31pH9NGwvAVmv4/+cD6m0AlGI41FAEaKaKPp/kcosBZrQUq58h1mTAyNRVq9GjXMOkI4JYlFJVouK6giskZUnm5BOCYmje0mLbgdfURoV6peqbiu8rPrOsS7cWsdIRdOyx+r5gQCacOy6WYNYKXvmhUCa23CFNz1yhF+IESiBjYhth0O9b0BCVK5z8ik0I3j9SQNpUiR4lOFjejGp/HK2ViLsEZMISZiYQjLlmOfehFbaMPYEtZqJDohigIRGSyjy41AClmtSbcJZXLXiC7b0fUtInSDrCL+QBeC2eWLSvWJEBgsMia0tpqRSEsVwbcJHxAQdlE5mfjudrEziJi5Vg9S2FXZTnqAUN2PJb4AEpQAz8MIDy0lRiiyX9waBvenrGeK2+qh/dTYnCLFvxX/DqawevWRiI2jEtrb4MW3MKaIVKBCR0WFrSbqVTQ93kbbMoUR3QhhrF6iByL5acCUibeosC9o41QoMdMyNtK1iwobsUAm9hUb3SSbDB+8iNhHc61cCykqmKxx7cWMwUZqOdyYZNxnvCjdbBoOXSWdakT2HBPPKzoscH0ZAaHGKoNAIWxIafrrZLI+NPZx16QiQYoU/1NYvZtPIiUU4PU5mAVLQWusLoE1PRMkIap/3MHVDCPSZdtPQHhW4sxTPTbQSqKVxEiJFQKkh1OnqHIbRpSdqkSkP7ERcxQy4gMCKyQWiRESK5wEEkr3o5XAqGj9lHQGaxWrbSL1DIqyfsa14b6XEVGWjnibiEkYVr1Dr5x/JgOAiVV/iUEBJ9IIg0UjdIAIA6QSUCpi/jUH2ttXLbHZLp8pUqT4XGANvY8EtHZg3voQ4YMINXaNVTxrQOStRVuLxmKMJoNy9oc1Rbeh2O4eNJXjsWVCKQwo47ylhJBYCUI6O4hjGiARyDguQ4IRAmGlM94K0NYgpEQKgUBgrC57+hiL1hpTLCEsSE8ihLtWilhnH233LQgZ2xtijiQdAa9keF14ZzdpwVpCa7Dt7QAoL2ZA3RfM2SgMVgis0SAket4S5IAl0FBPNzfaKmmDNbq9KVKk+Oxg1UwhfuFtgH7jPaQNEEI5SUGuybZ8dYi2rUKiJGijyXo+Qrm2Y68lp1t3FMhG6henAXHfWykSe4DxBDbUSKGc80ylm78QWG2wVuIphUUilKAUFsn4WVA+whjn+WMcYZdSUAiKKASBCfGMxJMKE1p834u8rSRhSRNiyfg5rJEUigVy2ZyzO0gfPwNhpEITUhCGJSQWKUCisGEYuaE6Cm8Bmc06Qo2AIIzWJbolIrbNOEjp1kTbiLlYhVQCoZSTElSkJuvq/mSdQd0Kg7YBSlsISpi585HD+jtpw5jI8FypzFwHbtCTvSZFihT/VViNpBBR2tZ2REs7QmgXEGVChFyJ6miNUVaZOLW65J4XnmTa26/yi298l7pcDeMemUBLoYNLv/49rIDXPnyPk/94Nad95SAO/MLu6LDE2XfdyEtz55CRGYIw5IR9D2ankVtz2NU/QwqBtAIvijO44JtHcfWjf+VXB/+AIY19eeTl6dzyxAPMX7GU3UeN4az9DqcuXwPSo1gscPE9t7LN8E3ZbpNRnDX+Gr6xw+4cudu+PP/mK/z23rv4yrY78PD0qbTrEq2dHSilGD5oKPuNGctv77uDjPLwMz7FMOBrX9yNhrp6xv/zATwEQkqGNPfn+K98g60GDeOMv/6Bme+/TY3yUQbGbrIlZ3z7OyxYsYLvj7uQvbYdy0lfO5icl8EamPrO61z14F9Y3t7CxgOHcO7Xj6Z3tpZTbr6CJa0rEAIKupPNBgzm2uN+4m50LJEY6BpnIa1jUEpbrFDY9hZoaYPmvisJgFtLpGqmFCk+E1gjHY1tL0Kh5IhDtDv/5GSi7OsohCQ0hpc+mM2Lc9+lsxQSBob3Fi3klY/nAgqj4beP3MdrH83jhscfxAYGbQSvffwBcxYsYGBjf4rG8rM7b+LVD+YwZuNR9KnrzfT33sJawbYbbkZnEDB9zjt83LKMWXPe5vQ/XsOKznaGDxjCHc8+ynWP3RftiAWFUsCsd9/kvQXz6QxCnv7Xm/zq3j/y9scfMGfhAp5+/XV8P8MmQ4ZhLLw7bz5bDduEDfsPZsGK5bz04Xz69OrNqI02YbMNN2ZQ8wBWdHbwrw8+ZHDTADYeOJQZ777JdQ9PJNQw8/13kEKx7YabsdmgYWw4YAglY5nw5GO8PHcek55/hsWtrWgEz737Bl8fdz7zly9lQK8mJs2axm8fmoCSHq++P4diqBncOIBdRm7LqKEbobWhWCpi9EpcfWN3VWORNpI6SiG0d37iu5wiRYrPFlZvU7DOhkCgu+uT1wY9XWOd6ggrkQgy0qdQCnjytZeoyeT5YMFi+jb0wuIxZ+liJjw3jS2Hbsi/PvqYabPfZouhw5FasMmAQVxy7Am8NOctDrv0Ikq2g58deiQz3voXr7z/OsfvtQ/7brMjMz54B01I0bPc/sSDbNDczM0/uoD62jomz5xGr2wNJV0i49eAsfgodGCxWpDP+ixsKXDDo5PYauhwrIEtNtuCvXf9Mg889U8WLbuLsw79AVIKJs+YRh4Ys+mWbDhoCLW5PEP7DWD+iuX0rq/j4N32ZpMBQ7lkwm2saGunsxBQ79cxvP9gvvGFPQgwbD5sOIXAMuW1V9huxAgWLF/EtHdfZd//twv3zXqCfEZyy4lns2m/IUyc/jQ1vo+ymmLYyagNR7PPmLFIq9mgsQlfeBiFs2FAD4zBRgGHIlI9gdAGW9IVzH896npStVGKFP+1WA1TiLyHpMSWQoTo6vqyppwhUkNVEQNZ7oIouE0p/jVvId+99Trqc5JSp2HvbcdgpWTq268iEJzxjaO57N7b+O2j9/GnUy9EK8P0N99hpx8fiUSw7YaDGN63mZwBE5Zot0U8KbAmBEKMCBHC8sa7b7Fh/0HU5WrwPY/9tt8Jqw2h1mSsQQtLSWpQRPaOkFP2/Tp3Pf0oJihhgbBYIAvklaTWQGtnK73qGwCNtpZr7rmLnAfSUxz/zcPwPY+PlrXyg+suwUpFn9p6xh16Ilnfo1QqMHHaY/xt2j8phJLpV9/M3MULeGfBh5x9xPf556znuPaRCez5hR1Z3NZCL+UzeMBADPD10V9ECoW2AikEf3nqae5++mlaewkO3GIb7vzOWUiVA1OquHeqfGsi+4Q02kU0WwMidNIhtmxr/iTEPGUEKVJ8JrAG3kei/DsxPLvIYPGJFMU2+XF0ydDa0cZ2Gwzjkm99n369Grn47pvRWBYuX8pfpk6mo2T5zaQ7eWf+h7zx0Ye8NPtNlFT0653j8N2+Sv9efdhl823YuP9AsBYFWK0RwroMDpGXURgGjBiyAYuXL6Ot0E5OGp56cTo1fpa9x4wlLBYxWHylUEpiraEhn+ewXb7Cq++9zd3PPI4VEiUFvpD4SiI9RX1NLb7ykAhyUnL5aaczepORCGOoy+S54/F/MLB3nuO/+i3umDKZhmwNg/s0opQgIwUHbr8zR+95AJlMBl9KHnnhGeYsbeHWf9zLh8uXMHtJG5NfmkFDvp4gNCxatpz++QaefGUG0sKOG2+OEh4/3n9fjvrSvmQ6Qxrqa5xBPjSUYwS7U2iBxTNxZJsBbbCBTml5ihT/Y1gD9ZFNVAomslOuJI5qLRE1GkkQwpP0zmXJSsHgfv0Y1KeZmkyWtmIncxZ9zGtz3+Xcbx/G8IFDWNHexuk3/Z7n3nkNBWzU1I/TDzwMT0oX8WCcO6ePwTegMM5Wag3okJyxHLLrXpx67TguHH89zX368sD0p/nungfwpS3HoITElyJK32EwOqSzUKQ2m+XYvQ7g5XffoM1ahNaoUFMqlSiYABtqslmFLyTGWp6fOYOlixZTLJUYPnQDpIXafA37brcTO40czTHXXMxVf7+TXxz0XYwOGNSrD9tsuBGel6G90MkzL0/nu1/and23/gKL2lq5cuIdTJz2NAfv/BXue+Jxzr/19wzrP4g/T3uMb43Zhd1HfgGLx0tz55Cd9iRZTyI9OGnHvcH36DGJX9W9jCXBOCgxPsGm7qcpUvyPYN3rKawXWEC7gC2gV02eXvksOQ+s6SRfI8hlMjz39nQ2GdKPM/Y90MUFGMPDMx7jxbmvokWR2sZ68tZijSZISgBY/IzHhr170behHoSmo9DOxnV9yCjFjlvtyCn7fpPbHptEmPP41hf34Nid9yFjBdYa6nJZsnW19KrLoU2REb17ocMSu2wxmq9tP5YnXptBbTYDaIQJ6VOTRwcFsqoBEwY0ZODRZ5/g4ecEbUXL/jvtwKhhwxlQW4sOC2y7xVacsOf+XP/3u3nxvR0ZXNtA33wGKUJsaHny5Wm0llr47pf2ZqsNN6FYCnhuziu89tEcNmvuw6XHHsdv7r+D59+dwT5b78DJ++yHyZToVaOYOftlps9+hfasQRjBd//fHtQIv3vm7p5QEd+R8oAUKf73sOrcR/Hu+qMF8ORMDB0IYxC2rPJZM/QU0xDrMlxUsJCSIAgoaYOSEk9KBC4RnbUQCouuoFIqEjSkBVS59USagSQ/Ubkf5wqqMo5ABqUSoQ5RUTqJjJ8pp64AAgu+rxBKEQQljLFkMzkKpQIyNGRyeZcPylrwPJCCMNSERru+hMCXygWEW40MDUopQmvwM1lMqYSxBg9JGAZ42RxWBy4XlDFoAcrPgtZoHSKUivIuOXWVNYaOYoEa5UdjtkjjItu0Bak1GgNCoDyBkKu6XwZsCDrjIruFB1ttDtttBtoCXs+Zv93SpkiR4t+A/47cR586HMMoBSV8z8fzcHUEIiKHdHUFfCHwKlaiMjNpZXSvV6HmcCUZyl9aBEJCUCw4jych8IVCeiKKoHZqJ1fHQJLJZEBCWCjgK+WsHyZEGY0vJeggSjdtwGhC7WI3cr4XBb9ZdFBESYmwFs/zwFo8KUBrjAnxpAd+Bk9KMJHKRgcAKOWhC51Ya1C+jBQ5UTEca7EmJO9JhAixxHXTcEF5UiGkwhOeu0aW13qNTEFVKUpSpEjxv4L/LFOIck8LFL5QCCudWyTF6Pvk1yrTU6/pcYEhDC1aSHIy8r5RkVssNuYi0c5YYEqBC34zyo3TuKRyPr6TDnS0dVYuLYZnBFZo0BqJS6ynlFtiGaezsLioZWPwNC7K2ARgQ0Jh3bHY1cdalIhyJRkJSqOsdl8bjUykIImM2byKCb9LdBcvpMVgCREIhM6uyd359FHhuLBW363NOf9udB3T6tKBrG7sldf9N84Tus/P9nDef9PYP4tYWdaeTwH/GaZQmSpBCLSNVDtRTWCJWPs00WsAK0AKhUIRAhKJthoV5yHCYq3AqnLy71j9JHR0JE47ney4LdY4PywhXFI/Y0S3dOBGWDcv4ZiFxYJULgmttSA9J0FEKjutjWMe0Tgd44pSXiRPRywSVfxbyUh1nOU08iDrKZX2fwN6IjDx56qIYuU5tuJY1+SuPfXTU3vrE5WEcrV2nC7nr86o3xPjqfz/P4n1NAYbp4RJhdUq/Dv8Pf6DkkJUl0AqpMqSFH2xFnQJu1Z1lNcMRrgALk/mkhfRi1RFVgiSgjbWVSpz2hY3CFsujEAUXBHt/C0Y7dxzpctsKrqxdesS6onIiVc7l0+UwMa3OL7TUYohmSlTimgEYEK6MYJuqAg3MwrHdZIVWOs1+9QQOzVVrjVUmpocYnNUF8JnI6YsVPUrEmqNJ6uZnzXWJRpcyRiq+ksuqrhuFed0G2v0aazBaovyV82IK2swVY2rso9VMZdV7dgrv6pcg5UxEdHlfCGSz5X1b00F8bagtUYptXqmtpp32xhXZdB9SuT6SLXyecEarN8nwX+MKWhjMVZQCAMefX0Wnso4nT8CYV3RHlUhLcQPpokIt7EGY22SmVRIgYp25yXt9Pk5z3c02xq0NdEmP6pqVmGIcBlL3fVx2UodjQYMxhisIaleJmPjeCTpuLLGzrBsrMAYgzYmSlLn2rbCJB64SRU0or+l69fxIJMwIxtVXBOCKHFefK0p06No/gmvMK7OsrQCZTQqymmkpWW7TTaltiaPIShHN68Kn+bOsyIgzlqLDTXCjzwGtEVbE2V3hTAIUUollfucbSciQEJVMRV3r2SyHkK4hTPGuL9jQ13XKnq22tYSm7Vs13KsPRFp62xXlec64U8SlAL8jI81lqAU4PlemTgbkr8tFhOYaiZi3LPrytpG/cTnVzDTWK61UW2OOPtuIuUKQSkouQ2YlFE8qixf22UeAEYbpJJJ/5W2uWQMUQZgKSVogVAC5alkLYVLMVwea9yNtlFRv8rntnyOjd4RHWoyuUyPm4IUnx7WiimsPAFeRaRzUpMg/j/eWUfqj6gmgQV8P8PylhZOuOXX1OXqKJQCV0IyrtppHZFzGpFkv+xiJqxJiKYR5YffUsEU/EziKWWNQWAj5uHURbJimMaW/TXj3aGz9GusMZjQnaiExFMeSOUYk3DZT4VwxmprDEEYUtIhSig8pfClckwn6sFYS2h01KeNXlSRrLGJ1UuQMIwkVNBatHE7Ym2NazcimDJ5dUVUgjNAWkNGSnxruevUc9l6w4162JrGiPx5Yy6ku0gW60t2jda80NHJHXfdxTNPPuVGLQQNvRr49dVXs3TREn73u+t5/bXX6dOnDwceeCBf2uNLvPvuu1x++Ti0Dslms/Tr159TTj6ZgQMHYozhr3/5C5MnT8ZYyy4778xRRx3F5MceY8I995TXSUm+993vMWbMGDzPQ2vNOeeew/JlywHHbL5+4NcZMWIEl//f5UjlGKi1lkMPPZRSqcS9E+6N7o2bz9FHH01rWyv33nsfxmhyuRxjx+7EIYccjOk0XHjhhSxeshgdaurq69l3333ZY489yGR8Ots7ueiii+jb2Jcf/ehH5GvylIoBhUKBW265hSlTnqGpsYmDDjqIPb68B1OmTOXvf3+QX176SxYvWsy1117L0iVLOfvssxk8ZDBYCMOQCy64gC9/+cvssssuPPvsNP5y110sWbKE0aNHc/gRhzNkyFD+8IcbmTljJqEO6d9/APt/7WtsPHxj/u///o+WlhaMcRuvbC7L7rvvzj8f+yd/uOkPFAoFJk2axOTJk2ltbWXkyJEc/8PjaWxq5IILLmDw4MGccMIJLF7gxnfU0UcxYpMRGG247dbbmDFjBhdceAH9+/dn+bLlnHfeeVxx5ZXk8zmsMbz15pvcdPNNXHnFldXSWopPHWtQZGdl//ak4I2ohrBJiuvkKhEVjYmYhEEQGounfLJ+lkIQEhhLURuCwLpkrFpijCLUktAojFaEWtAZGAolQ1shpD3QlEJBSUc/RiCFjxIZghCKIXSUDG0lTWsxJNCuRrNBYqJPbQWhdbYNkO4Ywml5tEBrgbUSHSWJDUIIQ4vzhZUYI5wB2zi9vbUSawRYibAKYyXGSNeeddKEi7d255rkWFRUB4m10d+R8V0bQSmI5lzQBFpijYc2HmEoKQXCrZNW6GjNjFVujsLDSg+hVAWD7f6W2ZiBxzu4pKZDxY1fXy+nhNbWVp584gke/PuDFAoFli1bRltbG6Vike8feyy//e01vPfeezz++OMceeSRPPzQwyxdupS//W0iK1asYNmy5YwfP57ddt+dMAwZP348J59yMrNefJGXX36JH//4x9wz4R7efvst7r7nbt559x2WL1/O0qVLkUoShmEiefz1r39l5syZLF26lLb2dlpbW1m2dBn/eOghFi5cSEtLC4XOAsVikdmzZzN58mRaWlawYsUK2jvaCcOQmTNnMX787SxfvoIZM2Zy6imncMsttwIwYcIEZsyYSWehk6lTpnDUUUfR0dEBwBtvvsmVV13FVVf9moULFwGgdci555zDz39+McuWLeOhhx/mpJNPomVFC6+9+ioPPPAgba1t/Pa313DjDTcyfMRw+vXvhzUWg2Hy5Mn87ne/Z/CgwUyfPp09vvwlHnnkEebNn8evr76aU089lfa2NqZMmcK056bR2dnJfffey4EHHkipWKKttY3Fi5fwwAOTWLBgAaViiXfeeYcH//4gQRBw5513cfzxx/PwQw/z7jvvcvnll3P66aezbNkyJk6cyAUXXMCsmbMoFAo8/vjjvP3W2wCUSiUuvexSbr/9du6//36MMRSKRf70pz9RKjkHE6kk/fr144knnuSeCRNAOGkxxb8HayYpxNKuoOzLmuTmjxGVe5QhNiModvh4RqKMKxIjZBCJwJIQ8K2P0ZBTGTpKGqX8iIgJPCHAiGSH4NTsTsxVVjpnHCtQvnK7alnCSuGK3xDVLYiruEUbX0+4ugYoiZECG0s3oiyuCmxSG9kdM04vH5XYFDrSywpXtMZYSYgBPISwiMQgbBA2xBrhUgnZSJoRTpXjdpcCa2TECMrEOHYujUV/GfNtKxFIMsrDSKfSEgCxeB/HZAhLvON3Bduca6oQJYzXgZFtSO1HcxcV9y6SReJ6PMI6/94gdJXpJOV60yvTsa8pouty+TzaaDYduRnnX3gBxmg23GBDpjw7leeef45TTj6ZM886CyFg33335c477+SUU06hT5++nHfueTQ0NHD1b37DhAn3MH/BfO697z5Gjx7Nww89DMCVV17JgAEDmT9vPgP6D+DUU09l6JCh5GvybDRsI3K5XDIWKSR77rUX3/nOMWQyWQYOGMAzzzxDPp/je9/7Hv3790cKyZjtxnD9ddfTq3cvfnzajxFCkK+pYdTmm/PMM8+QzeYYf/vteJ7Hd777He67916+fsABGGuc5HL00UyZMoXf/e562tpaqcnnueGGG+jfrx/9+/fn2muu4fIrLmfu3LmMHz+e0047jZ//4ufMmzeP8ePH097RgZSS9vZ2/nDjH7jl5ps5//zzOemkk5Itng4MTzzxBF/cYQc22ngjfv6dnzNwwEAmTpzIFlttwaT7J/GDH/yAGTNnoLVh76/szeVXXM6tN9/KOeecw+LFi7nxxhuZ9eIsDjroIM4+5xx22mknbr31VsJQ09LSwqOPPkJj30amTp1K38a+XHfddfzqV7/irYj4t7S0cu6553LRxRfR3tFBJpvBGMOkSZP4+KOPGTlyJLfcfAtHHH4EAgiCAK21U9tJ6NOnDzvvvBM3/P737P+1r5HL59bxYUuxtlgr9ZG0oEWFTCDA1RV2emwkhFbx6PP9mPBMP5YszbJJ/5CvbreY3bZaCNKiagO8oheRZIG2FiE9p4OVUTlKK5IfERPZaAwWqiJznTu9HzENUS4JbWK9sXB6diMRVuKJ2N8/MvKK+LxYL+tUNi6dtCtmj4gDvyxWCqyUbkQWlwMpalNGuldPeIRWOybhavZEip2ygsdaQ5nSRuO0ZT1wpPBN7CwgkLKsQnKlNN05UkQMFJswbSDy5pII6zlXWayrmNcTMa84FrchnSElYR7V1d0qrov5kGYNk7GXr7XGMn36dA477FC01lx04UVoY9Bac8ABB1BTm0eHmjFjtmPy5EfRRrNo4UIO+fa36dXQQEtLC2eecSaFQpGPPvqQb37jm+Rr8wCcfc45SCmYNWsmCxct4ic//gkdnZ1sMHQot4+/nVGbj0ruRxiG/OEPf2DSpEn0amjghhtuxvrEHAAAIABJREFUQBvN/PnzOemkk/CURzaX5YEHHsBYw7vvzubQQw8FoLa2loceegg/k0kMorl8jr2/sjdX/+ZqOjqdRDB+/Hjuv/9+2trb2WmnsQwaOIjZ773Hs1Onst9++9HY2Mjtt9/OWWefzYcffIgxhm233RZrLAMGDOTMM89MJPAPP/iAX/7ylxSKRTYePrzqnhQ6O5k7dy4777wz7e3tzJs/nw022JDNNtsMIQSbb745ffr04Z133kFrzd13382LL77I3A/mMnjIYEaOHJlUBhQ4tajApVTHWtra2pj38Tz23HNPGpuaEBIOO/QwLrjgAj7++GNAsPvuuzNz5kz+/Kc/k8tlscYSlkLuvPNONh4+nLPOOosTTjyBJ598km222SZRB1trEFHxqx12+CJTpkxhyZIlTi22vlF+7VNUYJ0MzRaqFzTSGplQ8puHhjFuwjD61oRkgNfn+jzyYiM/PTDLkV9/B9OaiWq22MSoK2VU89jKLvQqVmNUHK2gTAIS426sl1ey/JK773E7ZSJjtHSShtURUY0eeovzdCCSEiqtiRZnZ7DWYmJjsYhJeaUZLvpbqIojJLv4iGxXjr7CdXVl2+4KlU6340kHK7m+guHEzGg1b4EzB0XMo1J9tKoLjHWcz3HUKk3iKq/DMeDhw4dz/fXXo6Ri+IgRPPP000ipeO7559l6m60x1vDWW2+xwdANsBbq6+v5yY9/zMS//Y0+ffpwzDHHYKwhl83xrzf+5e6TMUyceB/bjdkOay0bbDCU66+/nmEbDkMpRVNTU5Xnkuf7HHnkERx00EEoqRg6dCgff/wxQ4cMZfwfxzNw4EAABg4ciBCCLUaNYkKk2jDaMGTIEDo7O1xcinBr+NFHH9HU1EQ+n0cKyXE//CHHHfcDnn12Gueffz4333Iz2WyW2e/NprGxkRkzZrBoySLuuOMOdthhB4IgYN68eQRBwIoVK3hh+guMHTsWISBfk+f73/8+b7/9NhdfdBFjx+5IfV09UknaO9pZunQpjU1N5HN5amryvPnGG7S1tdGgGli2bDmtLa001DcAluZ+zWy77bbss88+7H/A/tT3qsdogzbavTNKJhssgEwmQ5++fXn55ZcJSiW8jMf0GdMpFksMHDiAoFTiK3vtxaBBA7n99tvJ5rJorXnt9dd44YXp1NbWcuMfbqSjvYPx48czatSospE73hhZaGpqpLOjk0WLF306TOEzhH8n71p/3kcCSloxaUZ/jthjESd8eSENtQEtLR7XTNqASdP7ceTe7yOzIXQqrHJ1jYk8aZRUmFg/tcZdunMlOM9L43byQhuUBd/zqcnmHLOIUoD7vgfC0lks0d7R4VzeIpIpop0/xDv0iKALS2hjqQQMxpXQtBU1CmICbN3/sTdSopqKq56tbk5djMBVXhsRsbG2rGISRIKTEE4y+YRup9Yax/iQTk0miNqscDPsKjFEjNgYyyozaXTrzOnOGxp6sdPOO0UCp2WLLbdkg6GOiIdhwAcffMhLL73IT3/6U4zW5Gvy7LnXnnxl76/w7W9/m1N/9CN+/7vfMXbsWH5/w+/59VVX09nZwVVXXcVll11GGIa0t7cza+YsFi9ajJCCzUduziabboryyjUmRo0axdixY1FKRa6WsHz5cmbNnMWH/T4Ca2lsaiQIApYsXcK056YhEGQyGVpaW8hmsviex913302hs8D48eP5+oFfp6Ghgc5Cgfdmz+b555/n/fffRwhYvHgxr732GmPGjGH//fdHG01we8CECRPY/2tfY4stt2D8H/+IlJLnX3ieF55/gb/85S9kMhkGDhzIL3/5S556+imOPfb7nHP2OVz9m6vJeBmy2SwN9Q0UCgWy+Sz77bcfU6ZM4ZxzzmHbMWP4+98fpLGpiR122IGJf5vI7rvtzpW/vrJ6k0fZY0splezijTXU1NQwZsy2XHXlVZx99tlstPHGjB8/nq23Hs3gQYOdA4WAcePGMWP6DN5+521CrXnyiSexxnD8D39IEIY0NzUza9YsXnn1FbTV3D/pfjKZLBnfZ5dddqGjvYNsNktjY+PaP8ifM3w2mQIgrGBpIc+RY99n+KB2gkDS1NzOV8Ys5qr7h6JNlGcoqVVsI93+J4R1ihkpBBhNxvPI+HlyuRz1NbXksllyvofKKDzPwxhoa2ujva2d9o52Ojs70UZjcQQx8lPCiHKkcEx8LYmmrLL7KDAOjHVqmjIxj4j4Svys11UtX+WNta5t9AARq+CMjaKjoSLndiIEyLLpgthFVGbUmiXdq2grl82RyfiY0OVoklIwfOONuenmm/j+sd/njDPOoLa2luOOO47DDj2MV159BYHA931GbDKCE084kZ+e8VP+fMcunH3O2bS1t3HZZZeitebY7x3LQd86iNtuu40PP/iQc889FyklylNcfNHFbDx8OCpyzVSeQoc6cYON1Xitba2cd955COkkykMPPYyhQ4fw0Ucf84Mf/ACAuto6TjjxRHzfp1AscsrJp9C3b1/22msvzjzzTHK5HJ5SPPLoozz+xOP4ns+Xv/xljjj8CHYcO5arf/1rDjn0EErFEs3NzZx33vnMfm82//jHQxxx+OH87IKfUVtbxyWX/IKRo0by7LPPks/lsVjGjh3LHnt8ibvvuYf999+fffbbh/r6egYPGcKLL85CCskPj/8hQRBw0UUXc+ddd9KvuR833XwTgwYPdve7x2dToLVGa0MYasB5ZVljyefynHTSSSxf7gz9ba1tbDtmDNdeew39B/Snrq4OYwyNjY2cceaZnHjiiSilePTRRzn44IM57SenYY1lzntzGL31aF54YTrGGGcXAfr07sP4P47n1VdfpU+fPjQ1Na3VM7ze8UltaOsJ8bv3aYegrj4hHlFCvCdmYm0HWhg0Ft8aRxhivbOSFDs9tr94V47ccQEjB3TQUBsgQvjny7159s0GHrl0CoVOSV6EGE8hvRztnQVGnHsqUniEBjDCtQtlv3RTHqLF+S87/+lYNRPiKYXnKaSA2lyOXvUN1NfVOaO1dZXFMrksNTU1LqcRgjAM6Cx0smzZUpa3rKCto51CYDHWGYy1UBhjMdaplqwxkbiASz+BQEYJ74gkAyncSxQEpUhCAOW5hH/d6k9YEXkZdZcQYikg0edHKqhYzWWtKft2i/JaVe4pnLTijNNKFrjvtJPZYvBgPJ2N2o6JfRTNLSxCR3KT8hFbj4TNh4PynQtu3LxxNZ2tgEXzF/DEU0/St29f9tx7L0ygkXG8wSqfPNChScYpK1Q51pQ1Yi0rWmhoaCAMQqRS7rzIHFPxUJTtGkB7Wwf5fB6tQ3zfr5Jw3I43Xh+StcQ6VVYsOZjQID1nEwp1mKg0LJZMNlPut2IMJo4xEQKjHYOJA8Co7AvwfLcf02EU7BWNPyxF8xSCIAzAQktrC3379i27ShsbqTINSqpuAXxGGx544AFOPvkUZkyfTnP/5kgq07S2tFJbV+tcc4VEREkcPV85xhzdGyEEYRC6fF24ddNGJ1KUUsrFifiK9tZ2autq0dptm5SnCEshXsYD6zyHjDFkchlKxQApBZ7yknc5Pq8Sra1t7LfffhxzzDEce+z3VvMwfcr4L2AKRlQzhTVQOqw11nNCPJHsXIWAi+8bRmAkeQEZG2KEZZvBKzAWPF9jrY4Cb2zZMCzdxL21nKzVOvEXz2Q8stKjT109ffv0Ju/5yNBlGDXSicEYQ1gqIIUHNsQTmoyn8ZXFV4JiECJNlPZCeBgCqggtJNvzWOXk7NRO/24S27HAWBfpLC3I2PBd8WDFN7knk0Gilq80p0RfSCDmk2U+sO5PSSzpWBE/cLEqLOpMioQOt7Z3UpvLUyoUeeyxyfzuxht4ZPKjjLt8HHvuvZdzO65seBUvkitgZLsxxAohi4aGBqBMRJM2Kz+hivDX1tYAIKXvVFoVO2HHKKv7EkjHAKpsZCLpIyaMVfPqCkFVQKCUFddEfSolSDiXjddAlbu0FfMEx9CgrD4xjimJKCgSHf1vRNUzJJV0ksgRh/PWW2/R3K856at3n97d5uFF0lEcjwGOCfgZv2I9wJeOwRprQEYbIwu1dbVR+xKjHWP0fC/ZtFTeu0zGT+6bIPqu617JWhYuWMCuu+zCtw85pIfF/jfjPywh/LuxnpiCASvJ+iFPnfM07QiWdmTJ5CSyqMl6BqMUqh7C5R4aiaejHYiwa2NGqIKIfikENZks/fo20dS3DzVZtxMOwxKh0BhhsGGAKRWxngfCoEsBWI3WRUotS7EdHWSCkGxRoFUteB5aWpR1Oz1pnf+3iCzMMs5H0WXbKtBIa5DCOqYgIttHxCi6ziBOXiq6PHlJNGpiUHZvkuOlJjKilLmTsM5TxKzDWlrhGHJ5CPFbKgEFYdSvhHwux5z33+eSiy/ij3/8I1YKamtrqKmpcbvrCsKSEKqeNIS2ghZ0s1HQM+GtbLfr+V3biWewmvQI7vt4jcvtJ9fFx3pSi62M6XWxvaw0VrDykoq+uyF+xGy1RCm7MuAK1NbWctmll61+nFWMsHI81RuYyudTqgoG2mWulfe/Kj1Gxfgik8NKia0QguEjhnPJJZdUt7+qdYy/7zKeFGuP9WpTKJYkP7lrCxa15ygWPZS11GaK6FDQv1eBK7//FjklEBqsLEWG5gq1wVoQtCStgAU/49Hc3MzgIYOQFozWhGFAqVjE6hJBqUhQKOBLRUNDPZ4U1DfU09TYG8+zhKUCpY4iixcu4p0PFrI8AC1cXlFrDCIS1+Mdues7jg9wx8qwFT9rjyRlQdwPlq4MY30jfpfc9CrFIEAo6CwQeBnemT2bBx54gFtvuYW333ojUmVpCoUi2miX1qEY4Gf9amIdNV4VfyG7EJaKczArSYTWwzFjTTmWY1UTXBV6Ijgru6Yr0VlV2yuRZLoSydW1U76ki1S1pu2syRhXd87qsLpzukq8qzqn63PR9VhXVKQDqUydkWLdsP6YgrV40rLthi3Mbw3wFSxYnuPhGX2Y25Lh6C/MwxqF8BxBD6XGE8rprxP1h4jE9lUT1GQXE0UQI1ytgo72DtpaWgmComvPasDVaPaVwPMVNvIcGtDUyJZbbEbvXrV4EiiEtC1dwQtvvssTs15hYWs7oVRu149zRRWVmRuNjlxPy4Q8WgiSJEfrtI7lz4QhfMoPeRy6EKu9QGA9V/jHL2m09Lj7nrv57W+v4YUXnsdG2VqVlChc2vAwdHp35XmJh5SI8uFo7fJAxbfVWucy7PkeGOFcgaO8QS7Pj43CI0R0fnxhPODoQ4hkt2ytxeoy04mN1vEe1xrb5T6VcwRhqbA1lM8p22mcPr7bukmRMCSrbfV9EhXPqXXfJx5jFXaictxKPOfq+UVTSXIBuZ24iMZf3jQYY6r7RlR7rq3R/KMf4870PFWV56iSsbtEdWV1V/n7nueQ2GSsrZKCY1VY7KyQjNdGOcGi+Wijy5KXFFXz08ZgjXFu6Uqwrq9eCoc1ZwpSuOAkygGvJAnrnGyrMpqT95tNR2uep99s5JIJjYQaTvvqB5y83xyENEjPODVMmANcgRhngnVeL+4hd4iDs6oQEYv4wYoftra2Njra2yh0tCEkZHzfMQwsnifJZD2yvo8JA4IgJCcMfWpzDB3QjBQhsiNE1NVR39yfZYWAqdNnUiBECZeSQxJVMUvmK6NFMEgrq4LGKhYtEhoqdRAVEHK9PMBVon2lmL42zCRmCFJipCIQAlo7eO+ZqZx19TjufXhydJ8ixkgce+EI0gMPPMDCBQsJwpAwCBg2bBjH/fA4pJU8O3Uq/3joIUrFIr7vI5Wkd+/e/OQnP0EIwdNPPcUTTzxBKapEl8lkyPgZzjv/PCyWxx9/gieffAKjTUJUPN/jogsvAgmzps/ib3/7G0EYOmcAnP78kksvwVrLi7Ne4o4776iarlKKCy+4kEw2w5tvvMmdd95JoVio+v6CCy4g42dYtHgx1117LWEYugh6a8hms5x77rnka/IsX7aCX112WZmpCedifeZZZ1GTz1MoFvj5z3/uljnKBKyU4rjjjmPYxsMIigGXXHIJnYVO4oygnufxjW98kzFjtkUbzfnnno+QjsFaa/B9n4MOOpitR48m1CG/+MUv0MZFujtXUjjooIPYfvvt0Vpz2WWXUSqVys+JlHzpS3uw2+67orXm6l9fzcfzPk4eBk8pdt1tV7761a8CcMUVV7B8+XJ0qJ1UKCQ77bQT++63LwA333wzH3zwYeK6CrDdmO04+OCDMRju+PMdvP7a61Xv9Oabb87R3zkaHWjumziRmTNnuLEJied7nHTiSTQ1NzF3zlxuu+02CsWCS+NhDb6f4cQTT2TgwAEsWrSQ6667jn79+nHM0cfQ0Lvhc8kYKgWnTxNrwBTKxdwFFpXo1rucIwRWS555qR/X/3MDnnqjLzuPbOVnh85hp82XUVvbQbHdA6GRyiKDPBjtMpsKoqyoziibBFrFW6eKlbA2tkG4i+LyMYEOwRpXhtJKSqFFisCxKwPtQZGsCVAiCi4TFk8IlJVkVA6TDSlqS52XZctRm/HB/Hm0fLQQiy0XyImIooWk72hUkOxc4p1cbG9w31krEV1cBpIkd3SVNijPOd5xEnkgxDEKuDHZ+NwenphYsxVFGVQdqzrXgrQiYvQSKRWlMOCmCXdyzT138eGixehQYIVCShURXk2cTlxbzT8e+gcPPfSQ60MItt9+e44//niMMTz08ENcetkvAZDCSWsjhm/CaaedhlSSqVOnctmvLnPZZUMXMDVo0CDO+9l5WGN58803+cUvfoEXSSFaa2pqarnwwovAWl56+SV+9atf4bKBBigpyWSzEVOAOe+/zxVXXIEUMtlMZHM5Lr74YkCwbNkyxl0xLmEKEkeUTv/J6fi9febOfZ8rrrwiCuhyu9JcPsfRRx/DiE2G89GHH3L5uMudu3PEuLLZLAd+4xtsv/12tC9pZ9wV45LlVtLD9zz23ntvhm08jBUtLfzy0kudqlIITMR0dtt1NwA62zu5fNzlyU5dSYXv+2y11VZss83W6JLm6t9cTalYIghDV+JVKTbaaCO2/8L2GG247trrmL9wftI/wtK7V292221XgiDgz3/+M7NemhV51YGf8WloaGC//fajWCwyYcK9TJ/+AlK4zKnOtduwz777IBBMmvQA/3zssSQ7sNaaww87nG8ddBDGGu68407+/tDfUSKqYCjgq3vv45iC1txzzz385a93uay3kXfSUUceRVNTE4uXLOHyceMIgiDxFJNK8q1vfZOmpiYmTpzIuHFXsMUWW3DA/gc4phA/7J8T5hCb2Sz07HnUE7dYx7mvminEI4jUIRZXa6CbBlcAVtLSkeXU20fy0ry+9M2VePmdPOfM34SajGGzgS38/ocvRXRSgS1itUBYEfnGm8i7otxoTztdG2uXItHZpdCWkXuepFev3nR2FtFhiCaISmQajIQg41JqCE/gK0nG8/GES/vbUSqxuHU5Cxe1oJRg6JDBzF60nEJYREcPcey9ayMtV3moFXoNKx0XigdvKwfeRRVkK3IWdeMJouqzfEuirE2VfpVdqHxlxlVEd+/Nlell49IL2hrq6ur50pgv8tJ7cxj/4AMRM3C7QCVU5FlVHqsU0qmOIrfdjJ9x4zCgtcH3Mi5ORUi0teTzucRdM19T44ihMZFwZamtraWjvZNcPounFLlczqmnpEJHWUiNduqUmnwNfiZDoVCIhC/ncVQqlPCzPrlczkWkJzp5pwIslUr4GT/ZQWe8jFtfYxBC4vs+yldI4eqH+34G3/fRWhPqkCC6rqamhnwuT6FUSJiztpp83sUSFEvFRM3lKZ9QBwgpCAJXdtX3fXdXZdluoI2mvaPdjSubpa62jlCHGGNRUhLoAKUcAZWeRCmPQLe7+x0FnMXeUDGT8aTn3EVDt9NfuGihk2qUIghDspksUrp038YYFi9eTBhqjDZO8pbCucBGz3YpCJxrqbCUikVC7Sr7eZ5z2Y1diE0IQRjgexk8TzkXVUziXaU8Rb/m5iQrQSwttrW3YYyhVCwSBKXkATYYpJAUOgsUCp08/dTTlIIiXlwyd2XP+GcZtgvNqUSy0+t6fN1UaatkClXZJSivc3dO5VQpHSF8YaPlDGoM8D1H4QsBZJShzuuEaJcrjCb2Q5W4ipjW4lQ1puyTu1qIshoj1Bov42OwaBsQmhImLGCDgKzvuRTWxpJRluY+vRjavz953yMsFuhoa+f1t9/g9Tf/xZIVHdT16UexrYMchgLGeedAlEU0LtbjqsVZ4fJBxTJC1fCSVYvSBFTdVVO2PXSzoZRXu5vLpi0zBMekqWpX2k/4PliL1m7Hvs2223Prfvtz8MN/59e33sKUZ6dS6GxztQ6QxDJLNpPljDPO4NBDD3UEUEjyNXnntigVp59+Osccc0wSu2GNpa6uLgkUO+KII9h1113IZLLJ7JVS1EQ5jA759iHs8MUdnF+8dNG1sZuolJJ99tmHGdOnJ+qVUqmIpzwymQzWwo477shrr75OEAQIAWGo8X2P2ppahBBss802PDftuURXrY12KqxMBmEFo7cezbRp0/CUl9gJhBBsGuUSam5u5ulnniaXzWGBXC5LsVhi4402QiAYPHgIs2bOitK5uKIx2UyGQYMGgYFcLsfrr75OsVRMNgme5zNw4ABH5KVgytSplEolcrls8nI0NztXU9/zmTp1SmKb8TM+hULRXW8hk80wadIkEM6W4/sZtA7ZYIMN4lvO/X/7G6XAOWcgXDTzoEGD8HyF8nLcdNNNdBYKaK3xPEUmk6WpqRHlu83CTTffxIoVK4glZiGcO7HRBk95/PnPdzB/3rwkeFAgqKmtcTEvUnLaaadx/AnHu8y1gJSKTTfdhFBrtt9+e1577TU6OzuTdyKbzbLBBhvS2dlBa1ure27imJDPKz7pu72GWI/eR4KBvYvcePyLFLWPQVK0Pp6E9oLkw4U+vrKUQoESxrl69tRKpZVqJf3EahhLRJhxZZWFUBRLJXSxgA1LlDrayCvo19hAnSfJ+RJPCZp7N9DYpzdYQ1trKwsWzGfJwoUUOzqpq6mhuakRL5MjO3c+nnDplQOjqzwlk1HG2/FoRE5VZCK30eqdftWuX8goqOm/6CEWOKJiJWF7AW0CVN5n34MOYZvdduXhRx/lmmuv4bWXX4GoHoTBEOqQwUOGMGrLUdVCSzS1puZGmpobHUOLggGtLdtXmvs10dTY2L0yGC4Qq1fvXozuNbocrBe7+huL0YaG3g009GpIgrqkJ10glgS0pb6+jvr6TQFbJsxSYELnsVLfUM+WW23pCstE6d1lxGDAEdXtttu+i3RI4pNfV1/HmDFjkjEJJaqqtilPMnr06G5zi+eXyWTYbPPNyianivmBM+ZuudUWkbHabUgqd2lCCjYftXmXdi1SiSgdlWDLrbZyUlQPVegyWZ+Nhm8EgA50UugnIbBWMGLECBe4hmNqXY3JwzYc5iSFCt/aOJEeQHNzE83N3SOTXbZfwcYjNo5MlOWAzHh9pJSMGDEiKegjEIlBuaOjAx1qfOVH9Unorh5NsVZYP0wh1klEn1JAZ9GjaBSPvt7I5RM3paMjw2vXPejioaQCKRHGgDXE2pM1v4/J0+g099YVnVGe53KyW4O0lrp8jm1HbcqmwzdGhUVaVyyhva2dXvV11NXVkvE8t2OpydOvXz8yuSyB8Og/dBjbNw+gBY/nZrzCitb2JANqrP0X0a8k26mId/AuSjSpKUTZIG4rJYL/Il5QrdKyYA1eRLyxBlEKGDx0IEcffRSHHX4Y55x5FuNvu5X2jvbE10BK4TxwYOVlHyMnASUElakzqq7pqkarEIETghPFDCTEIeorzjcV7z7jh6rssiqi3ZZI9NKOaCusccFlSR+2gvj2JLrb6mC1qnnY6nFXzSmms9GuL2mjCzOtKoMZzVlI0T1TbRfbUAyZjIPqT0T3mIuKfl2AZ3Q4nkOFZFa1sansXzip0EnvPbS9ElTO3003kpDdLq8ci2ErggjjW2SiSohSEhoXNR0HA6ZYd6wfpiAA64rSLG2rZfLrffnXxw08MH0I737ssc1GrXz3q+9hA4nCpUX2cC5nOioKIoR06SSIn+1VP01JSUvh9u9hENDe3g5BgDIGazT9GhvZYdRWDO7fDJ3t2MED6ejopCZfQy7jkc14KCEZ2L8fDQ31rGhtozMMqe3Vl8amRg7YZx9a2orMfOllOoOwyutJ4BiDUzlU6vdNN3XQpxdrsD7bjFRZiYsnLk+VFxnONXhKoJTPuCuuYJ999mb8H8fzyMOPsGzFsmQ43YjGqoa7Bgazbn75Xc/tibit7PqVISZIXc5d7bWfYPlX23RXJrmyUIy13Vysbsw9reGqAgDtGp63luPp2lbXVB7xObW1tRx11FFsvc3WDB40mMamxoSRp9LCumH9pbkQiqUdGY7+3ZbMeLc3feoNY7dcyhvzhvKNHWZz4n7vYgKB52mMDbE2ExllBdZGXj3C+bK7rJ8r763KHRWLjvRHbR2dZARkhIdQ4GczThrQFiU9Bm8wFCtgecsKF3RVLEQ2Go2Sgvq6GrJI8Hw6OzrIZ/OMGDGc1998k2WFIla6XEjCupoKVsQ556naORrrRN7YEwVblhi6rVuPL/UqJi+qiZWjZWLNiN/qkNChKK1FnObCU2X3JQ1+RrL3Pnuz3fbbMf2F6VH2UpPodNfLWNYU/00S16eJT5PIfVbXUECuJschhx7Ct771raqytp9bhrCyea1rWogesF4jmo2VzF2aR3lwwI4L+eLoeTzzchOeZ8FEWx1lEKHECo/YjSeOV3PuliRqoZ6nWaGOqTwaGUhD4Ta3SiraOtr56IOP6derDxnfFfpQviKXy6LDAGO0I9omxBXckWjhUSy0s2L+Yl6fO5+35nxAsVQkcY2NCt2YZPcvEFJitU52ylJK50m4p15/AAAgAElEQVQT7VjikRprelA5rOPNrNoNrZ8HwkI53iLKeYQUoMr34/+z996BllXl3f9nrd1Ou+fWuW36MDPADGUog6FpEMX+E2M0ihp7FPU1kfgaG4nGvO8vmjc/W5TYNcZXNIolKhpUDCAoHRzKMBWm3JnbTz+7rLV+f6x9zi1TmIGhKPcLl3M5d++9dlvrWet5vs/3aS2GwKpZXvSci7jp3JsIo9D6f2drCC3g2OKpfF9nB/NaSLWgKpUKYTMkyGQoFjuObbutfvZkwCHmkMfa/h1NnazDwJ5qTyHm06/bwsvPGeW63/XwN1ecwciU4O5tOe7Y2mNHnCgDOoPWHsZYFcmZkvOizfA5qtZTg6K0QilLodNaM1WtsXvffpAuvT19NKOIRrOJIyRO6vYxxqCMzXWQUuI5NkNXxTHV6RI7tm8jiiIcz7XnJmUa2DYp08kGlXWayDVbivixlqd4rGCESW14KleazkJaRqMFx3OQjqSjs4O+vr4Fg7CAxw/pe1at1vinj/0Tr371q3nfe9/L/tH9c/6+gKPHEa0UHnZoM6kb3RjOP77EecdXKNVcrru3iy/9fJgf3rKIe/d6XPe3ZZAJwihbi8a4KG0HYZunJjnaZVArRV5rk5IkJcoopBQkJqFeqTI5No6oVZE56O7pJpP1EKm8glaKRAg810X6HnEkqNWbxMrGN6qNOpFKUI6LlsLGPQxtQqZ1X9kb0JJCiOOYjmIH5XJ5JmegHah+lEgNIG0XGu005iNx28iH6SzzJQQO3GDmPA74fqEjLuDxQvq+aa256+67ueYX11Aql4jCeObvxwJPwXf6sEbhYUK9sza0LiCtBDv2Z3AdSTOSHDdQ5ZOvu5df3tvJ9rEMupX4pgAn1T3CZom2As1HFgmbCfbOtiF2iJ75R2CI4ohqtUrBtUVgoiRCRAbXmTl/6bi4nuW0N8KQcq1GpR4yXZoGZleearmtZkLHrXKaQkp6enoo5AuEUcjY2BizfTyPhZ995iwOfd/mhetS6Y/DY2789mGMA4dtfgELOLY4gJ0GruMgkDapME0IXMAjg+CIMppbWx+OOmIAxWTN4+3/fjx7RnPotFhLZ1CjGsIJQxUcJ81MUy5KFnCI0CZEGfDEw+klzzv5ttDWjM++JXlhjEJpcFBWzVRoit0d6IKgoUKatSauFDjCwRES4QYoJHEUoqSgu38RolwjNrqdci+0aWs02XZN+3SllBRyeTZu3MiGDRsYGxvjB9//ASP79rUTedp3/BFgJnv56PZr0WZtLTnAuOlPS7fpEPvRomOK9nM/6Lh/EKrlAhbwmGNWfEEKmU4GNVotUFKPBR7efdSqftMaA1vBfQNtXQRsrkAQhLz2vN1EocedO4tcfdsiXvPMaaSjGOqrITIaIgNuhGcaODJLrAWOFCSeJDKGINUksyUsZ9skWx5TpI3bgdIKf8k0Ec4YgcaQtA2MSxh4CASJsAwjozVJqIhNQmIMUjgEShJnFEIaEFaOQYsE40qMdEAKhEoQxtgqCqmKhTHaztalJIpjhoaH6SgWUVrj+l47gH4oyQpmXducHAbmGoK5SW/MJPe0+OQGhJmVlGTS+yJtdTjr75I4ZMAECOK5g7jQaWa2xI2xaRcpz71V8OH3NT7yB4UWze1IcQwZKU8qzLqsRCVWzTWVBlH6QDXbPwS06qQIDjufOzhm72BmDnSooPURso9SaqItP3xgQ+nXOV/xp2eNkPUFP729nzu2d/Hys8cY6mugUEQ1B4SyQnQ6HfGFTpNyNFJZVo883AAkmCXtYEfdVl8RGIRIC8JgiLWyctda4wBZ10FLh0ZTUQ0jEqXRCCqhLQ4jXYmWWRuX0FYAThuBUibVe0kzZrFz71b1uFbCV71eRzoOQSaD47gIIVEmedQEoTYF92hdUMak2d+pkTQSYWYL9s2F06YYzezf2lSYeWPMHKNydKe1gEeI9nu/gBaCIOB5z3sew8PDDA4O0d3VvbBqfZQ4MqMwK7A568tZfzZIqVCJi+dqNC5GC3xfUwgSKjUHJ1BkPG21jYxAapHOQm1SmB179KwjH9nLLwypETGpRpFBo8AYXCExyhobTwjyvk+kNDoIKDVqRIkiTjR1HdlgsYBI+ygc6s0mu0fHCGNlz1dIG1zWtpaAFc9OtZeUQhkIm02kEKnAmZ25H0wH73FDumIQrfJuRmLFCB/mhMy8z8O2wYJReDyxMODNQTab5Q1pDec4jBfcR8cAjy5PwaSVyYQdIqcqPs/80NMYKWdxHagkBfrf+QwMkuMXN/nt3/6cwE3sDNozOEIgjZe6YZjrnzoitAKnsS3rqVWa3m995t1+huW5LlY4HRQjQSIMrnDICUFPtkjZCamGITJUNKOE8VKFsekGY6UqY9PTTFcaxKlLyqSGS7akNcSM28eaCUOpUsHATGAa5riF5pfKfERLwYOglVswx+OTzvCNsQwrKWirnNqi8g930Ed/XgtYwOOBqBkRRZHNcPbyD7/Dk+ndfhJOqI5J8poxBqGhGCRc9rwHmW7aHASFj5aQKIflixr4jhULQ/lIbdLkqHTgAtp36BE8NNH+ETgChDCs6Ojhab0r6cVHlBp4BYPJZTGuRzZbQEgPR7g4jmG6PM7923dy30MjKCOJlcYIFykdNKQB7FZAm7aWUcsRo5SV+AWrE9OSBX641X5bYds8du9HS45YGSt6I9py24fb6TE6mQUs4Bii0Wjw6U9/mhtu+DVr16zhve97L319Bwrv/aHg8ViYHxOj0GICFYsJb33+g+AZqLsgHRKd1kWQAimUdV9oiVA2UipbA1QrQarl2TgKw6DFjGS0FBIhNV1ejhM6BtjQOUytWsNpRnhxjaS3E1XsRHgunmPwXY2JY2r1kLHpKs1YpWwGm6mMbOVRJIc8p5aRSBK7CvJctx38asU9Zhe6mb3f4wEhWhXTDrNN6xHM5aNaHO5NXDAeC3gCEYYhN954Ez/68X9y+mln8M53vhP+cG2CxRHM6R4NHp1REALhOJbdAhALjPGJGxI/G4JSSC8HQiLRoB1L3ZGKVPaxzaBxAIxIBfFaAVJmTbVFO/GqXUcgpYXGUiGMRglD3phUQtdQCDLUfIOJIVvRxBMN5EMhfleVZGkX5AMcfLwkYbo8SbU5BY6VvNDtGghWsM9oS3eF1CUkbNEdKUTK/JFEUYIxAtcLcB3furZSyuzBFDUfDxxRPKN1q+cHmhfw1IJQHDORg0eLo2BOyZR1p4+UebTwfh8WD28U2hLA80yTadGAaA/ck7UMd+zo5ZknjWFiHyEUJLFl6kiBaFFYpQatQbgYoa2dEJZWaY6iWlDLDeIhsKUJBI6EPj/HOYOrWL5oEUFHjp71K3GbTer3bSeq1IkrIeychEUd0JnFjyVxmJAkOi0XafX0rYyFahcyTy/cJuqlxW/ErOtvhiFJkuA4tgiJI+UjU458InGwVcICniL4/Z4RtJJLH37Dx/5cjhhHebuP1ovySHAEKwUxsxKY/317igkYQc6LePu/rec5p4zzdxc/QCFr8L0ElLB8HWNsboOj0IlGCm8m50Ae3QylpfUugMBIkJJAOhR9n2ctPZ4XrjkNCpL8ok76zz8VuahAvGs9ycgkU3duZWrTZpr1OmblAFI7BK5PX1cP5UhTbjTRQhJpkyq4zrpaIQ7adQSCOIpJYlvK0A/8g2x1+Nv8ZHpZnzDG1AKeQBz5hOzJBNdx8Vwfz3MXKLvHAIc3CnMqvrcSrMxBBwsjBNUk4FXn7eE7N/bzy7vP4N0v2saZy6aREnxPsHygjiMVQiWYlDuvWt7uo3gZbRajwRGWFhrFEAADxS4uXH0ST19/Mn7gM7xyCd0XnozJecSVCnrJAKK3C7FnEre3F1GuEI1WGMu5dBQ62HjiBvJdffzmnk3cu3O7rR9tZPv6JHaFkKQUXQGzgs12BRFFEVprMkGQCqse+Wg/w05KK2wZHnVkSaRs4lZ2Ahxlv3mSGasFPIb4PUx2C4KAZzzjGXQUO1i1chWdxeITfUq/9zi4URAH+WwvCqwP/WA79XVEfOAl23jBaRO89+sruexrJ7Ekr/GkYN1wjSv+6haygUHIKFUcFWkRKDFv8BQziTrtr8SsltKAsrH6RlnHZUX/IM89+3yeefyJdLgO3YP9dJ62Ft2TIx4rUZuOCBoxor9IZsPxZBsh5S07qVbLlBJN1vFZtmwxQ4PLeXBkH5u2bsEg8NIVTIJGC4MRM8lykBoFA0YaoshS44w2BJkMbZmIVs0IMxOUn4v52cwHfSqPAi3xPtu+NXT6UJsebBk09+8LWMCTBNlslksvvTRVKU6r6f0BYv6Q/FjiCAPNh5ouzv0+MYKte/N86ieL+eWWLv549RQbVzQoZjQrB0LyOYVSCZgQI4rp2C9wUzmGOY/zAMEgkf5rzYcjZTpbN5yx7iTe8crX8IxzzwcdQ70MviRSBilcMisX45Z7aJbLGEfgLxmka10N3ZFhsLPAwHSJu+7ZhEpiFnV2c9ySpdx67ybK9brNS5iV2UuLm9Rm9KSsKa0Jo6gVirZF3+ffozkD7qFH2tbK4wCYQ/9+KGkqY0w7UVCKgyi1HswIHOS7o13NLWABjzmE5a1EUYTSCkc6ZLyM/dsf2Ls6y4nwmOPQRsHM+iU9I5kOhIY0xtziMAqNMZJG6PGuL5zIzrEs//LKrbzgrL0M9SgMkti4kNHIpo8ReRRWk8jmOAgSYzDCVlZotdd2vwjayWNgE8WMSsjnspy0bh3vf/NlbDh+DWCobt+K2rKXYPUSnDXLkeRw3Q7c7hyxF1AeGSXf08fwxhyykKUYZOganaAeNrl1091sL2xjw4rjuG/lSm6+dxNaWIoqOnV4mZZZ0O1Zv05dR8okCFeD1JY9JSyLSmubYW1mSYMfXjXV2Kpnrf9rBbXTr6SZ+26I9HkIMztUaNrlEEgT6WaYXeLwMcU2h6BlpjUC5w+tnz11cTAtnMcax+rlmXe6tVqNf73iCm688UZWHbeK9/7Ne+nr75vZ9lBz2d83PJr7N+8ZH+6RG45IEO9g01CYf8elMEgBZ58wzcdft5njF1cIsbGDRuSweXcnG9dGJKHEk5BRCbguwugZ51FL8G7OHHxWi6nWkHQcfGNYuWQx77j0LZyy/mSaY2NMfOvnmNoY+TVLCZb2IjozaCAuVYnjhOrUJOVtewlzPoWijx4vkyxy6B8YYPHSJXR7AbdvfoCB4Sx/vHod+/ePsm1iBGUMjpGWqmp0u+qaFlgRPSNBCJTWTE5O0lXsnjlf+8usW/74vZEtm31A0PiQp9Cq6C44pHtpAQt4JDia137+AHiofY2lof7mt7/h+z/8PmdtPIv6/6gffXsLmIMjMArzPtuYb4YNGTfmnBNKfOjbq+ntiHjtsx+kp6D46s/WcO/OHq58/3W4wkCS+rSNaa8GbLGcuU3Nfq62opkEpXCEpKezyMUvfjED/f00TAK+g44iwp0jRGPThFMV+t/wAkw2RzhRZnpimmq9atlOStEYLxHXmuy88ToS17DyaRs4+dRTqFdDyuMTbFi6inhDyA/v/g3bxveRaLtUTZcJtoaxTuUv0thBEsfUaw0rjJd+b+MfYsb9Ih5fwzAbrfp2D4+FNcECnkAcKbnBWNmWlt5RkiREcfSYntpTAceuRrOBRuTysR+sQmtJqZnhA18/AxVKdox08vYXPYDjJKkSc0qJaU2kERjTmqXOZvTQprvOjjD40uHUE9cx1D+A0QrdmSW6byuMThPHIY0HJ6hWy5jhTjov/CMQAt/V5ItZ6MrhOJJsV57i4n7YN83UXfcxkd9CtGYJizoKTPxuM6PasLKzi0tOO48f33Mbd+55kBht59LpCG9mMbIwhjiOUbGiXCrjuO4BCyyDSa/lUKuvxxa/h+SSBTxVMeddNQf93hiD1rpd8dAYsyCIdwxwbIyCcUHYspRjIfzzO7aRRC6XXL6RvnzC597135y3vmxZOFJjvBhlxOzyv20tofYhmUnUENKuFBI0rjHkpMu6lWtwMGTzGcL942gSshedSrI9S+M391Idm6Dxg18wBHT90UkEnTmktm4ekfNxci5uwaP/otNwRJPpu7cz8atb0Z05io0GUgjk4n42Di3DjxNGSuPsrVRAa0uJNZBoA0grsyGFnalEEWHYxPc9W8+gJa+9gAUs4BFiHlmj9a0QpBVDrL6XXqj7cSxw7FYKCLQRNJQtcJ/NaVYtrvGld1zLuqUVVNyBbsl5pl55hIM5yFJxftEZW65AYxzr784EGTzXYbB/gFwuR3agF7m6h2RsHH9rkeZUmcbtdZqTNUZ+egtxU9N5zsnI4T5ELkBkPUzYwDRDROChGyHNvaPQaKJ0DInCVBpU9kxwa2eG5StWcM6S4/j+5t8RopHSszLacZwGcY1VflUKrRTGYDOanVT/SIo0AXB+jOHQmHNLBMy2oAsmZgFPPRykzwjIZLJceOGFdBSLNk+hq/PhO8iTyW48AZ354S7/mBoFg6Ac+3zoy6sZnwrYO9rBOz/3DDCKU5aP80+vuxfHAZSLNAYlZlYEcwia86uQ0ZKhtnwYz3FIkoiBgX56enqIHUVSrmBMTHa4h+KZJzLxwG6kEuSPPw63rw/VMAgtcTIZoukS0dYHQSVUfnM3jZ17cT1wOjyceoxwJKYakQsTpnSVqWKGEzsXcY2fpRIlCOOiie1ZG5mmVNgriOI4rS8xE1M4SKrFYWEN5kGSBVo5D0Jbj9WsO7+ABTzp0Vr6z8Yj8WnO6lR+Lstb33Ypb+XSecc93AGeTP3lCbBQD3P5x8YoiASQeG7MScsrPLQ/TzmULB2cZnIqQcqY6UqEKyVGSQTWByigLXL3sE0IgRZWVTWjDL0dXXR3dZOohNp9u0kmp5C+RGR84jDCywY095VJkgh/7TDB2uXEE2Wqd2+lObaf6V/cjC6XCR8aIZkYQ0iJjhMAAi2h4CGNYUAb3Af20DfQz4psJ6V6narWljIqU3dUulLQylLktDII3FnB8VbcgTlaSC2q6QIWsICjQNqdWgS5MIpIVAxALpv7/dMbe5LhURiF+aO5oSNI+K+/vIlqkqWpHPI5g441zabD2HgO6SuSpsRNY0EturRpkewPgZkgs01wy2YzLFu2FM9zma5VUPUmJusRjU0x+oubmbh1MzrR+CuXEKxbDlkPKaD60AgPff0n0KhBaYrmnv1Io3CVQiUhCJsRKe2QjkDSNDGRjqnWy4RhA60VwkiEA+mE3cYOjB3klVI4joPSOg0qt2InAuk4aK3TQkBPptnKAhbwJMchuksUxnzxi1/gtttvY2BwgMvedRmL+hc9zLEWjMbhcMyMgvX7C6QD+VyEDD3K1SzX3lLkP2/sQcWGKz882d4+zamy+6aieC3W0aGaM1rjOB4dhTwGzejYftyuHKK7g2jbTsrf/zXT9zyAjq2EtU5iokad8VvvZXrHXlS1QVgqE+3YjRQRAoNOEoxWKKOQCKQRSK3QSYRxfIQwRD6EYZ1FToZYJ7jSa8tok9JNldE40sGREs/37AoiLW4jpUOxWGDdunUUi0X27t3L5s2bAcuz1gcVHPwDxRPHyF3A7xtmp/fMRmvc0BCGTX557bV87wdXccrJp/CWt7yFRTyMUVjAYXGMYgq2pwtpqDRd7trcx53bi1x5XTe37ilwQrHKJc/YB6HGlZaWaTS28A6Orat8uCWfAbTG1Ro/kBQ7O5menGDrvffQu2SA3sVDmM483olLKDQaJPWI/FnHE1xwCuQKNMfLxFFErTRBmIOk6CDGGqBjpNRoY9CtqstCIqRj6x9Ig5YuMgHHCFYEOQYdn31K4QlFJFry2QKDREqJkVY2u7PYRTabpVR2Oe6449i48QzWrllDZ1cXd999N81Gg+3bt7fHyIczC9ZgzrpHIk2aaPN2nyAsDPALOBIc7XtykJDanM+0w2hApvpkGrsin7MQMAce6mgXCkc6j5m93fyk8UM5Qg51LvNTR1vaAvMu7YC2jgWOyigc2PYst48wVJoel//fU/jhrQNoBWetLpHZ6/CaZ41y2Yt2pKOfLaxjcDDGDrYG0iI0aZGdWeyzmUC0QWmNlgK/kGdo2TISE9OsNTHSw+vvpZHLIfsLZDMBPc86FT3QS32iBjrByfnoABrNKo39o7g6xJcS3/WQuQDhOiT1JknD1oDwfI+gt4hWMSJRSCHplHWW5guMlydxpIurNYkxJCohn83jSFubuVjsZHBgkDM2bqRSKbNq1Sp6e3tQWrN37x48z2PjWWcxNT3NdGkabYy95tZn27s0k7chEam+hbExGQNt6pbRNomuXY/CakKZ9O/CHEj5pSV1MTtifVTP/hFiwYg8CfDoH4LR2BWuFMj5TJH5LRlQ7ax6cZANDvyq1fdppTTJuUq/KccDYzzCWAEO0jgkoUEnab1y2zXm7CMEINPPQ61EDnYNR4A2uXLeMWdymw4c1OfsM+9vB/v/FgX3kBseAxyVUThgRts2UfY0q02XX9w9wN56hn94yTZedJpm094sQUYjik2o+ekBZDs42zqmSNOELfU/nX3PMoUypX4aQHoe0nOpjE4Qjeyjf8ly9Mg49du3EW15ANnfhfnxjTC4CP/k1RRWDVPdN04UhTSmp2lMlch2eWQ8DyfwCBb1kF+zhKgZMr3pIfxijo61S3EkjG7aQn6wD7+pKCSKlcUedjYqlMRMhnAQBAghkI4kCAKWLl3GqpWrGBgaYGTfPqSUOA44QqKSxF6HgV27dvHbW27GKJWK7tm7YdlH1h1nr1+kncOuDloapzOdx7TLaQoDMxWvRbtzyVYPax1v1nM7kjfrSFYzC3jy4JDqNPDoHmTrlXTAcVqTlpmfg20uDcQyndzNm5eYea9ka9Azsw7Qmk1r5taFMwK0kQRBFiE0uUyBXK4Dx7UHEAeMnoezXI8esw8zu9Cic4g2BHCoWnHzjccB197+z7ydjkEnPUbuI3vKXbmQd7/4Hn65aYCvXD/AJ37usK/qsm0qz7aHujlusAyhnV0YZYvsCGNQtMy5Y2s2H7Cmsubddz200cQmplAokMn6NhagDBpBsHiA2o7tNO7fyeQ92wg9B/ek4+g4fS3O4l5GN93P6NbtuF5CDgfQNMMGPoLc2afQvWIY59q7Ea5L59NOpPHgbjL1mOZkmYYroLvA2u4OwmzAD7feiZQuvvQQQuJ7Pueffz6vuuRVnH7a6UghKXR30NFVtLN0lVCrW12WXDaLg+Dsc85m85YHmJqampeXYX+3leqs7Ha7M7afvJ4bmGnfKv34jN4LM/4nJcysz9kmXwuIIggjCJsRBolGYoREYwshhtGR6V05CFxHWMKIgFTvEfcQo4kBEnfeoDzL/dMyYCZ1PLQIey3xSW3sgChT2Xo72GsQmnrFYXjNaZz73JiVK05kXzVAT6STptYxNbZtYawha3ki5n0eEkfYn1qOkNboPdsozXfxzL5mxOG7k0n3d6Q1MJ5r73XrBwPuMeyPxzRPIedrXvOMHbz0aQ/x4Fiea+4e4qq7BvnSr1aze7yTb77tBjAaV0dIsmBcMIl1fyDmLjxmLata9RsMhlgluK5LLhOQzRapN2s4E1Uav9tJtG03TupmilSC0QlTv9vCxI6HSBZ1ML1rhGalRrGYRQDNKEIqiOoRSeKQ615E97l/RGPfOM3JCH/JUjrPFuz5xW8prBpCluvUd+7ntOGVXLv7AapRZJVTpWHjmafzxte/gZNPPplMJkuSKPKepLu7m1w+w/TUFGP7R6nVau1rPPWUU9m4cSO/vPZatNYIA4qZ4j1zpkmmRWc16QpCzmwzGwfLBlzAUwatlaGWMI0dUEsl2LcPSmVNkiTEUZJu3fK/H12mi0AjWkrAqHTwO8TI1nKDmoA573M6uYkS5ryuUsi0FO7MtnYlbNsTbe0wu9pWZoLzn/tmzr3ozcRxk+2jCTvGywjTYSN9UuAILPEkXc4opVGqJWSmD3ntwmBVjmXzCO4JlmGoXVwkatYiv1Woa25DqXKxbDx8dxUgMdZl7ebwXYds1qGrF3p6IJ+BPOC1TuSAto4Ox8wotPyFiZK4UrF+uMT6wRJ/+ZzN/PyeIX5y3zBuIaJeDnClhsQB46CNfSyOkIe+jpZbJfWLB0FA4Dj09fRgTJFKM0GqVVRuvAtVbyKw9RaUBOlKaqUKUxOjhJUawpUYYYNTGcdHe3aWlIQKHJ+gO0AjiZtNZDZAdnWgECT1JlGpQn1imrXr1rNmcCm/27UDpTQDw4t42UtfyprVq3FdF40h0YpEJSSJNWJCSqQjcVwXozVRnDA0NMT555/P5s2b2f3QLqvholuzB1sMx6SrgRmh1ZTimgae59ZdOAZvxBHgMAvxBTyBMC0/OhBrzZSQbN1cZ3RPZtZWLo+62wsFSiGkPrIXwUhb08PujO3LVnpeOC3n/owrKtEt5791w2ht6eFG63Qb0a7PjszRjJXdXmZIEtuGaG8Djmi1KttGxTgydcc66TR+1oy0JW9vW8OI2ffvMJcp7ExeKYOSM8cQh4xsG7TxjujYIg3M6NBOkkVJsX9Skg0EK5bBisX2qR6LfnmMjIIE4TBe9fjCrxazdyKDMpKMFPjSPpEVPTXq1QKBpyCZqaVqcG0VNZFKUbfinqZlfdMmhEBrAdIhi0M+VqASGlEdJ4zJdWXJL11Ede9OAg2eltSFgViRCEOj0aQR1unqLJLPZvHSTATPCNT+aaqbdhGsPQHpFyAokOvqpVqepDpWImpElO54gOrYJNUwhJUDFPJZfCmRjs+zL3gmJ524jmyQIdYxJlY0opAoDJmanCIKQzq7OoijmKnSNK7r4gpJkM2wbt06TjnpZEZ270EphRQOQeDjui6NRkislNV+at8UOzuz8eGUkSSsW8m6lhYkr5+qMMa6ieoR7NkjuflBjTGZuc7oY9GOcDHCDqZmFmuwNUmZPVlpxWSGrkAAACAASURBVBHc9O1seQM0BiHFTNyMWX+cZRDai2EhAMdOmtLrsXW2CsQStND4rkQISOJZ+6WfMj2EldBpieYZtJjpL6267/MLXGn8ebdwllxy6yINaCHxMThCYxyH1mpGtjY6yFxNERzmTs+GZTgqb6bJEEW1oaltE1RrLmuXQTEDTuvUHqGFOHqjMDtcPmspaIygGTp8/ldDPDhepK+QsKQzJOtIurMJ+yZDeJaL40lQWbQUVj9I2GQuIwRK2Aua7QARpiUdZDWFpJAklSpq735Ms0H1vq14xSzZVcPkhruQrqDhCoS2R2kKBcrgSRcnV6DQ0Uuhq5+8UIhqDTdJCB1JvPNB9NQ+/LXHoZVGyxDjNHF6cnSsXYw/VSSs1wikoaOvm+Oai9m8YxtdXb2cfcZGCtksnucQJjGJ0cRRgjKQyeUZHRunVKnSaDTYs2cPy5YspbenhzjRFAodnHfeudx11108+OCDOJ7HC174QjaeeRZXXXUVt95+O2EUIqSDI9Lgu5FpIF4tTNkXAKR+e2GIjWDT/RF79lUwXhePxQsi0hK0wgiEFAhjB1YpQStt1QG0jTO24mO2EJWdtLS+k3ioVgcnJZlgmXOOsp6D+YS52R4olY4VXstVo2bXNhdt1p09Z4Ej5/rxdctZT2oQZjn+Wz5/a+D0YWmfQtqa8SibH5W0PGnC7qvTJZw5iHU+KnqsMXjJzOhop4EOcazYurNBs+xy0nqPzqy9pe3R+SgdB49wpSDmfVrkfMPGlVWECBBakPMNzzpxgg0rywwP1Ml1hTSncmSEh31NNIh0ZiHtLKdlFFpHN6mrxBoFF6005alp9m3bQfmemPodWwhLJXTg4g33gtHEQtvjaTCJQkpJzwkrKXR1ICPoG1hKvH0HSbmKYwxoQ7hrlImf/ZaebB5vUSeNUpXa5DhuPkth7VKKkcLJeWht6F2+hGxnkfsf3EGxq5f+RX0INNoorM/fSviqVNq30Wiw88EH2b9vH0mSUMjl6evrpdFoIHIBy1es4Mwzz2BiYoKly1fw8pe/nJUrV1FvNMjmc4xPTDA5Ns7U1AQqjtNVk0ZrPZPwJxbcOk9VtCaGDSW474GEfWMljMzwWL4NrSp/tpNppJSWFWeMnewZgxSp39yY1HPfignYuJ+QdkC1v4uZ0repa1QrMYfFQzrIa2x8reVrEEZbV1A6ErYFNY0NTluVfoEQDm2FAUCg7JrGGIymrVdmjZHB6oylbTCrLK+23xnsPkYZtNGWEk7qpkoNZavWyqHSco8ulpM+6bY7JT0zIRCOZHIq5KEHXVauEBQy8yi8R4FH4T6aV/xdQFcu5jOv2cq+yYd4aCLP9+4Y5tPXLCVJBBesH+f776nhuwaSBIFqW30zjzt3qHiVEJJYKWqTJUr3byOshwT1Kq5QNOsh03eOEkoFRqO1QRkbO/C6C2TWr6J3eAAXFzke0SzXMbEiFBrjuSSNOs1f30WSydL59FNQRtMol8jEAW4+S9Dp0Oetojo+hZaavkXdvOCZFyD8gJw0NKcnibryCOEjDPiugzaGcqnEyMgI4+PjNJp1HMehXC1RKk0jJYyP16nX6/T09ZLvKLBi1UqWLl9GkA04ZcOpnLDuRMqlElu3bOGGG67n3nvuIao37H1KVw7GJn48ESUaFvAEo7VwjxTsH4Nd+xskZDHiSN0SR48WvVkCQhrLIFQRUjg40uA5DqSBYUc6kJZyNcZOZBzXIU5iayCMxiRWhFJFMa7jIaTEdwRxYmXqldYEjiTRdsRxhR3YtQHZYhbZSCJCChKdoNEYrXBcF8dx0TqNYyBwXUkURbiOTVZFYqniWuG6Hkol1r44nh1whSSOE1tWV0o8Yd3Y0pEtTy5C2tiFNYJ21RTFCt91aMZJ29g8WrSIATOuMZt8K4Q1cXtHarhugdXHgd9aQR1lG8eQfQSxhslKwHdvXcyPbx/gnl0ZjJAsykWsX1pnZDLDUHcDbWI0CiEkUiQYNEYf2vHZqivsSEFMxFR5Cn/fNAUHEtEkCMEkCQnQiBJMolAYGh7gBbjZAC+fw+SzSD+HCGDwrRejRscY/fF/U909gVKW8yy2PYR3/BD+sn46uwYhjvEzPsVCnqldmtLkGImpIoXD2pW9dBQ7aOzfii7n8dwGff3L8L0cCEGiEuJmkyS2wWbXccnlswghqFRK9PX1UJquU6tV6OoucuqGkznzzDModnbQUShy+umnI6VkfGyMvt4+erq7EMD2rdsYHR1FC9ozK9meOS3gqYQ0wkRNJ+wckUTaRQt5yJnpMYFIkCjCRo3ujgxx1KQ8PUmxq4cojKklCblcjmYzpNhZJI5iGo0Yx3EodvSiVIJKEoIgh1SaKNFUpsfJ+jmyhRyJijFJhNAxvpPFoKhMj5EJ8jg4aCGQrm+9DI0IaelFyECSJCFoRcaVhEmTQqaLcqUMysYt/ayPCjWBcHCFg0kUjWYDjCCTdXCNJtEKJNTKDTLZLEY0reGSgiTWBL6HSTSliRKd3d04jkBrRRxphM4TR7baous6uELiChcj7GriWOou2bwkiRYGhCKSNvl313iDvqEsA/kjFxydjSMzCg97HXZAGitlefH/OZMd43kGixEXnDzFWWsqDPWGHNdXoacQpss8gyAB4bacb3Pu1YHXYZdIErtcCnVCXScUHS/1H2oSo0nQaGHzHiKVkDgOzlAvuTOOx2SzjO/ej5Quq046ieLaQaZ+NY3SBuPYvAkThzT27KP2wIOEYxMU1y/DL+YwiSKsN8B1SLTCUZDNZ5GOIONKgoxHo95kbNP9jPdNkO3spX94Cb6XRZqEXOCSXzyI0v24rkMmk8FzwXcFHfkMKmrgFgucuPo41q5cTm16msnRUaQbEPgZmmGI7/kMDQ/zute/nhuuv56f/fSnjIyMpLOEI3qKR4F5D2OeX+qQzc0OBj3W+H1u6xger20Uag7Veh2kNzfu9xhAIMEkZDMB3//+f/CNr36J7t5ewkjhBQkvf/nL6OxYwj997GPk8nkcKQlyESeecCrPe96f8P73vIh87zD/+KFv06iW+T+ffguTUyN87TN38u3vfpwf/uSLhPUQ4RV5zrP/jOdd9Kd85et/z+YH7qReqSCMomtoJc959quZ3PMQ11zzdXoWLSEyMY5b4O8v/xI93T1IFFu23sGH/uHP8fwcShl05HDOWc/hz172Znbv3c43vvFJtm+7GeEJlixZzxv//L2sP/EMPvwPf8XW7feSy3ZRKilWrVnD//jLv8T1fT71r//A7bf+jiRy8HMRf/rSS3j6eRfyz//0SXbtvYNGcw/ZTJFcdhGve+372HDmBUSJXQU9Vk/EINFCooym2lCMjSb0rXSRj+BdOzKjkA4Khz629dsFnkJriRCayZrDrdu6uHt7kSQ2nHncBGe/ewohNFo7SCe0AR+ZylsIy61uO6XEvOODXRJaeoC1jtogjSSRitCHxE+1TbWHKVUIlcIPXITnkRnqIxkvkyhFpVYhO55D5LJ4/b2ISg0d18CFeHKSyZ/dSFKuUz//ZDrPXEtmWT+T9TpJs0kYRUhhl5jZTIDvJPiOQ7YzS6gk49NjlKYmqEyN0T2wjN6OHGeddjLVZoMwigmjiFJpiqQZoqMMcaNMozxB4AasHOqnM/AxjRoT+/azv1zDdX2WLV1Gb28fRhqmpiY5Yf2JTExMsGnTJsZGRwnDOkbrdj7HfBw1+cRgZ2NtNddHv/Q9bIbtY4HDBViOJvhyBNsd9toO0SmP1f0wQKMJu3fFxAkY4bQDto8VBCINNGt0UqG7O8e7L7sUnQg+95UP8cMffoaXXfweHBFz8Yuew6knnYwxklyug2q9ApUyzShm+5Y7KWY7GRvZhWxM88B9t/DD732Wp59/Meef9/9w35bfceW3P8/Aoh7+4rUfYM+enXzui/8vhc5u3vT699HZ2cO3Nn+SU9afx6tf8dc0EwWOoaejG0eCKzySZgMamle/6m9ZtfxEfnL1F/nVz77DORvP51tXfZb9e/fyP//qM3iux79/6//j29/6FO9/z6dQjRpnnnw2z3/Oq7l3y01849++xq2/+W9qzZBbfvlVXvLqt3Hyic/kjnu+z5Xf+BdWL1/Fa1/9Kvbvv5B/+eSbOe+8V/CsZ72CYlcfjhS4uI+JVH7L/hskChcjErSB8bGY+qBLMXus3Eez2FYHHLHF6TXzqY8G11X8x7tuJgyzaCOQxrqGhNR0dTZBJxBqHA3NTCGN2SRtPRItUo0UMXMKMxdt8FI6gpAgcjnGSBh1Qkp+g8B1KXZ0IIsdDC4eZu9926g+uJ+pXXvZv+VBMquXsfj5T2dwyTBeLaQyUaa+b5LxHfvQlQSUlanwPIGaKuEHHvH9D6GPGyS3YTXVyUkqpRLlZoNmFFPMZmg6VipDS4/AcQl8Qb6/i0qtSdgs89C9t5ItdFLs7KInyKCEoaEiwvIkiojEUfhhSKeK6MnmGOzro5gNKOSz1Dry/OL6X9MzOMTKNasJOrIkYwpHupx04sk8/ekXUKvV+OqXvsz3vn8VzUYdIXRKgXskHMSU8mdsjMcKjbWoHlaWpD2KpW6r8bEJKpUyxhiWLVuG53mEzZAojqlWKpQrFTo7iwwMDAAwPj5BpVKlv7+ffCHH1OQUpekSvb29FAoFdj64E8dxWLZ8GUms2L17F74fMDQ42G5zy5atDA4M0NndCdj6FVNTU/T29pHNZSiXyoRhRG9vD3t2WZqvwea29Pf343ouzUaTkX0jNn9ECOr1Oov6FuEHPnv3jpDNZNBGE/gBA0MDM30CmE71qgI/oFqrMjw8TDabBQSNRoPx8QmiKCKTCRgcHMR17WCwb2Qf9UYdz/MZGhzE8zzGx8cpTZeQjoOXpgPncjl6+nrmtDm/n7VnaMY+MunD1DQk2reZwIgD4nTHFEbiygwikUgtMabO7of2IhKXeqnJsiXHk9cZdHU3991xI5XSKNPTYzzj6c+jo9gJmTyZzh5u/s1/sXRoNcVMgUq9wa4995PUJnjdy99NR3c3K1au5kdX/zs7dt7Pn7zgTTjCrs67OntZtmQt0nFQiWJkx2Zu+Mk3aYqYzkXDrF2xzrqTPOv3N2HMVG0PO0eajI7uJtfZixExIyMjbDj1LM48YyOO67F3//P5+r9fQb05iesJdu/ewg03fof7N/8OmalxyvrT+Mo3/hkZdPKii/6SwA/oyPfxs6tv4P7N9/GnL3wr+WAbOAGdnd2csHYDYZIQaT0rt2Iujsa9Y7Bj5KGgBRgcjCOpNDW1JuSzh575z/dktVhKRxFTOPxLJoA4Frzps6eya7zDGgMihLZBnvXLSvz0g7eAl0DsIo1M2b72uDINGh3sHqUEABIdo0kYbVa4sbKbjpxHQzTJxBHluEHZNMlkQJdLmGyACFzq+8ZpVpuEBsTNm6hNTJPt6mBoaAgnmwVhy4d6xTzSEZhaA6kVWT9LHMUIKXGyAcXeXqTjMTlZotRoMFmuUY8SYgNdBfATje97OFmXQj6DrDfpJaAZ15neX0NIByGsYF5XxgXHISMNcVgnIw1DfV30FrM2aNeoMz6yhztvv4M160KajTqdnVYuY3R0lO6ublzPw/d9WyWuJXbXYkfMm53O1015uEfbUk5qW2eY4bgZqFUqfP4LX+Tzn/8CSRIzOTnFm970Rj7w/g/QbDZ5xzvewc233IwQkkwmw6WXXsorXvFnXPLKS7jtttu4/G8v501vejNvu/Rt/Nc11/DhD32INWvX8sY3vgHHcbjh+hvYtm0bL774xaxZs4af//znFDuK3HDDDTz7omfzrAufxdf+7Wt0dnbyb1/7Nz7wgQ/wkX/4CG+99K185jOf4Y7b7+BfP/c5nvPc51Kv1+jq7EIpxfOf/3w++MEP8pOf/IS3vf1trFi+AqUUmUyGF77whdTrdT75yU9ywoknUq1WWbx4mI/8/Uc49/xzbTBSKT7xiU/w+S98nuHhYSYmJlmxYgVf++pXyeVy/OM//iNXfutKPM9HKcWfvvSlXH755fziF7/gb//u72gx0y6++GIuv/xyrrjiCj73uc/R02ONQOAHfOELX7BGQR/4XNqY10kmJqHZVGinlb4kDr7hMYTWOtX+EkxPTXDDr6/jd5t+ydDS1bz29X/Hzp2bwdU0paGRhAS5PM2oSY/bh/AzLFm8mrs3/Zq9I9tZd+LT+O1NP0ejgByJSYhUEyFdOgrdNBoh5UoZKT2CoAOEg3Ts0JVIQ9PEKM/FuA4NKVFBltDU8JXBCEkcNbjh5p+xb89D6FKNS9/xfvyMh1KCbDaPFzgEfkA20wGNhERFhGGDSmWaer1Gd1cX+yZ8tm29lyiMIBY4jiSTyRIEBQCkcAjjJkolUK1ggDCOiZIYEwRwjALNh0eLOQVRDI3QjsJHiyM0CkdwOcaQcQ1ffusdREqijUAZF4V1J2WcBD8bpbOblmKnaNcSmG1FZ7fWEnoD0CYBNKONEr8r7+PZwydTdDWNeplmWGcyaqCmx6hVmxTzRarNKs0wxO0q0LlhDX3rVxGGIfmODjLDfZRuvR/heSx50dORrmH0+tuJ942T8T0yQhDHMY0dI4Qj4xQH++nrXsTmB7axbfcemmGTjlyOrkZIqVonlw0oZDPkk4DA8wlccKRLQTgYbP1qY6DZDKmGDZrVOrU4JpPJsGrFErryWVwVkTTqTDVq1KYnmZ6aYP/ICDpJQMA9997D1T+5mjNOP51MPsfePXv5zW9/SxSF7fs3IwNw9Gjf99kSkvMMjMFw33338YmPf4IXvvCFfOCDH+Dqq6/mEx//BH/x5r/gyiuv5LbbbuOKz17BSSefxIc/9GH+9//6Xyxfvox6o0G1VuXee+8jikJ+/OMfE0WRrVanNeVSGek43HX3Xdxyyy3UqrX0b5bC+O1vfxuB4PobbmDLA1vYcNoGavUazTDkK1/5Khc+80Kmp6YJwxCModlo8NI/eSnv+Zu/4frrruN/vPOdPOvZz8JxrZvxP/7jP8hksxQKBYwxfOyjH8VxXX7wg+9Tq9V42ctexuc+/znOetrTcByHsGHv85LFS/jMZz+D47i84hV/xo033Ug+n+eLX/wi//eb3+SUU07hyiu/yYc/9GHWrV/Hj/7zR7iuw1VXfY/f/uY3fPe732XPnj3UqjWWL1/OZz/7WXp7enFch8HBwZn7fsiHNPOMjYEwbGkFCYxMtbIMR09QP0JYCqdp8+Q7u3t4z19/lK9e+Qmu/fl32D2+C9GRQ/R18cfPeynnPu18HGXQScyunQ/geh6rVqxn69a7Gdkfc+rJf4RwsvQPDIPfwfW/+QkXXPhi9o7sYmTnA5x+2jPI5buZmi6BkGgjcaRPGDZIgJM2PINXv/ZDVEkIRUzsOoTaZlFHcYLvBbzqkssoT03y9X/9CFt3bOOUU08jn+9g85b7GNm3m0KuwO2330quZ4ihgWGklGw49Uze/Ia/YmpqnMve91p++csfsHTZcWy79bds2fo7Vq06gS1bNxGPjbBk8XFks0UcL4BMwTKQHBehldWYwjwOfHHbb1vSoeYRGqJjxj4yQMZPWNlfZe90FiQMdzfAlUxWXO7ZkbVSidKAkUgBiTGWw2xSGd7D3TUBSGPZCsagfQ/VkUG6BuHHeMolr3I4jkO+o5dmI6auIyLXJr5F9QYGQ64jT9eiXnKZLNllgwy86HyGzz2J6Qd2EF3zW2Ss8Is5lFGIKKZ8232oMKbr3A2c8bSzyeWK/NctN+P7OZYsGmCor4/l/QN0d3bQ1ZFjUbFAVzFDPpch8BxckVhfouMihEPgS4p+F0IUkdIhm82QL+RImgnNZshUo05JKaQDL734JXQu6icIMmitSeKYPXv2kCQJm7c8QKlUQsUJgeugUI/cX5kONELolO0mUmtsZu59emhjDNu2b6dcLnPppZcyPDzMG9/0Rt7w+jfQbDa57rrr2HDaBi644AKCbMArL3klX/va17jxxptwHYczz9zIA5s3c9V3ryKTzdLd09POtejo6GDFihVcd931XHfddZx9zjlMTU5itGbHjh3ccsstvPvd7+bW227jK1/9Ch8/9eNkMhmkFDQada644gpy+RzaGKI4AqBYLNLX18eZGzeyYvlyrr76p5xzzjkkKuGDl3+QXC6HIx1e+7rXWm0pY+js7GJ4eJhLXnkJP/rxjyiVpulb1EeQyeD5HuVKhW3btjE5OUW93qDYUeSmm27iuNXH8awLL8TP+LziFa/g8g9ezqZNm7jgggu48aabeMlLXsK5557Luy57F8uWL8MPfLY8sIVPfepT5PN5Aj/gg5d/0BafP5IAYRry0W29+XQnYfvYYwVpIFEa1/Nw/Ax+Jk8Q9PLCCy5h+6Y7+fpn/p4XP/fPyZYjfvHNL3PDf36bRhxx6qlP45RTz0IbxdDSlRT7FgMwuPx4hO8wuPJUVq3fwJe++o9c9dPvMTm1m+6la3ja2S/CCSARgkgLPD+LcVxCo3GQ3HzjT/jovhGE6xNLh4svfgvrTjoLch6xETgZSUdxESes3sh9t13Pz//rW6xb/0c8+7l/wpVf+wR//b63o1SCThIuecXbieIuEgHX/faXPDiyi6npPURJk7PPeS4rVp7MbXfezEf+9zspdPdR27+NU59+MccffwaNZJqEJsLkkIGPloJEyHSAPoyMz5FA6JnckCN7So+4qWOnfSQgThy+ecNqPnftGqTU/M8X3YeWgi//fBhHG847fpqOwHZWwYyLWmvN3CyVecdOl0UaAWkRHO0ajAuZnI/jZ0mUSxhH+NLF8z2qUxXqjQZKCrRKqOzeT3XnHvrXrSFqhNQnpuk/ZS1+JqA+MU591357UoGL9hybaakVNEKae8eYuHcHv4oU5VIV180wNlmjXHmIe7ftpKvQwYqhAU5Zuxq1bDHT9RqB71DIZ8l6AY606ffSdfFcD+k4OI7EEZKkmTDdmKJRb1KvNWgan8LAIEuGljCwKktX/wBekLFJPklC1Gwyum8ElELHkf100oV8y330iN8++xyksJXkLLVFg+PM2SoMm1bAL63JoLXmoYceYmhoiHKlQqGjQKISAgIbo8DYMqZCcNJJJ3HTTTfy5a98hZ6eboaHh9svg5SSiy66iO985zvs2buHd73rMr7+9a+TqIRNmzaxZcsWLrroIqQQfPe73+Wyy/4arazv//IPXs673/1uVq9ZQz6fw/N8yyPHrkIdx8H3fTDGBuWFYO3ateSyOaQj6ejooMVya793UqCVptloCaIZVKLYt2+Ej370Y/T39/OmN76R0884nWuuuQbf89u33nVcEpXgSIfXv/71dHV3sWPHDq6++qf86tpr+cY3voGUkq7uLoaGhugsdpLN2VXL0WB27O3xghECx/VoxjFrjz+Drt4BtITFK0/gkte/n9GxPQwNLuM1l/49tVoJ388QhiGDg0voG/j/2XvzYEuuu87z8zvnZN7lrbVXqUq1qEqrtRlL2MKyLYO8goHGBoeNwSyGYbqZ9tC4YTqIiY5uGHpmHN2OiY6ZmBlgPNBgiImxPZjNLB02wgaMDBa2sfaSVCrV+qreet+9NzPP+c0f52Te+5bapJJtNfpFvPfuuzdv5smT5/z23/d3iB//iV/i+uvvZGLLbqxkHDp0M+/5sV9g1+6D/LN/+j/z0Jc/x6Bf4VoZt996D7t37mdlGGhPTvKe936QTmcCtRbb6nDvt38fR47cTsfmmLxD6RwT+65lOTPYyrNj10He/yO/SLs7Bc7wPe/8abZde5j25Cxvedvr2LfvRk6eehZVOLD/Om6+6U4KlO/5Jz/JiRPPxmsZz8zkFu64/V5c3uFf/av/jYcf+xKrgx4zkzPcdMOr6EzNolowvW0X3/+Bn+e2W15NBYh1z8uF842kq4qSOigNH/vcYa7buYoxnn/z/9xIvxS67Yp/94OPMTXl8YMMa8vYFEZiFaOIpIrHzScv9h/QZBLH9NVgFJMZJie69IuKyhuMBYtj2OuxdPYsg+GQ0oP6inB+kWplwMTUFK6VkeU5+dQExhqG80vY2Um2fttt+K8+SZhfJHiPNYZqUGByh5uZZH5hgcxmbJndxvzCKapKKMuK3uo5jp16jrnFeXbu2oVxOcPVIUurfbSsaDlHZg2ulccuUeJwzkRNyzpWhz36/SHFsKCvOcXpOdTlmM4Uk7NbmZia5tlTJ/jLv/w8y0uLnB8OKXwV4QZEKcsCZ2Jv6UvjAF+KNEJZ1RgC64NRIuzZcw1ZnvHxj3+cG2++kY/+2kf5xV/6JT71u7/LK++8kz/50z/l7Nk5yrLkM5/5DJ1Ol5tvupkHH3yQVivnukPX8dnPfpYf/MEf5Pjx42iIVol1lre97W3821/8t7Tbbd5433385m/+Jt4H/ugP/5DV1VU+8pGPMCgGtPM2v/Pbv83s7Cwiwlvf+lY+9rGP8ek//mPedP/95HmWKuED3ntOnDjBk08+yft/5P20Wi2stfzUT/3X7NwVWzfG6vDUhS9ENNFP/9Gn2btvL/v27Yszo8qwGHLk8BE+/vGPc+DQATRAWRTcdffd/Mqv/gp//Vd/xWtf91r+6NOfJs9zJqcmue+N97F7125+91O/y4/92I9z26238tjjj7G8tMzBgwf54Ac/yLbt2+I4fMBXIe6Ly2lAX2+br2NqV6wbMliXce3BG9m3/3oq9RhjufXOe/HBowLXY9GgEWa7yWBT7r//AGIM+/bfiKhhWAx485vfjc1a7N5zkNfPbMe5NgGTir48lXompme485X3IhiGZYFxjtvufD2vuftNVMM+wXWoXAy8L/U9E2KZ3bqbN9z3bpZcRbuTsWvvAd78pndHZq/Kq++5j+EgUBRFzFQUQUPgzlfex623xVqKdlcY9EfrY/vOvbxp/41RGfexIC8AYi2T01v5/nf9BL2VIZWPmMcvas3Ii0BXUSgEfBDODAwffddRcue593+6mWa99AAAIABJREFUgdsOrfBv3nOSO/bPQzDYTlwaIUQmlhuJkLgXM3dUUJ+C0ibC0prcYJwQJNDqtGlrC5/nVIWnXFlmdXmJQWkZVhVV4ZlsG7YePMjMrl1s278H3x9w9slnqIYFmShMtsl2zuK2TDBYXMIVMUjjJ1ro/BI6HHLNroM8e24O63KwIWpn3qNS4TXw9JnT/N5ffYG7776LiYkuW7tt/vJzn2d1dQVDiTOObqfLlpnp6Mtud9gxvYVOZ4LlFc/Zcwv8w5NP8cgTRzlz7hxmapbZma3kWUa/t8S55WVKX8Zyeq3jByZizch6xFSwF+rgcSlKXdxQk3BpPKhrYs/f/sY38v73v59f+dVf4ROf+AS9Xo/3ve993HjTjXzoQx/iiSee4JZbbuHIkcMsLizywz/8w7z5LW/ht38nBmFvv/12/uw//2fuf9P9fPT/+mjU6CUGWm+6+SYOHz7Crbe+gnanTeYc/dVV/uAP/4Bf/bVf5X0/9D56yz3e+9738slPfpLvesd30Wq3mJ6Z5ud+/ud54IEHaHc6LC8vg8Jv/dZv8cADDzA3d47Xvf51vPc97+VTv/cp8jzn3T/wA9F6ELjllluYmppCVfnO73w7Kys9ut0O7//h9zeCsao81lq6ExO02+16qnDO8brX3cs73vEO3vHd7+DGG27k5KmT3P8d9/PTP/3THDxwkA9/+MPc/x33c+LkCe666y7uvPNOvvKVr/Dggw/yXd/1XTHQ2enwM//iX/DGN95Hq3WxiuQLKVB1ZtKL5zqCmA7utQQUIwGxgBG8xLUSNNUyiEdsdPlUAkVRklmDsUpVVKlaOBCMRXCUHkJVgM2oRBNeUlREQhDQCEuBGqxr4VVRKelVJcblqFZoKVQldIkgeZUvU1+SjP5QMepxWURWtS6jVxKhTXOLl5S0kWIxIbMMtKS/qAStsKkC2mYR+NL7AqMWYyL4naQ0ypVBSTC19SYvOYhK0XAB1bJJSfVw/CR8/iG06lFjO8v6lFSB04sdXv/v7uM3fvQxrA288/84zKf+22e4bucqQz9kNu/jjAc/BDwYR+mVA//dB6mS+ymrZIPWo2jUoPBYA3mufO+rb+FNt95GO498q505TFAGRcHiuUUe+/uHOfbUIqFUikHJ1NbtfMvb72dmzw723nED7akJzn71iYjTfvw0xSPH0KpClxYYzM9DWUaN0TiqSmnfcj37vvtNFNby0T/4fT7z139NCJ4qBKpqiPcxHTRrdbj77ru55pq9HDl4kP/v4x/nqaNPYqzHpF4HzgjWGKYnJtk6vYWpiSmWVnqcX1xkcXWV0seNpZJHqyiEmN6bMIBVfQwmpufkk3tqvd+o5aFGFDTi+f2f+dfcue8gSBGfa40ONh47MAJZDgMPt94Gdx5JtSR2lAaG4EvPg198kFMnT7H/wH4OHjjI1m1bUZTjx47z2OOPsTC/wJHrj3DHnXcw6A949JFHyVstpqYmeeThR7jnnnt45JFHmN0yy+TEJI8//jivetWr+OpXv8r09DS7du/ikYcf4ciRIzzyyCO84tZXMDu7BVCOHj3KqZOnmJqaotfrcc+33cNgMODPP/vnbNu2jZtvuYUvfvHBBqCt0+lw8OABduzYydkzZ3j44YfxIWIUGGOYmZ1hemqaY8eO4b0nb+Xs2LGDm268qcGvAeXxxx5ncWmR22+7nVanlbZDRPw8dfIUjz/xBHNnz7Jrz25uuflmZmdnGQ6GPPHkEzz55JPs2rWLXTt3ceDAAY4+dZSnn346CXjBOcedd97B1ORU7PfNJnntzXaNweTSwOPPwVe/1qdwWfRh10JBXhx2ZJJLMI6ivkZKX5Y6jbleUOmVjGozRGgSTIwlBa1N8hZEbRyzmWDz8bgAxth4HiGt4XXpWlp7GFKYV6LyJAR8GLmkjY1QrGt7oIc0vTHLRTTCbJsmGy8VjEqDcw9NGnB0cWsIY3xsPYuVsZ8rodpZeHESUbqV8i23Oa7dBa0LfOUqpKReDikhKG/4yE0UHiQEXv2vD9IOhnv2lvz6z/4dO2dLqAzIMN2AGc3rBSiCWMXWnWLiAii9p5Xl5FlIi83gnJCjdLpd2hNdWt0huevQ7/XJuzFI6IcF6gNlWWJbGbrcw/f6sLQKwxK/uIxUHi9xmAHFTbTp7t7O9Nat2HaHGw4d4nNf/CL9QWpWIoYQoubR6rQjfIexqFhsnqPWURHbcQpKRdwUc4vLnJtfJjNZFC5BMa0cbBbBwYLBq2KMQbDNJhdjYu9ZiTXeJACwsTX7Qh5hwwBT1HlTChp4zT2v2aC0CsK1B67l2gPXNp8NB0PanTa33nZrnBsr7N27DzHwqrtf1Xy3rgm4+9V3N+/V17j3dfeOXUc4fPgwh687vOba7U6bt7z1Lc17b7jvDRuVao3XaeoP1tGRG44QfNx8dUwi3jBghBtuvGHtXJnEYIKyc9fO6D60ayet1W7xiltewU033Ryxf2wUsIePHObwkcOj0wWoqgrjDGh0Jdl18Zw1acIaldzYfevr66QYwbSPP/wRg1xzrIx9LhEgrz4k1A0Em8SG2PNZN+kgmDqPJ1TSkORjZO9R6IyD0KUsqcSooz4TxysmCgsUNCTH9SaW9vj6NxGnuxYlwMZgfu0eQ30EytOLOcXrYy/44dojhXi9FymjbJyunlBQQ8spH7j3GKeWHJlVchOwJiDBcO2WiqnWMKFFxQY7sfO2BWrg9AuePJqiIQP1qK945sxpFvp99nan6A2GWBMREY3L6E7NcM2B6zi/9ATdzgw7Wx0qD1v27sY6S//8Iv7YCYwz6NIK4cmThF4f0UBmIrYKxGI2bzLyHVvYddv1TM9MMxhW7JrewkynRTHoUQwLgireezrdLhIKJnLBhQEtKdk23eZ4pgyqCOxFQo80RGTDYKHSKhaeuLjR4oJKOcZGmvQymxZjtCLqRRywWus9rBX/Y9kKl5+cJqTOR2wsUEyfo2TZWMm+rvu4fi+9brViwLlmhiPJJRffFDV/GWOCa/6XdcduNp71760/x9rbAhLypcJmO1rrFOp1/n6p+4oHXTu+sdfWxq5i8V/Z9PzOxZ4Bq/3VVOdh1loL4+NOz9cR0YUrHSECPB/WcSVhibp6XoKu27qRKSazMx5jknehhqledzibvr+RYSo1cxwJH5HAOOp1VBq1+YKqNMJi9EDS/xoFxMhuWHOH6RTajL22zs2FOivLaJ+JocFzGyENjC+MtA5GEnPzc47fexKEIVnsURBefVXgBQiFdTtLoesCH3rL4/T6wtBbtmz1uNRqU0Vi8FKjehNCN55DA6J+zHQb8bU6BUsVTJKSEh2WPH3yLI8eP8XOLdtBCjwag1kaff2tiRY7r91LqCydmWn6Cz3a1tCdnmTh6eO4lT5hxzRy7BycXcSghMpTBR+bgijkaimMxWKY2DnLaldZOnGayaIk9wV+2McaS6vVYefUDHt278HKEtft38701BQTtmDXtGUmH+I09pQNQSNYljFgLZU12NT9SdXjNT5472NwzSd4bDVCS1qxn4QKlUbIYgGsxsBenELbWJkqsdOUqBCMRl+w0diEY7PHmZ4jPiS1tRjb4PUf3Wh3jtM6prVhrdeb93I50Caa/iWve7HPNhMIm9CG8aXvNcLgAue5IAO/0HnHhFT8KLaN/NM//TP+w3/493z4wx/mrrvuippqSJlTmV0zL5H9xqic1IJBwPnIpIxqZMykH/FASAyxZnCChtlLTwxg0loWCem8G5ndeEqkKrjcY8x6AQJVuck6EHBZZN4NDDagQfB+7KCxv2LSq2h2rBtCLeEjow5SVxivxQ0L3jTWRzPuzNc+qnSq0RfidqitdUUFfBVduVEOJfTiDVGF0dw4qa2tS+0Hk+4kRPegKKF0rNo4EkWoPQnRQnp+igGMC4ULbN7R65rTrP/CSAqKwP/6mQP83P97Bw7lh771Wf7H93yVTh7IXMQtEvUgnspswQSPUgLgRQjGY7CbaDqja0Q/ISz3Vnnk2DO84rpDTLejWyZ2blOqyqMEOhNdVgcVXj3tiQ7njj6Lv3Y3ZtsUsnMK2TIJ8z1Mt40fDBJDTg1EkKiBq1KdX2TuL/8ee+wsg8VViqVFDu3czdziAr0QKIYFe2/Yzfe8/TvZvXcCq/DU0aN0J3Le9rb7uf/+N1B6QcuSYjggeB8FkCqFKKFUKl9RlEPKKlAUJcNhwWA4oChLhsPYgY1SqapAVQU8SlVVBO/RqsCH6Iu1roWvPMNBQW/QJ4QKYwRPhYonUEUg45rB1z8S3WWu1Og0tiYJh/Ss63V8ceTCjXS5zPr5fH416UqvtV75u6rXVoaDAQ/8xQO86f438c8/+M/50R/5UfbvvxZXW2hjyup4s5hawgjEGJaASlzT09MtpicEEU+jMTdxh4DPn7us4UZlPLmrLhm2EFDB2LpT2loJ7/1aF4wk7cbaKPXGhYhq7LGgjLvUoqAzxhMTIiKDFMZANuveziqoRgTZWiiMRiIEXzPzaLGrgnOeugfEZg99/G6CClXlYrMhGOFbedkwUfV9OVdxOaREoYhUiMJw2GVxYftoBGv498i99nyW54UthTXPLmr4qrXZW99kknCJcfSHjv/7r3fy/a86yiv3rfC/f/pG5t7+OId39wBB2hWUJagh1z4BR5UesNXU6EJ9koSRIYcx5iVaD1fpkHP+/CLPzM1xy74dZAl3XVQjnrooruuw3QxjHPmyJ6z06D/9HKwMaFUem2XISp+qKNGiwlSx0L721feJyKlioTg9Rzi9xMLZ8/Ta8O033Eox6POFZ5+kLD1f+4evIAS+//vezs7t25id2YK0lO5kzkR7Gqkqcl9hzCxiDM7YGPgyNgUVTap61qSsR8bfbBnjsKmjVdCAVIGy9JRVjOMEhf6gQG0GHopBQen7IPEceW+VvXtm8HZA5jPWOBkkZpREfKMEipF8qLF+xK5dYHqBOOCF6OvJ3K82faPGLpC7nN7qKr/8y7/MH/zBH/KD730vP/6BH2dmdqaxOHyIkAaasl1SciRCQNQRjFA4yILFmgW6sogx5Vgh1Mg9NbjMezVJb2g084uRxtwFRTYXIOvWkWiKHWpkso0+SjyHmggVXZeCGSosHlHFUFFX4ytQEefEmxAxhlIfBjRfM+5aq14bCgpNMo1Xg2rVDKR20XmzDrtIDJrFBA7VUde5WBO5LmKR/r/cDPKI4BX37KQMWQwtzkkMgItJbmWJT15ECR4qf7WFwiXJsNbnHJvML6x2+PE3f4UD21b55BcOMd9rodKLXdVsoPIRo0QKwQQFqVI2Q9RsaleTMlJKmxJxqZpUyaHmnJzvc/TEeQ7u2E7ecQghmsp4MJ7MtZls5dh2C3EVvT9+iN7KkMlts2TdiSY/PvaA0/iQgyHJJCgKfFFhO22G5xeoFgY4X7G94zjw+rvYsW8rJ3/vd3j6xALFcMDfffFBpFrmLfffx6GD+wllnxNHj7J/7x4y9fhQgoA1gtoWYixqwJs8PViaDlTOGMSaBCIbW5e65JOOudQODQ5Rm4JkQlBDRWxFKmrwLjY5EVUmBhX5IBYOanI7ja+YcSaBUYbWQxtalYNszDyHSzOC9XT13Z7/5dBFdm1QxYeoST700Jd45OGv8b985N/zG//pt3j9fW9AjDAshVIh2B6qrQhzwYWA1pJ1kNJFR5Z/RCpuX57SCtAw7ss+/rKPTYy47sNc43oBog4vBqMVEBl8hWA0YCibqQw+7qMgkY3iQyOPjDFk2htdbczNst6tGruyBeLu881xJv3YsE6mad3rTEATtMUaS2fjJPjLZNse8CoEMmoTTZNrcKNHt1bunh9dpUBzNFkjdrfh0w9dw/bJirPLHX73i9fw5WdmuGZrn7d+6wnKUmkl9FSkTnOsm85v9LnWxrCOqQz175XeCk8+/RR3HtrNZGsrgmI1Vdqm+n8TAqaoWHniOJyaJ5vqUq708aseO9VFMofbOomZbKOiVGfOoYMh9IdQVTFTol9QHD+NJSOb7mIEBquL3PmKm/hn8k5+7dN/wmNPP4O3gWePHWdhYRmRjBAK5ueXmZ2aYefMBIaATQDnsYdzkWDCK1wWO04ZF1PnjNGmfwQExKWZkCgYYrxesGJTANegWKoUidIQF1xIC9uJkHsQl3ygQWkaYK91aoOCLz3L5+axD3+NYZbRz6KlEoG9DNFU12bhv5SNgW8kSa29xv+oJ3Pu7ByqAWtsU4TXHw44efIk3/vd7+D73vUD/NRP/TfccMcdZE4YDgpoBWJMKT3jTS849vqFBClf5AduNLXrTfXAMVTgk/YuzY9RjyQ9WlJmlrGx05tN/KBm3cHU8PJjcQEdhYc2u6VokyQGn2ic3Y6/jlp64mW1e01GwqDZXmNWw+XUJ5JmIdkDzcCN8UlgXV26qkKhZhcf+f1XkBuwPuM//skRAobX7D3LG2+fo+NKGHrUDVDJiYtYGKVBjk5ZtyKNVoM0D1QlComAcvrMWY6fOcs1W7eQGRNdKyIx/TMEGFZUKtipFqbdwmYZxllAyPfuYPINtyNbuqgV/LCkfPY0xT88RfnkcbwI4rLoyrGCywSGQ7quhfRXMB14w7fcxjB3/PonP8ljTx+jnXfodmfxIcO6KSamtlNWBvUR/K/wPi6KysQ0VImB58oL1jpMSMlZBKwGnNpoHWiVMNkBbILOMKkPro9xCqrk5pFYm0BS752hwmP7NvlbdbQvasRBiZZezKCBogr82m99jD/6m79E8pyByZoNEJ/0qEd0NINfFgtXQnVRVsNIUvZSzUSWlpbWuRaETGIfg9XVHr/5n36Dz3/ur7j3O9/FD73/53A24Ov02CZ/fj2Nq63fnOZb04eYlOzAKGvJqICWjUfBu1aaSJs0c4+IjQw5xQMF29yqDTZdw49dj2Za/HqXqNbgcms72QUZCZNxKOvkaB27j3QNWbs/RFJa7ti1Lz0vqYfF1+GxXSWhEKV3N6/40n//OQZVnF1no6QPGrXbVsuDb4ObBNNDNLp7NqM69Q/GH0D91AIBi4qwMih4/LkTHNyzh10zU5jgkFDgrMUYjw5jHEPne2TFEJc78q3ThLlVtJNjDu/BVpbBmQWmrtlHNbGNxYfn8DJJ5YcxO2hqgsndW5nZPku5sES1MI+ZP8dw9Tyd2Vlec/ttrA4LPvap32N1qJxfHbAcBCc5jx0/R3/lab71lbcy4TQxb49RR8AQxKbetib2eW0brHMgQl4Z2u2cLM9oq8FrRoalZaNgUzWNVhjztyVuJB8rP0UU52IuO8aAU7JhrWnUakvceE0NWxDEWjIDz545zkOPPQbAAC6UiPcyvQCyEhlVNIQbfMvGco6GQ7IXFWwMIVOq5/GnHuXor/9Hiirn+975AZbVU2jAJMiTIDQ/kZKvZB1jkSb//vLpSnmTucxv1EKhdhk3KaEaUvFnBViM92TFMt6kxJSGu0vydbq47kVA8jiD6RZdsJte268fYrAJSqZcN8b4U7u9m/cVVEbPcP2XxgVD/fnF+iOMU+3401Q1fVEEiBdIV7V4zThlarpgykhso5aqn1HQYNFSogloBNSmTIMxVrN+gmotNG2KkbSuiziUqlKePXWOk3OLbJ2YRasSS4ElkBtLv1wF6zDbJmDfNrwP0LbMfMcr6b7mZnxZcvQrj9HC0Op2sXmLyXtvo33bAexjT7J89CRbbjnIvm+/m26nw9xDD3Piz/+agQpaCb4MuMxw1+23cmr+HI8eO8O2bdvprayyc/sOWp1JPvvZB/jS3z3EZDvHmphy6FxG3mph8xyTZRFmVwzWWfIsJ3OOLDO08owsy5jo5LTznE6nTSvPmOhOIiK0Wjki0VfaarVot9tMtHN2bt+KiMdrGRuU2zplUdPWGU22huhWqt8ZliXBGm694Wbe3WozDMrAOILUgHGxkK422ZtzjQfv6jTCpN3UWvDLnaQj1dZVSE2Axt2nCpw8eZIvfOEL1GwnOhEDmY29Goyx3P6KO3nnj/wkb/yO9zA330NUyUxGY7lvOtU1c6xdTOuZ12UKhxfJMNyoZ1tEfAP2KOqjlb54Brt4BkeFKWMhLGKpprZTbt2P70xHk1tsk0Ycs7SEIJurNxvYrKFxA41nTQk0NYQbffnpJqRe7+mT9cJYR+e6HBLqgP3ILXXVKZ3z6lY0q0Rx61MoRmytAiHGE9SnuRqmS6c+A81SWHunTQShzrtNT0KaUvro455bWOXY6XNct2s/bVcXewWMxEBtKAsYeEImhKKkOn0GKxn2+j24iTZ2aoId23fSK0v0kVNM334Nk992E507D2Af+ApbbznE9E2HKBdXGIZAPwTE5rTak+CFM0un+PyXv8zfP/oVMLN0uhOcOXOWVpazdfsudl1zgFMnTtJbKPFVNHFdqwIzjKmlEsNNQQWnJsk7ZaW3hAaPAZyVFGSO1dAd18JaIWsbMmdxLqPT7pDnObfceJj3vvtdbJ1sIYS4mlysdWgyMJp6nuQ6CvG1OItBydstPvCeH6J18FoqZxi2WqMNplHga71Rx+NBkjbAegtQNsaLXibwld+gVaoqn/jEJ/ibL3yhUYcMEZnUuYyp6Rl+8r/6KX7yJ/8pW/fv5pkTytmF1Wbeaxfh5kb4Bs1rk2O+sa7AmGxiIwPUOqYgSFViFk9jHv0C5sxRTFXCjv1Ym2HKIeJLsrNPY/qLDLftJ+QddGIbagxqTYSvVolp8ZvQxtWZoGDCWt7UiFOzVihooNm7G864zjtev7xsL57Gk4hRRkkhV5fqMV1FoVBrHXVWkjYCId6Bx4gSLYNk4qkZ0wk2sWvrT5K9phjECCqKx2KCgIHKC0+fOs35Q8vsnqmZj0GtYlysMvW9JfzSAqE3wLqcfOcMLs9pmYyD2/cyvWM7g8GQpekhWgqy4ulMTbPlnjuY2buHfq/i/LHTHH/yOU4Unutbu3jusSX+5pnH+eOv/i1PHD/GoKqYmV3i+MlnaLVa9HrnmZqe4C1vfiOhUoqiwodA3slo5Tk2z1PFciD4lGJaVpRlRVV6lhbnWVpaYu7sHLnLcHkL57KofVtL5UtCKAlaEaqCcrjKYNDn3OISc/MLbJnejctyDAFThkYJjJmmkiw4mpQ8SQI486AeyszCtkmcWJzNaeDNX+btLyqFEOi0Ow3+UQigYtgyu5V77rmHD33oX/Jtr70HLKyEqCyFMA1qo4FOIKzj6xqiMI9yuWZro6Ala/bhZQiFdUzu0sdfyaJJWnbKJJQQwBdUp45iHv875LlHYdhHQkXLWFrbd4JRyqLEDxYwTy7B4hzlruugHMLMTszEDDUW8+W6bOJINLaEXOc8rV1I4xT5thnd67hsWDdXpk4pvsxJFJEYJ8ERCw8v+xaumK5IKDwvXrBhwdVnidj96xfvpSjKmQSfTVzelQbOLy/xzKmTTOUzTLXBS4w7mJaLTM8ZfDkklCUuyxgeO81S8SVm73sV21/1LbS7XfZs3UrvpmtZWThDWQ5wwLYDu9m6YzsnnznB6vwS3lpK4OGjT/HgA3/Gl089y4pWVOqxzrB/1w62tAyHDuxm6+ws3U4X5xxl4anKgPfxgYoxDTooJqRgo8GmwKMq+KpiOCjor65G87XGcTEWrKPVbhFCRVWVBO/xZYGzwkQrY+/2rThjMUajH1rADssko92me7/R8G107eXWQe5gGFAJ0dJIOtOaPa7r/jL2mGXss5dj0RvpAptbJPaXCCHgrOGuu+7mZz74M3zvd/8TssxG1GAPLoMyBMoAahuQhQ0xgujGq10w6fPNEjy+0dRowQGTagWECr9wluEjf485/QyT1lLZjOFqj+FzzzI4P0d7YgLX6aLBo0WBP3+S0gtmt1AGoWUcpt1Z7925LLrceEudVr6m4I6Rq2lNsXudkXSZYwjJO2IRBEPwm8dFrgZdmaVwVdbOWm6ia8TpWnOqZo7jFx6fypBS9Qiw1Ovx8LGn2D19ALe1S57VxWABrGCn2lTtHOtjQLZaWGa4UtLfuhXzbXeTbZmg3+9RFav0l+YZ9paZ2raN2S0z5JmLkBFTE0zfdIj81BkeOXOSJ048RxlgamKKPXu2c8crbmH/4Ws5dM0OdmybZWqySwiBsigQqVI8IZWiI7EIyEQoYWNi29IspRgEH6hMoN1SpvMOionHGIOxGbbVot3uANpkAYlC7gztPGOi08aHgqBVnK0Qu9ZhYuYV1bqA8/jzUaD0MEzakY3XHQNmvbjreTOBUb//TcR/vinoQvORhMKuXbv4hV/4BT7wEz+BtaYRrms0VYnFhyrQIKSuv0yIfnFjUj1QEJpahTWXvTw2tUExuNTxl6naJi4QYbNDCSGgxSr9o4/Qe+xrdNuO2ZuPMHf0MRbPzZMbGC4JumUrky66iPrLS8wdfYoyf4zO7RW67wZCVdLeuQ/b7jR5oJc3fB2D2rj44pWEmTX+XBrdSNYKi3qeN4LwbTqEJL9NNFqIAj6ElCq7ydQ+32pmuJRQ2EwDbCis1QLHadw6uNDMa/3hepWS5GbS5kHUubweqDM0QvIpVWKwOCoJLJcFvUHJsIiF8Ko+GYyKm+zgt07AsKITTNQmxDFcWuHc08cYisFIxmBpnvnnzqJFwbZr9mOzNieePcPSXI/2zt24dpft+4+zW/oc7k2zZc82dh/Zzw2HD7FlyxTTM1PkuaGTl9hiFV95/LCgGpZ4SkDIpJ3wjogQuz5AcIjJopAQoQoeW/mmPjCnT+yIa2i5jE4WMFqmDCaXshKSHlF5itXV2PPBKsEkHzNQlxhsxqAb+bvmuUqqbTIp0HWRNXE5u+xl19MlSUTYuXMHP/DuH+Bnf/Znuf3220cfrnNXC1Hzt019Qr2nQvO50VitWxddJScvdfA/1UcmjexyWIk0fv6LUoPzwBjs9MXJNEHhgMtyqEqWTx7n7N9/kdUTJ5jaOsvEo4/SW1qiNwwM8RiBIAvYtiNuRVCuAAAgAElEQVTLc0JVxi318N9S+pJsYhrKAaVzyI7d5HkrWQpjKumoiCAqZfV8jA7gchZv6oE4lim5ZkI2vDaX0W1BRVN6eUwzD5qU1AQuKpiIR0U9xBe2yS5tKWiIdur6pnJC7W/YxLk2PoHrb1qj0NAMxKZ8bRA12FCn3o1AphpZOm7ypoKNkPLrjS3Yt3MXP/zm76RTrjJYnsN78M5H3Bdi/rDbNkN1eonCe7DgDmwnv/Mw/fNLlHKMbTddh5mZpLVzBxYoKjjz3HmeeuJpMpMxtWMLMtnlmpsOIHnF9bdcx3U3XoedymNRmBXIhCzLsDbHCrRSyqnLM7yPGoczJmYb1dp3CoiLgUyiGZqjSDtu3doKqKfSZEIwOcFaAhGzxfsYjFRTYlWwqXF5CEqwQqsQgmuRDX1KY6ihgOvHWQuN+nkqdFwUWHUvhXqP/2PR9seVw8vjCVeFRIR77rmH1772tWR5trlbbmyIo7dHg1QMPj1LI5rA7yIqsYqiRpuja3t9xMcufKPjlsSll8FYe9PLnLs6N84Eg3NQ9fssPP41Fk8ex1ee6sw5wsoiEgL9YYBqQCt3mH4fzp7D5m1UDbMTbfxd9xI6k/j5U0jeIpw/TWh3kF1706MVsjo4HJTKjeo7Im+ty0dHoHxrxrrunoQYHFfZ3OW01n0U/5qovrJ+Ntd4TNTiJNYPWVW8OsQKwUAl9ZY1kU8n1mlFcObKlmx97EgobPaEa9WxSWJf+5HU1WUXOvvFrkztGhrV7RqVUVGHSBLUURDEpaIpBjHuTlJuPnId//Kd7+Htr76Xz/7FH/MPx4+RTU+Ai30OjMZrGQNmZgKdWyVklu7dN5JftxuTdbGzkwRRJrZvZXp2BvGeammAIWZ7aOWpFpaZunY7i49UHH/2GHe8+pVMTk+gmYIzEZfFgbEZYnPEeJyz2FzJUXxlYkMRq+SulYLMBiMWsUodjLcJU0IYVXyrj1XMKIgJiE3AXpAw4WORDRKi1ZB6QIeE+gqCzzOyftoFtRUwJtNrnzNJUNEfxkmrsQD+MQkEuHis5EW+btN57UL7S9d9vMlxWgPBIWM+9Ag3bQypwMs0gG9ymdrwlWSRSWMpKGvz9C/4BWI41ZAZZXVxkYVnjrNyfh71HqPKoFdE+IuyxJkqQsMUUC4NsJknIHS7Xazr4JcXwGbQ6SDVDGF1O+IcdYGbERMhQVTB1J6FNMaaV4dNmh1taviMhOClijnr46QWCuv8sWuqpkO0QFQis491XxCRWSNPNJpcdKpNL4or1mPSEC5tKYSaHV/9/TC+Btf6SOunMf5jRt/R+t1Y9P3qV76KWw5fz9LieYarK2xZLLFS0EeilpR8sdlkF7MHVntFRFr98lHy3bvofst+sk4XydpQwOnnznDu5Bn27d3DwpnjWBEyqwxXV+k9vUrpPDfc9Qqm9mxhaEpyHxm0WFBrY+eyPCNohqQ0OHzA5QZrHZm1OGtTJhVABLWrcd+tmLFq1zglamMMRSW502w0VG2AyijGxUppkTx+11qyULvaQpw4KzQraLOnmRaFl7hIbW7T6nzxglov0xVSbcU1Pun6dypkrC06hU4VCFYoUstbI4Y8S42bCAiaeqSTLIpkrl5C8IvIBi35YhQrYNZm70Tdbv2FLCKxiY7xLYwdUg5LlpYWWOovxnT3yiJVH4LHitLOYstd0/e4rCKzBcYYiqFnsvTYPMdqEhx7DuOqfspqMohx0d0aorsKmyD6FRrsINULZvqsnwO9GLzIBWj0nXUelbFzGxOfFkFxYvCZIMGOeho152JMuFwoJfnSdImYgk8YOWnVBCKk8qbNVy5E46Me0zibT+PIg0Zcn0Y41IsfGu2h0ZqRZL1Er+aXH/8an9m1gz2Tk6yeOourAmaxz0RhqaYyaBmCgVaWYXZ2aGcdTD7N1JEDuKxFK+a1MnfyJMuLyzzxyKMM+wPOnD3D0rl5dm3fzrHjz/DYY4+xtDTPu950P7t2X0NQ8IVStBImkCpZq4PYDEwqeE+hlwi9IYiBIAFPhOKoLSap701rk19S+8B43yoJsKsuipGI+CKiqVumiZaHKtZa1AjtQdR7Kl/hxr+fsPkbCsTFlBBSJb2FW4vbv2G9f53cKd9wGtdYvumspc0HowIDR5QVqqjGboDW5IgpMaHGJ07wNDLKcLlQBLnRbmUtYOWFqMYgq3d1VHQ217DX/FWwwaF4fDCs9jxD79AiQCVIpaiP/RzKSnE2Zu/lmWCtoZXFGxdZpR08VAWmv0LLCG52K6zMkU3PxgicybDG4L2McMCUCJdRU9hY17Dp/Y8F+S8J+yLEvU2dJryWp65Jm9UkFBRMpWTGYSQbK6i7wBq4+AguSJewFGobRGJgY5Peq5cmucDr2qtXS8lU29AAfOjoveartclVF5J7fPA89OhXOTy7jbsP30x7pR9dNIUHUdx0OxaL5Tlt24q9XTuTdHZew/Y7b8a3WqyeW+Dc4iJnzp9ndTBkfuE8p8+d5c/+4jMce/ppiuEQS8zy2TYzzee/9CB33Xwz05Md8pZFrKHT6TI1PcXi2XNMTE/RnZxk1Ns38eIk1yx1IVrcLupSbCHFVExjQjU2fwxgpbkZrw72kiDNXS24A6RgtXQycm+whcQQQlZCK2FNbepvGM2zANobbHzSL4bJ+M1MRQBn6sjsN5lAuAQpaNDY3FBBjGCdYI3DYpBQIRJqNSt29LsgfMLINSJmBPF+KRJjGthqk4REjbFVn3dc6oZ63K0MnKe9ZQv5lq2UTyihUkIVoPLYEAh4iqoitxEUstLocqoqKErPYOjoFiV57ui0M8rTJyD7Cm7qGuxhRz7TIbexK6CxARGPksY55p/bVPht6j66AqHQnCY22FqPChDGjogczzQxBbUWm3C+tWYRV3FdXtp9ZKJmqcYxym54/rCsI4pMXwlYF7F6ggpGtcFfF4WQmvCgFiWW8MfKwUDsgepRq3R0im3sZth+DqYnYVgy6K0yYzq0OxOYdo7DxfRNq0zljtlSac9McnLpDH/76D/w0BOPcOzcWU4tnOf4uTO0ybBaYbM43KAVy9UiT548St8vM9np0O12mJ2coNNqsW1qFoyj2+ow052k63KMs7RbbfIso0sGuYsojt2ckMVm4JpZvLONJiVBER+wPhWcGYk1AhaMD9ElldafDYpmDirFiyErA+oi7PawKDAh4MoQsw9FUGuQ0o8YXLOY0uoyIzx7meqyJuXopcQQrwYpXHG07puERCH3QrDCMGX+GCPYXJBgyKzBYOI+SkkksWNXvcdp8usBRlg7mpaKGU8uWkMjVFBpvqnqx/zy40w3uayIlrEnureoDEUF3rWZuPYg8uh2BmfOQRl7BZjkKrESkyxs8NigOBGcUVouxu9UFe8rBKGan4t90Lc+hZ1qk7WncdMzQGz+ZW3UviPu2kghlQul+W7iPqrjck0P6LE73mwdSVgLN1JbIOMO2wjIF632jhFMBvnQohgqMSSD8KrRxYWCidVz0Q/tCMakTKErvUy66WZmRmaPEeWR/+H/RLGUqgRfosHHRB4rOJM3R4cGIzwuKkmRIJ8Wh7WC3vpWNHUhE+pCsfoMcfEFhco6KBV/+jx7g+N9N9/Ne294FVkZawkESQ3IRiiNTZpf3VM2iei4ZlK9pFisxD7PUftShiEQiniEGRa0FMz8AOtH2gjWENoWCaAhYArfeOwwIyTNqp1ha9dPUAgp5TQoaiwhzzCFT71zfapwJdZnWIP4Or9jbCprzajWBJXoOuq2Rn7f8Wd+IW7wXyqN3/tL6La1xuz0gcoIGCUXg29J0yfcBpPchgEJEV4iwnmPdz2LVrIxllHHssTwk9s0NFDRknoQSGMdSG2B1HhYqSmMqqJBMMaRZRnGWkoxlKVnub/M4rl5Fs8sYHbson39HcwvP4SvziDEZIkAZKq4xAusxkCsoPjgURWKsqIohGpY0u60yYKjeuqrVNMtSjeNmAmmZrox3CsWa1Nhp1E0xDoOqWBD5zRIAnRE453ckGpTa8GYddaEF0KIgKI6JjnWWwqxwZgQnGDcAOPivGZemqZH4coZ86Z0caEgRLE12UVaLbTfS0O+SipjQmeMzWMMOYLBJmySyNTHd6HK2oBnDcswsp9ig3t1pk4OQ9bvaK3Nw2haG439zQyCMRaXmUaPiXM8VuAjY9oSo2uu4bApWGeRFHsRsmBiVlXtMjXJc18rCbWLqKhzyyNO0RpNJCh4xRWDMcUijsPW2rx4bN83my+Y0NR4xJDBRZ5b7Uuu/crWwmR7rbrY3OZLiDO+EBp32Y7rMi8lqteKpviT84jLMRpreZypM2ssojVEtKRiq1Gw0oxp85qwg+qqa5FYeY3Ux8toaxiTLIWRMiI27ocQAmJtY4X4yjOoSlZ6PYbDEpvleGNZHVZUxqGdNlXPIs4hviSkeF1s2y5jtRij/WkIBK+o9wSFtu1THjsJe85RulMsVxm79+1gaqaLy6InwToX96DVdA+BOj11NK210239ZI9eSVK2RuCQMaFklHkUYyBa12bU/BZZB8URiw1VAe8JleJDIGYa2nFWcFXoMoSCg60zyOw0YWExagx6pSZ1vaPC2re01vAVTArmKEBFKsFkLYrqOiOpXmVh7SFxXQpGZYT3s268WUi5/6QUriQw6ibbI6F9MVdZuq/xBxI0jn/smKarbD2IOrA7bltqZPoXndd6wzVu2HEhlUzesYIbQddZdXFxb7hEArirBRoiMNGG6W6sgK4fQT3fa0yNfwT0Ur9XAfGx3sirpxwOcRqQ4MltXJ8hAiwRgowx+xi/WpuRXuf8keDeoxvJh9TXI8TPDBJTrSVuUCVawE3/Der6I5My9GA4LBlUUbHrTk6xHGBxpc/Z833OL/Tp2wzfaUN/iASPiMEnbV41CQVVMgGP4EOI7qUQUF+hYghmFVk+SzgzR3vbkOHceYZ+lZltXdqtWVyWx46I6iMvUMV4ZX0ns82EgqpHNXkppO4OJ817uk4pMxpdU1H46pilsFYohNTPQRRaldCTGZaGOViPN9nV8eaP0UV7NCs137HIwd3Ic6egLAhcOBx1Mdrwrebf1BFJkqj3OmKAl0PrDjPxYmsUegnrjht7XQuHFyxum6/L5v+vP/YCb1+Qxo/Xda8bqTeqNN9gTfp0cJ12V39em7Qp+0i7beTA7pTCGkDc6Ppj7uCX6SVAyfATU9DvDektVhT0oSpxAn64SlWWsfd3AMGBGLIsw7n43CMzNzjnEtSK4quK/mAwarTUSI2QEuQExK55f/Q6Kh4+eMoykGc5xjrarS5TM9uYnJ4hqHDsmeOcnDvHmZUVzvYGrJaKcRmZzcFrFEqhjIB5pDpLMVQoPiheoC3KEKUKih96KuORUNJfXKYVBnQ0sLSyTG+4gOE8rXaHLMtjqEMDaMDoIMZd6n0lySNQ+01qpp6yvOKE64a9ElPG40MRUvKIxj7L9dSMqaTNtk7NeBGElld6mjMAxPqrwrbW0yUDzU1cfN927JFrqR5+ZlxtuCLaqKGue7fxX1/h+Zs6/XXnTmbzhkm7SlGZNVWH49fd8OblU+2uHbmv1l6v8ZQ1L7iCRZE4xPryfZEUOopF93bHDOzfAXlrradszbX/kdBLWAgm2zEpW4FhETg/V2LaKxj1ZNagZUGZhELdsCm6NYTgpWkKLwIhVHg/aiDf768ShYBJNTYjs70OMmuos5Q0McXoqkKEqop+fzLBGsvMzCyT01MAHD32NCdPnWTu7BxzZ+ZYLYYMKo8tApVYrM1wIY4Tk7wKQROGKJTEt6wAQbDiY+KGJ8YsV1bRxWUw02QKbWsQAt57nBuDp07xlaaLYbqboL7BZatjMNYKGkwKOCdGP8YYYtwlZh0CY320a4tCsesqxrV2KSWrzUrAhiFGc5BRq9IRJYHyAly8FxUK9aKygBgH1+/HzPcIJ+ee39VSStqIgW+mKo/7KK7gvGvOkf4GEgMcO1cSCJdTfCMXOnAT3mrq21IdJS483+dyke+ul6NXdIkGfmSjJRNNawgzk7j9O2GiS63RvVBB95Knl9I969qXcQ8HgloqH1iY91TmFJk1TE9O0rIBY2I8TYMhhAjdvbKywupqnxACW7bMYE3G8soK/X6fdjuj0+nE4HCKSfhkMaCkdOtUBaHQiIW6EDZlMcZjDNZmTExMMjERUU7Pz5/jmWee5vjx55g7d47F5WX6gwFVCBG91xvyGicMJWiFLUrUCEE9VfRVxXsPwoSJKL+VQq+oMDZgNODnF/FuignJMcaSWYvYaN1kWUxzrXuYGKmFwqjAFIjWdaPLJsDJGoHBjGBqQqjW6K5CCtKL4kwKIoeRJQFj/EVNTABQRYLHMkQ09pSX9a6jBgbo+WsyFxYKOgLQqm+DyUnMK69nYdoydVSwGiJ4XULcVNUE3RDHVktCwYMONmqdF6KmOc/GMW06VNE1HpToq2Mk2c06LjoW9L0kjZVKNN8nelQ2DfaP893LeS4XGEfTOvn5nKPm+ePfF6h72eLH8FYUKIV+J0e3z1C+8hD5tl2xc169EWQUaBtN60uJU14F2qiSfXNSGmPMWgvJJVihYjGtJdqd05T9VmLmcQ2M8Ik01TYqg0HJE088Tq/X4/Y7bmPL7Baee+5Zjh07xpHrr+PafXvTtSLjSwZFCrACVJHpK5g6QcRAUcRGU9ZlqGoDgFeXtc0vznPs+LMcf/ZZzp49w+LSPKvVKn2tKEQJ1tGiRaZCroZO1scFRUPstig+1VwQ00w8iqhDK0ufjMxmPGeUvcbTLuaYWBYys4OWn6LqeqzxGCcMq5JOp5UEV93b3IzWfSpGRRPfG+tgnvLIUQJBY9q5s2OstqmWBlEbA+4iuDGEg7Wk8RkCSEYugUEwlNZiU7Q9yNoF2lRmPw+6MuhsY2B2C1uvvwFMm3DsdESNsyH5HUM0BxNDrF0gTQu5F4kksCaFrrmWWfPfGOkaN82G842/acb87+OnulBwZ7zV3wu86cvOMLvgdeyoQVEyo8Wn4qFULyjWot0WZucU7ZsPwJZtgIn3vcYCe4n6UF4IyQVev5RIk7tGDYQWeatNO4vpltbWG6B2dZjGMDQGJia7tFo5rVaLEALdbpsdO7czMdHFulSJGzdfRPuFtKei9jx6KyphGqAsS7yP8JrWuVh0VpX0ej3anQ4L8wucOX2ac2dPs7y4yKC/SlmWFL6i8AGCYHCINWQ2fl8KSzAOGfapTMCEgAmCiuBwDFPqtrUZVQlMdwjiKIoK1x+wmvcwYum0stiPIQjGGoIPeNXYjdDFgtD1Xok6LX5swhstXRizKNabcGMasjGj/2tlcC1F19xIdsdrBtGxTm9Xb4FemVCIdwnbpqF7PWb7Vnj0GfT8MjLRRipP8JtxS0GrK2BysNElVL8l49OZzGOb0FVSlV+C7kFUo7JUhxWEsT4C6RzrL7NufjWL/s/1Yw9JC5exrylgKv/1cbeMzYOwcW6VkWXbtDINxNxql2EyG03dqQnk8G7au2ZhqgOVGZuD8bt7mV6aJMSS5sg7vC/J8jyWIBFiol+CmNEEaWMwdLodDl93KPUTdxgj7N9/LTt2bE/+9ASJkjRbMbXGnK5qYqewGMCOWUneK0VR4D10rCNzGT4ovV6Pfn9AWZU8d+IUTz/1FPPn5lha6dFbWabf7zMsCnzwGAzeGEyrRd5u0c3B+kn8yjJegWIQy3eaQHAEvbOZY2gsIobW1BSVQrk6wIdlwOCDYtotXGYjWnHeRoNnUFRMT09jjW2yUmvNPp69bpiq4zO+SY3ChVwfybU2Llw23W5m9FdtcimNstpfmL96LV15O87aLdJpwcE9cGgPcnohImoOCkxZgPcjbiQCvoKqd/nulAgHCCFqtUEiFtZqLpRWWXWBngQoPV6UwkSuHyS2hzZ+ZJm0iwpXxUwEUQgWSheB5IANYwoyhh4t0G+51I9gNO2SXGu1tTCO/tEaVk1RWi2I6sc9HoO4EI1cbqPhrYkLp79WieMyQq4OySxOLDMDaAUh85DhmmJDMYKaLBbJWUNoZZhuGyYnoJOPUk9t9ElSFxutiSlcEkH/6pCMrMyX6QVQTKEBiTWx3pcsLc+zoD7i/oTAZLtDu52nLMM6i0hYWe4xGA6jBR5CXGd5njwAnrLs0+l2mJjoxAykEBCxDUMUbEpXjcWgvd6Ac+fP02l3cTZjaXmJldVVBv2CwWCIST2ZlxYWWV1aYqU3YGV5hXJY4MsqXiPFvUpj8a0ORZ5jJ9scPLCPmakux778dzz3+BNUgwHWOlwIVERXileL2ha4NtpuswqEokRthV3tY02G2HlUA9MzM4jAZLdDd6JLZ2IC7z2Dfp+qqmKb1LqGIzEE1YDUTW9qN8nlPqbLOnjk2lB80vhenA3y/Hs0x7SGONads/E9hdgnsJZ4Y/UMDae9BClQVc0/wSjeQJXCDAsMOM0qCxQMqpJCPT3nyUolSFR0M59guI2QecUEjb0aAgxzYdCK1wlGcAG8EayCq5SBiwKoWwaKLGrNJkBeBvJqdFulkybc4JIQKJ1QZdLENAzx3JLOXdiawcfjg4DzEc9k1RnaPuCCUGTSWCEmXaQac2cqYEPMI88QJrzBZBkTtNjPBHvokCNUKCZVlzoPkrI+TG3X1+1A11g2tTlWP8OXOfNLjrTWkTUWqWlMBldf0e8tszLoY4LSznKsKlnmyBKAo6pSVSXn58+xuLScgq21K1GpC05brZyZMIOzFutsxBszEb5dkzZtxBC8Mj+/wMpKj89+5rPs3buP2269nfPzC/QHQ8oqUJYlghCCZ2Wlx7nz5+ivruKLAepLnBEqkxAGXEbWynEtR2eqy6Fbrue2225lx64d7Lp2N+4zD3D0K1+jLKpY1KbEzKHMxlTryUnEdRgGg/XCYDgEFZzNsNaRZ45Oq4V2WkxO/P/svXecZddV5/vd4ZxzY4XuCp2TWlK3sizLOODIE8Y4PMDGxmOwxwQx88jJJjywDWYAg9/DD/AjDsFvBjwGz8PYJjqBkYRlI8lRarWt0LmruuKN55y99/yx9zn3VnVVdyu01LJr9aeqq+qmE/bea+21fuv328zWLVtASbrdLlhL1wmyLPVFYdyAps0FRjbngpN4vOeNn5POWZyJyv3JxbBH7xRWp5uLHoP13vKRHH88wMUrfNGoYzucyTocy1uc0D0y6f2McgKVC1Ilyp2Cl7oUuCBEYaUgFYKtZ1JaFUm1Y7CBnU4IwUKikQIaAS/cFYKxXgpO0IsFmRIYITHKlQ6krwUqtyxpyfblnF7kjyHOBv4v15IOEi0cOqCSBA5tLEnm6CZeWEjl0NeaTZ2UXAv6kSYL517HBb73QerQ4XOy2ghUDqcqDlyKtiln+m3OmAoH6hNUZUJc5DSL2+IAoQYJ3+JeDu8+H+cc5VPenoKXwgcVIU+NH+eRihjZNMGY8rtpm+fEYTOvlCTL8xI2Ojk5ycjYuH99mcr1UrbaNyIghSDLc3JjkEIglf9Max3WOKzN6PX7nDlzhu3bdzA2NkYUaebm51lcWqbd7tDp9sjSDGN96rnX67G4vEyn0yXr97AmR0pBksQYa4mTCtV6nZFmncv37+O6p13H1m1bMHnG7quuQiYxqlblgS/cT9bpgZJktYrfDScxOklwQpLlBmMzcus7nrGglEJrRa1SobJlkkqS8OCDD7J9506qlSp5bmh3erTbHaSSaCXRgSus2By4oZ8vxC7YeZSQXzw/U5Ejvwj26J3CsImhEPaxTqChvImzsCT63McyR+gwE/WwkedsMWLw1NXSd5kqHIajrzQCSeQsZ0b86fZiSS4Gn5WgcUA7zrFYqihmKyo07/g2/cz5jkivVaCRzpLajDqaM1V/DaSU9IYOxQFxoLZqxwbwuGwhI9LI86BkeY6VjiYRczWPANdoCsKBXFmcDORaogxKMDgy5ehGK897rmaZdy3upcN2RthHg700KHOSxXnLAoEk/O7uKbjwbdi5rUxzGjyli1JolZDLDOEsWmmUwHcGG1tCKIXwtC8VHeE7mgM/j2eiRMvA0ulzRZ4vKJhzwXFIjbVw6qGHmZmZJYoStm3bzszMDLfd8a/s23cZp2dOkaUGYwx57nsg+mlKt9PFmAyL9RloJZBCo5XXy6k1JNded4DrrrmO0WaDLM/BeZ3zPVddRVSvI5tjPPTlr9BtdxFJhVx7Mk0ygZAWK0FpAU74Lm+Z+YJ2lhLHMVJK7rj9Dh56+CFe+vKXsW/vfrIsZ25ujk6nSxRpkiQhQXvtbAL/WLlwX+BNciHldN4XFLQ9cog2w16EHcnj5RSGbXXy+9GY8EIvx+hwj5vjhOtg8XUBGKBEi5z9Wg5T4getwberO+tQ1ga+o5C+UYEHSVgymyHDJABHFEV+Swxls4lSES7PSbs9rPLY7DTtgjE466iMNJA4cmN8cQ2H0QqptRcizwFncMagbfj8SCOBtN9FhJ/7eR8nBJEDwgQtJuB6iKnV1sdyynVZJGVW9LmazYwFVhhHKVlUXq3V13/DvgrMSZzwLKioNv2+pdsbxVZO+JQqArDeIQiBRWACJ5E1FmttGRghvCCPdAwoG4SnpMhNVja5+cKuwNic1nKb2bl5lpdbHDlyhGazwZEjD3HP5z+LVJJatUan2y6L0SZ39LMMi0FpT87nTEi3OqjVKoyOjHDwysu5/rprGR1pEKk4IJ8ExkHed2zZeRk3Pq9OTyXc96X7PBxXRSHQ9ChJ5QoknkXhSPOcTqvFxPgmNILb/+U2Pv+FL7Bp82ZmT59h0/gUx46eYHHRp9SyNC8b1grIbZF+g0eWdXVnw43WeaL/5tQ8zlVwphYeGIpwHwd7/J1CYWtdlHMd99DzcywP0+Iut8CM65xViCmcwbqfs+pDFZos7/KB3/kT/v6P/xxZSXDtDhWVcOtvvo2HPvnvnP7KEb7tXT9HbWwEZx2tMyfJfmQAACAASURBVAv81rfcyre87Uc58L89B4Eg7XT57z/+dhrjoxx48XP54+/8CQQONdZkx9WX86pffTOVSsyHf+XdfOkfb6Ob9bni+V/Hq3/9Z6huGuPhuz7L+9/0axz9/CGoxTz/ja/mZT/+fdz3L5/ig//XH/B//Ld38d5feCdf+Ogn0UnMqEi4+Ttexi0/8b2oOBpugTynFf0JxjlSLA+4ZSoy4ibGcAwo/tQFXb8Neyqb7072Kl3LS7PMzH2JXHYRuQFr0UEwS8jAtyMKJTYffYiCCK9wClKi8FxZSnnosgvKflJ6YksRMDnLiy3m5uZJ+/2AOsqZnp4ivi/mgQe+wv7LLgccaZaSZxkFtl9IL0BVwKm18polIyNN9uzezWWX7SeONN1Oh67t+OMXEh1phBB0uin1eoOrr7+eXmY4dvQkqc0pB3vIvDi8kyjSZs5VydKUT3ziE1xz9dW8+BtfjHWWzZsmePDBh5ifnyfSUVkz6XZ73llKVXIceVTWOWoKJRle8XPIApzLi4hCTjXU+pwK9+bxm7zDS/PFcwpr2LlOoaxjAafp8Bl3hlm6K4ih1mkuhjBIV37W4NMy+uR5RrrYoqZjXvqjtzK5eQKXG7ZfcyVf+puP01tuEcUxkfXp9lgp2jNzpMttdIhCVBTTnpmj0WigqxXi3PH8n72VSlLh7377T/jo77yH61/2Iv71r/6OV/+XNyOyjH/5k7/k0D/expaD+/mj17+Jid3beO1vvoXFYyf5u999D82xMaZ3bqez1ML1c2w/Z8vl+3nh97yGhfse5hO//aeMb93Ks97wreRCXCBSITgG48iFxeA4ZOfZJBP2UgUGskayQHtt2Nn2VXFZCo2OBr1+h+X2EVITI60njxMYPFVFyFNT4OHFirLTsMkiYmWQ1kQQJGV9+kigMKmh1/MOwZmcTqeNEI7L9u/n2LGjZHlKv9+lUqnSznOc86y+UnvUknAglUBFmkq9wsSmzVQqFU6cOM6J48d8QIYqm1M9vbzf9ebGIERMc2Sc+miX/uyZodSCZ2nNjAkgHkdSSbDWcM89n+XY0SPkec4zn/0sdu/ew6FD9+OUJEkqKOXztXme0ev2aLdbzKuFocvthhb81XeCkhKjOFYphsSLVv1f3gsxkOYVTiDyaXqxwcYtFOOUyIJHOY+LmkixtDyhTuGcFg5omYy73TwzdAcNZgWs8pzroR8MLnQLGvzgdfjXVZMKzkA23+b0F7+M3byAsI4d117pgyJjA+7Xe6fi8mqhkLlFWDC91OdWrWX/oqTdjNjxzOsYrTWovuevyHo9qhMj1MbqvP8Xfp2bXvNSXvvbb2HrVZdx53s/xOKx47z2HW/ixpffQmt2jvv/5U4+98GPMfH9/wFtQRlQFiamJrnpm15I93ldvvj3/8wdf/ZXPOcN3/aIazYybJeVFCyJnNvdaRKxjQmi0o2G+b+mbUBCvzrMk3MqlKoR6VGksigIVNMOG6jqDQVbKuBEqe5VagC4AsQBRVhhCpyT9UhB57wWtMlhuT1Lt9MhSzOP2HEWJDRHRlGnZ7jjU3cyNTXFxMQkKoqCGA5Bt8FPXukE1UqVTZs2MT4+BsLS7rQQ1j/mnARhfIarYC5wYJxAEBPpmC0TE+T9lFarhcOANQgkSiq6/Q4jIyP0+ynLcwvMnZlH6ph9l13OcrvL3Z/9PAJJc3yUJKkG7QeFVIpWu8PywiLLrWV6vS6F0qIIUPGzLOwIyqZoQg2Gsx1EuZ65Yc6oUGTm8ySb9rLp4CuCUKV/zOu5FCglt5ZfuiC7JJxCAV6yznE38zxEu4yHH43zK5ye3wE7jHO4fkY1ScgXWjx0x90s1pvUxppc+4pvwBiDzTKfVxX4yCPcYB3pkD/1HDIKgTGGWdknf/g0/+3bfhgzPUKtVuPZ3/WtTO7dwcvf9qPc+d4P8YV/+iR3/Nn7edXbfxJpfTFpZHoC6yxJs8bE7u0cvv0ujLMoi4ezhs+N61WsVsTNOqfv+woQJoHHd6xMoa04+UEvQSYCY2rwrov0uYNTPJNJtpCUPmZj7f8qsuGbWdSfhC9RCglRVEOLHOmsJ6hwgZQOFwLuIr0xRHATYMq+aUsiQ0u8CFrjhUaACJQXxljarS7WQa+f0ut1scbXNqw1pGnGxOYJROigPn78OLt37UYpTZqlg8jYWarVGlPT04xvHkcpiQp8R0WQ6BnnDYXGQ3EJFJJIxggEkQLjpjlx3NBqLQdwndcyHxsdxeE4MztDa2GJOIrZsXMHs3Nn0EuLRHFCozFCmmWkaUYSVwNKSdNsNui1FtFKUakk5fsWard2VUrIDdPlF8iwgjrbWPJhttVAs10s+FJ4aLADjDDIrI+0QcxLDN4PinY6ccH1x+HxApeIUyj83CwdDjEHQCH3XaSFVjuHtTp4/QsGqSS/W3Co3MfEWavL9MH9fPsf/BLTU9MoIUkqFbJOnyLayaxBON/z4JxD6Yi03UVXE1AEfhLL4XHL9Mgo//vv/SKbdkxTGxtlfOsUd33iNu7+4Ef5jj/+FdJDR/nT7/85/u1P/ycv/YnvQyUxd33gn9h61X5yY7j/tk+z88ZrSYVDZ5ZO5DnqlVK0F5fp9/u0lpbYcePVnqnR+LxtLgpBjrWuy0BOs6/zob/7555kiS8j2cK2s3zK4wEe27An2Ya8vBM5TvpisCVHxwmqMYVSbYTJPNe0zXHO+OBJO4RQSCG92FVg7oQQoVofjAjrnQLSYguGVGdRMkFKzfz8PMvtFg6JihLybpc0y3wfa5bh+ilRFDE1OcXCwiKzrTnmFxbYu+cylpaWyHOf/9c6YvOmzUxPTaKTGOEIO5wBcyt4xlJrDaVGbWi409Jrocda0xzZSiVWPPiVr9Dp9HHOIBQ06lXm5ubpdlps37WTJIqp12q0Oy20jmkqRWZysszvdnKTAzFxHNOsN1hOEnpRTKQUBq8b7fB0PyZcrzJrVSR//UVEOIc2SXie8H1DBLogY8veUc/Sqv0OzBlAoWSENJKsxAFYz1rgRNgZXjgoZTVg5wl1CudKR/SF5WNilh4WZQXaCfJ1KK4vNK1RZuYcaK2JqjHzX36YD/7Ir1Gv1YmiiOte/kKiSpWTX3qAP7/1FzCRdxSv/NWfwgrBB97xezSmNqHqVa6+5etxcQRCMtqxtJsxE5fvZvtle/wHOcfU9q3M3n0/v/+81zO5bxeLx2e44Vu/kV3PehrTe/fwid/9Cw79y2d4+O4v0hgb5eb/8HLasz4nWUFhBRz62O386Xe/mdPHTjDz4FG+549+jTzP0UqFdJjkLHpEt7L2fpZ+bPjdAF+mzXXkNAMUV2x4g69ecwQkkSZO6l6LIHfgslBTyEKh2JHjnYIQEoGHX1vrsWpFmoNQc/OqX/6xArYaV3x38/GTs7S7fbKsjwmw0l6a46wpmYSNzXBCsWPXbiamphkZHQWgOTJCnmXoSDI+Ps74+DiNRgOwpXYD+B4JJVVAQ+U4OyRsJcA5hcktUqmgpAZ7dm4jjjSHDx+i3epgrWVuYYF2r4OOY9I8p95scPTUSarVKiMjo0R5BZn2qeRV0jTz9RHXQApJrVZh8/goJuvT76fkzgSWVuvRhqGI76TAIQNpnQvXHYT1cF5hrVfJFiCF9tc8GqIgdwJnvbNW1pGqLlGlRiJjUgxFbsAJWzpGL5v66IbME+MULiBHcZoeJ+n5ZrUi1B3ydOuf31qPDJZHD+cUICVXPOtGsm6XPM19HwOSxpYJLnvBzYhEeby0ktTHRhBK8ew3vJL+4iII4YtSwnHwJc+lOlJjbNsUz/7uVxLVKxhnyuLSxJ7tvPa3f4Ev3/YZlk/Ncc03P4+bX/MyKvUaP/Sh3+ff/vvfcPrLD7H7Gddw1Tc9l91fdy2zhx/ipte/Al2JOHDLs2lOjoGDbTcd4MALnsn47q2gwDovb+QkgyjOrb4K577QAuiQcYhFns7mwQNDTmXDQXwVWGBARRTFTdBaEcsIJ/1uWAkX0hcG5xxaFXTWPhXkAtpFCDlgOnVeL9gJT5Ette8ElkISJTFZlvHww0fp9XosLy9iTE6316HfT0unIKUfu2mWYY1h06ZNZGmKVB7XNDY2ypatU0xNTKK1l8g0NmcgRuPrFrLMnw9QP1AspF5oZzgN4xDs3rkLIeDYsWMsLy3z8JGjJHHM1NQUUVSh0+kQRRrnvLZCmqYo1afd6ZAkFWq1OnmeYW1MvVZhcnKaLMtZXFjAuNynyJxXoSuAMxYw4XoWfKGiQHflQZ1CqJBuCjmxkGpyuCDFKVHCa6xnCuKoEggJQqooZAIGJerHMnRWJ74uhp3HKVjgNnGaf2cOuQpFVBRDh09ysFMYPDKcYx8U0i3K4aF3SCIV4fAktOsr2AUJwvJfkNgTw4+K0jsLCH0PxSdSPtdleaDMdeV5eDibwTpHFCcMOBVZ8Z7lOYXvyoEWsR9kzmGFCVvR9fFI7iyy9YGNU+M72B3Un9Z92pNmF0wb/jVpg61dB8ehI4777ze0ZeSbMh0oLBWTY4QlU5LISBKOUhUPIE2GwKKERQZFNGMMTqsSglry8jtfaNYqCukMhSYCqRFCEVUSlAyK6M6wvLzMvfd+ic9+7i5Onz5Jr98jy/rkmU+fFJ3PcggpFEURjXqdyclJRpsj7Ni5g8nJcSpx7KkyrPWLLGGOhHMUJS2yCLn4Qts90Pc7MMaWNUEvD6rpZz2OHz/Ogw8+yPETJ5BC0Bxp0m71SNO+d5BaU681qDcaJHGNRqNOs9lkfHwz42PjNJsNxkZHaFQi5ufOMHPqJMalCGu8frJL/WY+HGPupCejlAIjdahRgjPOy20Kz2jsQo8IYqBP4ZeXQFFuHR0pSOo7Gd96C0sYlPQ8ZUZasBJnoWHgpuslO6ehus48Wi8l/8TsFM4zubsi5yQ9YJD7diuWSxiQtDHIHQ6ZCFWn0hMz0NiRoVOzn/f9dNIqNMC5QUHNDcntrViW/U5DMrxoD/63WNKhIlcRAUgEQiufz7UepuccHpUgHFWZ0Ld9r8YkC+WlIn+oGFaytdYXoWyI4IQUq67BEF33BdoyOSfosp3a+Z+8YU9R82khJy3WDvLwUgsUvulKOhUKxQobKV9LCDPIR6i+iKyE9qkYpdGqgtYJOkoC+6khTfu028ssLM6T9vpIBGmvR5b2SfMUF9hYlVIoJ3FSefGuUKAWQlGtVtmzdzd7du+in6ZEAcXjdwHhuITwzsAN9QKUjAqm/JsNVC067LB9j4XCWpBRjV27dpFUKugoYnZmhqWlZfKs2HFQvodPn/nZmGU5nU6XJE48zUUUkUQRjZExz+LaXfDP7bYwmUUJn0FQQvkwUwpypciUpCcVGQppM4yTWFlInzqfEQj6waIgpgy1QmktWsTYSNB3PZCxTxU9jnCRS6LQvExOBw9HG4hMFCe5+v9iyR9eFANj4GrP54cbqugK9qD8EEVYcucbZfzvnjlSOlFge8pj8VvP4GhCa7mWOihahbwhgwFa3CJrHVrI8gbbgGE21rfZu5BbxDovm+wc0gpQijxLUVEUdgZeccqaHCElSujSXw3vkB6JZRhm6W84ha9iy6XftdrAkiqFh6EqJVAoFF4opugvMMqniaSQnlXbWYz1spNSKZK4gtYR1WqDWr1JozlCv9tlbm6exYU5HzHPznDqxEkW5xfAQdrrk+XpUNeuRcjIL5ZKMTIyQpIkjI+Pc8ONNzKxaQznoJIkQ3yNAx1oHzQVqVPnC+CuKO7KcvdQLiOBC62YJEpIlBAkUYSbnKTX7XJmdpZOpwPOOw4pRVm/MLlnaM3znCxL6fU6dHueVVYISJSmVqvQaI7QM11cZwndmkX1Fqk6Q0VALCROSjIV0UoatOIaSlaxwpJrrwVhQvrIq7T5NcO6AFG1fscgpfRFfjS5BuO6CCrldQ2dR+H3R+8kVjqFJ6ngmGLJfKll6EBW/zz8N0HBEe9/XfsC+AKYnxQ2N3RbLRqjTawx9LPUR0BJBNZhjS054MuEmijK/wpjc+9EECipEU5iXY41BiEVOO8glJAhD+hwxuBUTG4zXxRT2kf4IRoQ1nkKjJC/DEEJqbGoWPtJYCWRiAEJ2iCFL+xZa6DYYTzK695+FDuMDXvqmBHeKRQ661JYtMTLOA7h4IukqBQeu1/Gnc7gjFfdi+OYSqUKCGq1GqOjIzSaEQt5Tpb2mZ+bY35+juWlJebn5liYn/O1A+vI0wykDn0PjjjSJJWYer3O6OgIu3bt4uDBg2zduh1ncnrdLjrSyJW992WOfcV0d9LX2Vwezqf4tpZ55yCE8mCRMcVuuYder0f3nntot7uhPiFLPqZ+qCmoINMJEMURDodSkuW4gsNSq8ZU44T85GmqJ+4jljCCpSYsFe01m7tSofsNoqgJI9tJ4zo6TrAqIpfKw3Zd6CuRRYrbOzrf/yGwuUHZOkqN0x7iQRKrU8WPIff65O4UQqSbY8mcHdopQJE6EcMydxRFsKITs3gbRyFh7eszAxiryywySrjjrz/En/3U2/mx9/wWn/rLD3Hn+/6W7/qjX+HgLc/nb37il5FCMP/AMU4+8BBLJ2eRWlOfGONFP/QGjt99L597/z/QnBzHZjlSSF733t/k797yLh667S5qYyOY3DB9YC/f/Js/w/HPHuL/e+2PM7Z9mlxCbXyEV/zij3Hwlufz0d/8Qz7yy7/Lq979Fm74lm9EGsWpQw/xvl94J1/51D1IITj44ufyxt95O5/7yL/yZ7f+LLXxEaSDXMDN3/piXvPzP4pQIkgOPjo1VoejTfpkxAAb9gSZQ/mIs8iuhCItUFQ7wbiy6UqhQh7cK5zZ3JD2+9RrTZr1BlpHmNxis5xep4VwFRaXznD02IOcnjkeVNUysjwlzTKcNURRhLUxvSwFI9BaEcUxI80RprdMsXfvXvbs2cPExATGZAjnabk9D7AMhW5RNn35Gh5DdUoXIJiCAbncqguxCoYjAupOohgdHeG6665DSMHnP/dF2u22341ISZZlgN/RRFHk0VhxTK/b9XQfUhJJBS5HySaj9Tr5yBixcFSEQI9vwymFy9q4tIXuztNsn0GriKQ7y8LE5fT1FqwS9BxY4TUjHDL8L8rjl847cCtBYpDSsCz7j++ACbbSKTxJK4SnwDq7KLrycBySDGwBmfOHXrTkK8AJv5X0g8NvpHLnMc95vwezi2ghEamlf/wMd/zh+9jzgqeTtj3r4Te87Qdpz8zz1z/5q9RGG7zyHT/D6LZJjn76s0xdexkv/NnvRzqoVmuM75omtzn7XnAzt7zxNZz4ykN88Jd+i7v/7P9n84G9SBzP+Yk3sOP6A8RxzLYr9uJMj9v/5H100y4fePtv8axXvxRrHe976zvpLi7yvf/vL9GaXeD97/oDvvjPt2PyFNtu86q//L8ZMQoyy+jUhEeOBASHYxAUPJJGPwGkOE/f8Yjv2IY9+VasjOugOJzAy6H5nx0SpK9xEZqgYFADYyhF6hyk/T6zMzMYa6lWavR6PZzt4Rx0u12W2xFJJeHkiZOcPn2aNE1J0zQspI44imm3lz19BDFpliGlJIpjqpUKY+Pj7N69h7179zIyMuoL3SGdKpXAYwOd3xFTcP/4gE+GtIp11qd8hAjpqQEKZ7WJAAf1dBGC4g0dikoVrr7qakaaI9x7732cPn2KNM0xJkUIfLcyAkeNOImgFyqS1vjCcp6CzYnHarip3fQtZFkPJwWpjugClZn7kN0lT9qXWViaI1EnsMkYTkmMkqShpojwqWYQYU0r9zhIqRHKkitRrHqP+7L95O4UysXs7EE9GOqDJjbb8zwnSrqB/qtwZWekDHKCNmw8KcvJIV8fRWBtuR174KN3cN+H/hmb5zilmDiwl/EdW0lGakzu283um67B2RyT58wdPcld7/0wcaNKc+sk2667AmMMUkk6i0vMPnAUZx1jO7b4nKwxLBx+mMhBfXyUHQcu43Mf+AjLs3M8/TUv5VPv/1u+9PE72Pe0a7nvwx/jJT/7g1z7Dc8F4PlveDWdXpu7P/JJNJK7/vCvmNq5nayXctPLbiHvZ8hIhtq7WG9ZOO/FL/+JSxOBtGHns5D6OauWVnwvam9i0HEsFJ7cTgbkWeh2FoO8uxCCNE2Zm58j0jELCwv0eilKahCSSGuiJIIlePjIEdrtFtZaOp0OvV6POE5oNpv0+h2kFFQqFY8kUoo4SZiYmOD6665j566d6NBDoLXGGFNi+/3Z+eMszyr0RWBDFiEcs3MigEnkOdNHRaKsMKm8BKlWmvHxcUZHR5mcnGRhcYH7D32ZEydOeO6mfurTy8Kjpopjdc7rQWMC4NT1qTaaqK37cJ028dJpItMnsX2M8AJXNrek1mLJkacfoFffRr1aQwuwUuHwqS0hQkObEIMiMwXq0ZIXNP4r7vXgvB8LpvSSKDSL0OBy9t+LG+llx5xV2AxOHdY8fE+FXl8SVWHv006yff84KsmwuQQZ+fwbGT655FDGMb1kkc6icove1OQ5b3gVH/7pdzK2bZrpK/f6hjnwdYXAcSScJHfQzVJMZmgtd2hX5hFOkbf7fPmzh5k5fISHP38fz3rjK7nm21/CfX//SZSVzNx1iNbRGUa2TnLglufyz7/3Xqq1BnuuuYrb3/PXfOZ//C3bd+8BJ3wRT2isMSydmiWpVVHW1y/cYo9lcRprHKafepnDYmcZIiMRfrYXHDYMivmXYgppw0mdzwIYolg4YKCfsIb5tEsFacdBz3noqfPYiyLW9HPGPznLM/q9PiayzM7OolREkiS+DhcawtIsY25+lm6nS25yer02aZqhlKBSSahWqkglCsYY36G8eRNPf9pNXLZ/H1GkMbnx6WBn/d5A+BmLsJTKZqvOpNjceJPIYgENKBy3TtfWMGqw3ClJ4SGdOKQSbNu+hV27drJt23YO338/9957L4uLy+R5SqfbAuGIo6R8rcQDR4x19LMazb6lXouwSGbHdpNUKvSSCo0zD5OM7IT5o3TOnMSkXfJOi+7SEqObp4mkwOrIN7qFBd+VtR05uMfgWQuEAzTSylKDXbhBTbRAMz4ae9KdgjlHjDtcYlZOU6tKPvU3CX/xk3XmZyoQKwSK+t6Y172ly00v6ZEDTrYC4kciYkFGitOSxDkWpEFaw1ijyTO/51V87qP/yoP/djdbDu5H4lMpUoiSPVEqhdWSnU+/hm/7uR9gcmqKegonpEFUNVe+5Ot50X9+He/7mXdw+M67UNLfMBELXvRT383er78JZy0P3flZTtx3mNbcPB94x7sRwH23f5pee5nKrmkevvcQaavFwsnT/M6b3sYLX/lyRjaN0Ykd3/mun8cmmorwurfGZhjjiOIYK+xjWkDtKgTTxmJ8qdvZIIySLHLVWhgbPDeOdDjZw4ocJ43XIQ9RuJP4xVTIMn1jrWW53WZ+YR6lNEpqpPR5da0ilPY8PMbmpL2UrJ+R5zk2dzjjkPhGq2ajgTE5xuSoSDMyMsLNNz+Dyy+/nDiOsNbvtP1nCxA2qBb6KEesE64Mo7F9YdjH0a5IHZ2v0FzgkYbF1QM1BngupdFGk+uuuZbdu3bzsY9/giNHjhDHMd1ulxWSm8b5OkvuyGyOMRl5XkNLTVyR1KRGJJZ0aj9mci+iv0z32AMszJxm8fRp4r4jzRw6UnRDncc7RrlyNxSct0OTKYsBtJNkaqiTG1mcikctlpuuYWSm32n4n9YOIZ50p1DWvlbcfzH0U4GdELTaio//To3mpOMN71wibhjyvuU975jkk+/TXH/LMqiChdBHwj73GPoEpMJiEVqRNKpMXrmXF/7Ad/LeH/0lpJYB7gY6jpCBFC/r9rAS7v3Uv/P7b/pF+tbgahGv+K7XIrSkMlJj874dPPu7X8V//b6f5q/f8k4uu/kGnNbEtQqVZh2b5Rz53L3kacrb7v4wUzu2cer+h/jFF76aBz7/Jb7r7W/mD3/ybfzyd3w/7YVFZDXhGbc8n/s+cw84y+/+wM/itMIpwY6Dl/OaN/8gYDDCPWbA2IYPeCrbQCpprTEgXUAauSJFGxazFYiOsCAOLaTOQa/Xo9ftobSGoLymlHcOSqmgNuYwxn8Vwjw471QAqpUKadonlzC2aZwbbriBq6+6ykfnSqJUUHQr5iqU3dfr1krKMy6PlrC3oJwN5U7hrIqz/3JrzJqhgjaBYTSKNONjYzzjGTeT5zkzMzNBM0KEhj8L1mFyQ7+XkrsaIqCtlI6p9L0cqWjNo2SVJI5JIlCNzURGYduGLGtjnEArX9krawrF8axxZ62IcC5BiBQndEBiDqWAha+1DG7p8PkOMgRrXx9Qb33LW9+6zpV/QswCC/T4smiHvww7BJCuyKQJ0rbm7/6fCi9/c4ebX9Jn81TOvqs7JE24/a+b3HLrPKYY/OF9iiawqF4h2TXF7ufcyMiebUxdsZvtN17FzusPUJscY++zbmBq305UrKk2aux62tVMXbkHFSkqY02mdu9g6/7dTGybZueeXey88jIm9mxn99OvYfOOLWzas4Px/bsY37mFrVdfzqYrdrPnGddRbdbJ+hn9tM+BFzyTvc+6EaEltU2jTOzYyqY9O9j/rKex94ZrqI01ufLmG3jpf3o9m/ftRMQRE7u2s3nXdjbt2cbE3h1M7d3JzgP7fUOOkkUdsfxaYefxFmMk7GMEveqab9hTxQQZgvklOHPGkoauWP8IaGdwwmuUSyuIRY+KnsMKg0L6iB5J0Zo57F7m5s5w9OhR8jwnzXLSfp9er0c/7XtiuDz33cLOF4ONycmNp6MwJgvdxR6mPToyyrXXXs3BAwfQSlJJ4pAaKhyBj4GlACmLGrBYdUyDr2FNglLMYY3H/Pq6+vfhHYJb4wsG2o7+dbVGnU3jm7DWsri4RJZlCCHJc4sz3ilY4zWm0yyjn6b0+hmpMfTTjKWeod3t0csMqRH00pzMQG4t3X6XqNYgqY9gXe8VHQAAIABJREFUIl1qQ7gQlAohysK617wQWDuGISJVGkOtPHdZXDUhiB1MTwjGRyDCDTlKhs5z7QXjiaG5OIdlOB5ggX/k1NBfQ4FYuHAD/fYwn4/5+edP8/3vmuP6Z/QwuT/0u+9MeM+bJ3nLZw4hxFqAqpArDSgL8NQUPm0ivLZq2LpJZBjQomRjVERhOzcoX1uboWRETo5wDim8FnTm0vDJDgLuWCo5yHMWDWsu3HjPewFK+ceKfKAxCKVKXeYCMiiRpHmKVgXa6lw0F+tfdwfsockt7CAZdgobW4dL3IajPEEbwVeOOg7dl9OSUSlZKxye5kI6+koQGUEzOs5o8iBGSrQFjSeedCF/6Moh6jh077186vZ/Kx8r0UGh0KqjyDeYqQFPkMkduUkx1mDyDB0p2u0Wz3jG13HgwOVUqlW08jsNfwau5F2CECUPneYFga0DVNM5dxZV9Vmkkf7kkC4wBpxj6XPhuUJIrJBkacrMzCyf/eznOXToEJVKBWsdSkZopagmFa/trDU60igZUa1WSSqJlzQVDiUVSRKTCEOsNTK3zM+epNZssnf/5VCLCRuVFWn1QhfGCY8iy9wmUpGwrMfou0lKpzCUV6sauO6AZO8OqAZlvIEV12VV+igMgCc9fXShJhwICVkG73zNhF9InQIbQSaYuDJHigK1v3I1LDfKKy6MGH6g/HnAUuT1EyQSQ+67nAM2TCBACjKXlU0lBo9SkqWIuQ97RPH+DD6rKBGWv6uh5wUn4EI752AH6DDOYDAorQNFr9vgCNqwC7CQYnH6ggaLUr6XoOzstyE9ZK2nbs/z0NlvibT2jV34uVNg/FESpSTPfe5z2b9/vxemKZst3eOWtyzrYauD4XM9f/CSdc3PR1kuE1EUMTk1yXXXXUurtczMzCwCfy1wjq7rkRuD0gqV6aAN0Sfpx8RRjJS+QN9tCxQZWkoSpennhtgFBCAFhxOrl7D1jvBRPHZ+e0o4BR9ZO0ZGM17/X+bI2779ROK7MLPIUN1scLnyuwsp/A0tBp8ooFxDedPhoGRlgDLkIAg87a6kwxggGDx99Yr1XkcroxshBu951kmtdFBnZflWdSq7IQrEgup4wzbsgk1YhDAImbOCDWAdqzeb1Op12i2f1jXWBtH7IpjBK6UJVy6czjmMzRECNk9s4trrrmHnjh1I5RmIi+i/pHougqwLWc3XtcE8OKswvd77XuDU8ekmT3ktnCDSmi1btvB1X/dMbrvtNs7MzvnY1PlQ0jiLNAqd574nI1IYk2KiyDOc4mlGrMxRUlKJYvLMUgs0GFIUWYoLndtrFYqLXPIFvsUa9pRwCn7r5Is/17+4h3YCvZwEdaWITiUljzKU1mSkQ4QZsvTAg9Xerr2tHLJivQ2SIuQhyyME6NAs47FNnj4sxyGB2AlSkZ/jnR+9SRw4n04SwqHDrTPOci7O1w3bMBw4o0FbhEyJehFKeFI8oyjJJCLrU5pWQLVaDanJsIg7VyqvFa+wwlNplPlu5+j3u1xxxeXccMMNNJsNEJ4/yKdQQmhmH9+AxiGCVsFKE8Ogm+GLQQgYz7NyFqmcgofTWkuWGbZu3cKNN97InXd+mrkzC2Hn5HBKIKzAGoXSAmO1h/amGpRHDkopiYRDK+9UPfhL4aQiQMHOTms5KBsRQ9/CwOEN1YPWIAp9NPaUcArgYaKdnuS//lCNhePaQ7I0pD2QSY1N23Ne96tLJJuKKMiw8vQGeZb1oG5DzwQ85EsiSKCkmC7ewQnvNAQ+N1sWeS5GqTYMboVAOeEJtoDc+YJhOoS92LANW2lD+cVyaJ4jPxFy9HEUMTo6SqfdCRF9Ed3bEB0HhbDwXlL6BtJarcb09DSbN28OBWeHiMSqebHez4/CnoBBX5y/R155J7hz505OnDjJwvwiee4J85z19UMrCzI742nFRYqTutRhVsJzmFXimEalhtIRhY7FhVtRa3387SnhFAQeMWB7gv035mRXOOJIcPSw4JMfEIgzCnGLQXuui7ATGHjNSRfzHDuJwBdwUs6P7R+uBTggFwOedvDzTDlWOALj2ynLQvLjaVYOCs4WQY8MJSSHWeKobaOF9CpXnLvAvGFfi1akHoeTlGcPUCEGDMFxEJ6ZnZmln/f97lgUUMw8CNOrsoagpERKqNfrTEx4/WUPZx3oDq84nsLOg4ZYKVq/1qQSFz8cKor3UhBFEcYYkjhhx/YdHD58mMWFJRye/E9YEcjz/MqQiwzjBE5GgeHYOwutNVJroiShOTqKkIPXXPji8TXiFFYXTgtMtXCS2qjgm/5zTuuU4fjdCf/w3gQZwXN/uMtLfrBDc9TSw4uJE7qgASIkky4O7/sIPKwjQPYu1AT5KubR4RrFWu9/oe/t7OBmZQq0qLFExlfMoqf8RmBKmu4N27D1rAiY1h55BfGaA3bv2c3hw4fpdHvls4vHikYv6TxVxIAmQ9JqdXw8VRDUMehMXnthP9tW9E0M1SGefAswUaXYtHkz09Nb6LQ7ZHmO8So5WGMwpS4FXsfa5N7pyggIgj8IKvUa9WYTKQV5IP1zKxzD8HpVpIjkKmf6+KWO4BJ0Ct4GkYwbukT9ruDBezQf+eMKn/lwzOXP6POffmmZvc9PPdNgX0CiGeCMXVEBe9SRu3XrL7IF+mfwB3GxnDc4yihOWEiVxx8VDUrDTS7Dw2nDNqwwrz1w/iCngD/W6155bHm5jbW+eOoAYUMXcYCzFmI0Ukj6vT4LCwtezEbKANQQYde9dqS/3lEUMNOiW3tdh3KxB7oVKxCKhdxnrVZj69atHD9+nLzTRiJDN7HnRfJn4WsoBR2JCYJc/TSl4eps3jRBpVIpywWDesegqF/UjR/JEvZY9k6XqFNgJQJIWLT0cK7ffVOdxS9pRCQ4dTTh996WEEc5k5N93vgHyySRQMg8RCgJhYN4tONGnetuCDEo8gbv0MXrJECh+Lb+6weEVuc3ASg7OKZcBafkHKl0pdRGYReEatuwp7h5RbJzW4jUpV+MnIkvaFwIKajUqjRHRpg5PesX5jwPOwUZ6glh52AdubHE0msOLC4s0uv1qVWrvjDtc7El4+mqTzr7iIvdyFlpp3Oc4kUc7AW/2HAEaJ1DK8XY6ChxEtPudjzJ4NAmrBTRcsqrJobdVLFrajZHmJyaQusoZEiKVNjKk1mREr7QndZjACBdMk5hcL3toCU/oHp8YddgteLAM3NmtgC5J7DCSKTWiLpAJctIaXHUAYEUXQSSaIgO4JHm3LNzzLkionLCBxO5NZhen3arxdjoGARo2romJE5dOHF1LgcH7jV3BVURAz0sgqxERRU4q0Jl4jznUBwOZ1+bi1Ef2bDHy849kEvMO+BRdwZnYnrSEuE7XbUFGW669fqYCAQGh8kzRsfHkNov9p6VXpRFZvDtQsaCNI5cOoTULCzOcfjwfVx19UGiICLlU0xrLPJrpjsdWF2cxJBTcWWXcvnyELWvVSNc828Q0strXL7hYynoLgC3xhx2zvniulbIIMAjpUXo2M9rXKkQJ2wQ7rV+djoHtWqdXbt20RwdpejbKMr2rFjQ/Qy1ojhgeUHzUQ6nph8h5PfiO4XSw134C85+ib/x9TH4j7/SRiOJBHTPWE7eL/nY/0xYmEkQNtxE2wkpNn91C33loiD1qCH+JVOhKFN9xuY4G5p2nMNpLzEIQT6vaMdf71wLBNoamaf1nFd5+P6yrOhPtKxc5Dfsq9kufJ9Z9CdYUwXdPvezw0KrpGJqaoparUZraRlPUT+0XDkCxQW+Mc3kSOl5k44dO8b09DRTU5MrUkclv9C5j3bFojjM4eOLse4cc+oC7XyR9IqUvWVApxH+FOZ1s96gVq16+jprEM7TgIsQwFlrfd3FuVK0B/zrxkfHwlkNvhd2zlrkRbZLZqcwMHF2tRmBdV5PtrMkiLXgC3dI/urXGhy5I0E0E674+g6+mdiByHFYrIv9+1geE0JBSlVGLCYfSHlaZ+mlPdJ+HycFxjnmFheIlaZZrxOhAnkWjI6OepI9oNB/8JhvibO+sQd54aOgjPCHXrIWU+aGbRgAIuT2z1OQLHmCnEBIaDQaNJtNOsutNYAxYTlzPgo2xgQ0kmFpaYkjR45Qq9VoNGp+/okLzH6sGsPDaSRRbGcvxjgfes9ig7L2lPK7JYF3ilpJtFYeluqsT5NZ4buYg3yusZ75ADxNSKPeIEmSweetcSxPFgHRJegUzrayAzITfPxPJP/2/ojTn4/ZfrVC1BQvev0yr/y501Qqhp4VCBFTknw5WJ9l/jyfG+iE036ffr9Pq90CBL1uF2MtUaypVCvoKAo3HDr1KrUooVlrII0fWd1uj5MnT1DwnHu5QZ9TjOMkOAfKBrnzWcGFstHUvGGPzM4/uIoFuAjupZQ0Gg1O2KJw6tZ8vm9sM1jrawdpmnLixIlyp8HQDqGEmK4TqJUF1jVqCsMQ1SfG3FD0VexafKDnhCFN+6WEp9AKk2ek/T6ZsTjjMwhaRcRx4jMH0p9DrV6jUq0jnX2sDciPu118p3CBZ7te/s8vfl41KuvAP/6Ronev5Bvf3OdZL7H8+ndrqg2HTqC9oJANcCIBoRH0cGJtAZ91jwNR8rsstRbodXssLC4ysXkzOoqI45ix8bGS1OtHfuSHiaKIF3/Ti1mYX+CDH/ogz3/+C/ieW78XFQrOtVoNY0bDgHKBbXGRubk5+v2UsbExmiOjKB15P1Z0fIbnb6z+G/ZEm3O+YTSOY0ZGR+mnaZkOXf28YvH26SRbfnU6XWZmZpieni5raytqbMNcYgDChuLsaoqXoUTyE+gQggujlCxFlHWR4jCMyWm1lllcXELFnmbcE9oJcAabG6zJiaKIMucMVCpVqtUKrIKwXwr2lNgpFIUBGTm+8XtzPvkXgo+/t8pt75d0TiraS4rOoiJuGqxRCOXFrxGPNGnkB2O73WZhcQFnPexs3769JEmFLM+QSobmFD8Bbr31Vj73uc/x1re8lVqtxv/58z9PtV7FWYu1KwezCMUiKSWbN2/29LuZYW5+jtOnTtNojlCv11GhsPek7R837GvaBrNGIKSk0aiTpilJkoQFerhOVnQi+F1uCVF1jn6/x4mTJ5menmZ8fBwVyPNWfpY4u+ZQPirO+ixYu9a21kw5H8Di3LZ+HRA851mWZSCgUqlgbA65f9w5MA6ctV6wS/q5b0yOSS1xElOtVogiTZ6t4xTWjWQvvlO85J2CTyGGrWtseOmPCZ7zmoxDn0y595N1Pv+xmE/8eYN2W/Af33mGOHGkuUEIg5OB8fSC1lYfryy3lmm1WtRrdaq1Glp5dIG11stgOjwzYrCrr7mGbq/H8573PF73utfhKpr9e/eFSXL+olqSJExPTdNPM+YXF+l2O4yPbyJJ4kD3/cQ6ho1NyVezrXNzhzRIBoR3gTdMCWr1GrVGA5NnZc2hkO30QY5f2D2c32FxGOu1FOYXFjh64jizc3Ns3ryJbVu2nZUiLeAbjsFwdyJIzsrhncLqWiOD6b3GqVmxdk9GIXO5et2Va9RL1np1kS47fvw4n/70p5ASqtWEiakplJQsLC7S6fVJexlKKuJYI1VgmO1mxHGV8fEmSjjSEi6/8mB8dmToXMrnfI06BQEr9IYdDpcBxpHhaExmvODbO9z4zSmLx3vce2fCPf9cxQqNIMMJgxDFZRQX5BOkFKRpRmu5RaPZZGSkGZpO3JA6FCvviRNIqZme3kKj0WDLli3EozWUCjTB520uFoFHRhBFMZObJ5iZmWFpYYHJycmgPetzmhvUFRv22M0xwKqtY7LQBR6gfKI4otFosLS4gBQyLP5i5WsKfIiUJWMoDlyecfL0KXrtLjt27GB8fJxarebnVFjQnfQUEb657hz6IK6EVwzsCWjgL+va4aN9eswwMbGJG2+8kU9/+k7m588wvnkz09NTjI2P0ksz8tSsgAIqqWi1OlQqFY4ePcrY6CiVWu3in8AjtEvWKaz+XUQWIeHEFxNMDuQaKTRSwP6npWw/mJNULXkZ9GicV2y+4BSSNQYdaWq1WskQ6W3ozq54M4EI3dLFJLn/8ENUpGb3rl3EQq356UpKkqSCkEE8Pcj76VjRbDZYXl7GGIPWcvD6wic9zpH8hq95KtpjGAQXOoDCLqAYH3EccuKiSB+FwwglAiHFUM3BYZ1nVDXGsDC/gMl87t057zic9U5DSBFquSVgfMU5FoXdc0XuF3sUe8i5osD8aa0QQhPFGqUVW49v5cjRh7HWsLC4QK1aoVqtImsS4QRLS0tkeU5rucWZM/PcdNNNJEly7h6mJ9EuSadwljkQwtJZ1PyPn55k7gjkVtLvSaI6GFFham/Oj73nOHHDgNMU+gOPJJAYWvrXGYNrJzOPHT1aQvKOHTnF5XuvwGQxTkdnpY+MyTl+6jQTkxOMjdW97EOIyKwp5Agdq0n9it3TuabHIzU5NOm/ppzD43kRn4j3PctWjNQLv3liiP7lfGupIyBlCOg4gVQSQ+i/cSHSl2FhF745TUqvcVLArp21mMwglSRLc/TQQljwI9mC0iF0S3tPYFccTMFUI87aSYjQO3GxR3DZWhZ2NX7O1moVbnra09i3by8PPvwwJ06eQAhJrVahWW8GZTp/Dt1KlSSpcvDgQaYmJ1FhV3WhfFBPlF0yzWtht1qUcaAcHGHhsoJKEvH0V3ToLcDCnObT76/you/qoBpd6uOWODGkaYSQpow8An0UDohC7das46CVkuRZTqfbpdlorCTlCo7p7ON2TE5N8Bu/8Ru8+93v5h8++hGuPLgT6UCtebM1I2Pbws9eiaEU7lGO1nKLOIo9//xFHCuF8jVhcG/UEs5hq9bgc47pi+kYVh8H56K2GzYBZhQnF3GyD07iLKEvppglHuG3Ysl1YQxajZaQxJ7J0+YOk4KwCoTFSkAIpIjQKvIU08JTYeQ2R0uHMGD6fbJen0qtjnOqzJMLIbHOgMgHsNXyMVcuqoPzfJROwBVXrNh9nytSNwwHZa4sohROyOuYOCup1RqMjW2i3e0zOzvL7OwMx44epzkywuTkJABZmnH1wYPs3bsXqWPvEIy5aEPFPgaY66W9UygnmM9z6sTwnDcuE0WO+26vc+8/1XjOd7QY3eZAOPIMD2tTJlBlWBzKu5gCVhZ2wKtz9M46Iu1zp3Nzc6T9PqOjo2itQwGsIPZiaEz65fzMzBne9KY3ceutt3Jq7oznRxTnH7bO4RvXlCLNMtoLbXJjGB0b9TsHu/Y+pzgEe97bvv4R5IBywrfDFwqkT8XtwqNdhNdb2Nd6v9XX5clyoCuOwwEGhUaIsAgMLwQChnmRnA3FW2dwVnvBmKCSpgI6hnLMhkChoIt3hjhRxJHCZGBUilQSLSVGK5yQICWRSEoxGSUEzua4gkjPabKsT6/Xp2FDtC18lKxUUfcTK07PDQeFpQWJzJCulUFbpDztVeCOVdne8MdiAq/Kya6oWZR5aP+b8EdSdHsXTrQwYwzbtmyl027R6/WYmz8JTpBECdVqjcnJSaa3TCOVpxs3K+b2WgNsrckoyqNaI5M9+P0xjs9Lpk8BKE+svEesDM5yA0hHmgqQoJwizWB5QRAlUKlb0r4L8Y5BAhmWyOuWYaUA65lFzaprXhBRNZtNlFYsLS0zMzvjOw8rvsFMST9zpBzicBeC7Tu2l+9z/cGrH9E599MeiwuLOOeoVqts3ryJOI6xZrBdXW0X/vbrrPLhwkoE0fBK8lR0Co9mApzrNY9lQl3sLMaq+YETRACBfyv8yS+oAkRB+x4WWOss1kof7TuHNRlSSmTk943W+IhJhh2EX9QF/W6bVnsBrR3C9nG0ieOY2AnaUQXQSBVRJyErFvgAS9XKIoRFILE2I08zT8MUGAGsHQJyiKHdQHlCfntfrgNCrnhcIEqpXP94OHZXSGCttEGxOuTHYPA74A+OVQ4CCmfk/OUOzmeQ+nE4GvU6cZzQaXdpdzq+gVVIKknClQcOML5pM9baMiVnrb8urE6JlTdx5b0vHxKDIy6eusIe4xi8JHcKLkThEFANeBBZ38CvXbOXha/EGLyK0Vsvv4w8hn3X9/ip2x4mSizG2ZAaESigyyCddO7r5Z/TaDRIkgpLi4ucPHWKJIkZHx8nz3LiJCFJYpTS/vnO0W616fd9Z+PS4hIjIyOUAuXFOzufX3U48jwnzw3dToc0y0iSmEajSbXiuU6tW98hFGacQw6ClvNc0LOfYpxDOrFykdmwx25PyLVc9SEC7HDX/hqBp+8TU36XIAxYB9bTr+e5j8atMiAFkfS1MGNyhBP0um2UaRFJATJHiDqJFNiuJRU5UkcIIYidCnDVUEg2VZzTKJHiRA7G0FqeJ+9vIceSW99YKlWgehEi4Pq9Logs1oCh3ojhnYBzbrAoFrxkglDgXv9GCEfoqbAlwhECQ3a4fMK/UWgkHTCcBmFcBK6smTjnmDk9w+HDh/nSvfdx7333k6UZ27ZsRScxW7ZsZXx0FGcszjgCH88la5f20RXmwDmBkI5veNMZeotyIEVmIM0141tz0r5AJiJ4Ukchkqmcx1ULd36xDucgz/y2emx8nNGxMTqdDp12G2MN/4u9N4+zrCrvvb9rrT2cseae6aabGWmQGWVSJomiJCJoosTxGjASNbmaoPeqmBtj4ptExOGNikRjot5oiKJGI3EeAAUaFFGRqZueqruqazjz3nutdf9Ya+9zqgcGEezWfvhUF3Xq1D57r732M/6e39NqtbBYwjBEKcW6deuY3jHNrbfeyvT0NL974e8Sl2JOOvGkBWFslmk6nbYjyJKSOIoJo7BIUeVMi04ePieS2wH5OBPYxfCSfTV19Nsutu+9FmQ9XvrRhL+9sgtGYUwVE8y4oS/GkmQpqU2cMo4CpJRo34djjQJj6bRbxKHCZgmlCFasjEjmDds2tAmlRAZOyypt0dKNfLLG5eQtAUpm1IYtjYZlavtmavVFbNq6iamZGYJSyDFHH02tXsdaW9DF5Ft7l0RQcV0WawybNm9lescOVBgQhiGlUolKpUy5XHH0Gg8re0jb7MZTsn1z0TdCvos7STPuuONOrr/+euabLVqtFsPDI7RbHXRmKJUrGGvBahDOmbUD6aO9zSfbJ4yCsI42VynLKS+fdd6F9wSkdKyEgYDMSjIjQOXFpH7y6VEj8ZybMNDKLqjVqm4IuQXteV10puklCR/44AeI45jXv/71bNmyhXf/f+/mwuddyJGHH9mHnAmIItek5robHUKDwvPpUxE/kuQKQONqAo9HiprEQO1tv+wDIqRTMLnskn7Y6e2AUgbds8w3m8hyi1gqgtynsNYFDqlrTktTR+wmRIROU+bnphE2AZsxPGLRPYswIEkJZAAiQ6oYofPT0SilkVEPnSiqtRaj4wG9nmT7tkm0uYcHH9rAhk2bsQFUKxXWrFlDGIaEYUgQKow2xEHs0EueNqMg6/PPjjGGdevW8R+f/xwzs7NUq1Xq9TrLli3jpJNO4swzz6BUKu/SEb1wZXZeuN2/t+i89k1lWhvAoKRi08YH+da3vs2GDQ+BUPSSBK0tGzZsYOnSpZj8/giBksrbO0+q96TyOD062TeMgrCo3EBLENJAIDBGILTFZCkyrGESD2kjAmnAOg55dxB26RJ8+M8cDFMp9ogU0rEbxlAql7jggguwxtEMj4+Nc9FFF3HQQQexfMXy/sFsnpjaWR7lEJHd/qUDj/xSzCl+LVpCM02PcenYGq1xrpkoFpuF6dbBiMKw8PkRu/l5NznR4vf5/1pb0Aw/7DNrB97vCiIDrxXZg90/54OvP4rPeNjC8sB1uZyyKYy/McYZ+52OYY27xvw8F5zvgAMsBLuejxj4nl8rAkTgBhmEyo1jNdoNhrf9wquwbo8Ia5E2YHZmC9Mbb0OLHqGSlKIStVJIIBx1SxCFqCj01yMJSem25mm3ZgiFoFTNqJcyWjvmmdliqcQBiZUIGyNMCZSv3QlNIFLq0RQZNcYmHiSMLVG4mMnJBhu3zDA9N8vc/DzDE4v4+T33MDU1TRgGqCBg0aIJxsZGGRsZIyxSLaJ4joRwk94yrdm6dSuTk5P0kh6NRoPJyUnWr3+QsbFRTj31VK90ZbF4bv/4EaKIhczEg3u2uC9mQfOatQZjhdMzxqLCgGazw47pWYRwRfYoCjHG0O32MCbPKgTFPIj8fkrhajt7m+z1RkHY3BhYjIF7vlZjzZkNKrHFWEEQWoRx6B2kQEnh4VgWK9xctA4ajSUU7kaanR/6RyH5lLP86RTC4bX/x6tevdNz3M93PtEy2GfwqERQ/IUQEKBIhKLd61GJ44JivEgpgS+GiQV/+6ibP/akiPOXi4e0nzJIeylhHLq/WdiqUeTGEQv/Bus4/EvlnefPDSjuYgLYzm8YOM+B32dpRhAGDiVjLDIYnEXcP7g11oF8/LkZvEfr18xkxkeEuDy+zFMHO+XH81MYOP4C45Eb4dwbAAhU8T7n6uNRd8Lnxf04GasJg5B2Z5a5xibaXYvCEkpJKEEp5foKlCSMIgKlEFKgLHRa8zTmZxmvSMbGSnTak4yMWLozsOyAhHAeWlkEtk7mKSmMLyQHURNpFCFdus0QIVoYUaLRSOm0Emq1YaqVKr1uyo4dsxijieOIMAyp1+ukaUro6xX5HIfB9TFak2ntC9W5561I04w0zdC6P+nN5o0Otr/aeUo5r2Hm0NcFKat8yxf8G7LPPCMkRluWLFnKoYcexoaHNjqUl3W1iGq1SrlcplQq9+k7Fmb5HhUVzpMte71RyMUC3Ybk3167mhVHZrzoY/dSH0nQWhBJiQotGQJLNlB8dU+qQjhgav4APo6Ibddo7/FManh88tg/17miC7e9REpLt5fQa7ZAKarViqvFBIo0Tem0OwgpCILQjViUgk6742ohUqJCRdJL6Ha7hGFIHJdoNZtYbEHw12q2scZQG6qBgCw02T7sAAAgAElEQVTVNBrzhKGDASOcR52kCQgIghCEpdPsUKlV6HV7JGlSeOJh5BhrszQjyzI67Q5JL3FeWaBQUoGEHVM7qNZqGKMplcoEgfLbwkEPut0uRhuCwOWkhRC0/WhFrQ1ZmqIChekZAhWQF0PbnTY5o65ua4bqQ7RaLcCilOPWz8EIxhjqQ3UQ0Ov00FpTrlZotzvFXdTaoKSkUqugM83s7BxaZ1QqVWq1arFmnU4bkyVUKnWCIHKtBCaHXPeNubvT2jsvlm43IZBlaqUlBFEHnXRJu12anY7j8rJghIt4pVJIIQiERViDMBqsoTGXsOWhDaxesoTlBwqGRzKq9UXcv8mSajBCkfQ6dJOEuBIghCYI5smSJu32EozRhFFGuwVJD8YXDRNFJUedYQxR5AAd1UoFa6xD4OWOgy/6WnApJa3p9rp0u50itWSM4yWTUhIEDnabZSnWCJQa6DnAD+sRLmooniW70zMlin+KXzpDLXxznkJYS31omGOeeizbtk8xNzdHq9OmXquzZs1BVCpVlFQFvHwhU0L/Y/Yms7B39lkPSG7FpZXUhyzPfMN2tv004OrjDuUbVy9lww9r/PQ7Fdb/tITNQrRW+WOGsK7BRAEBbggOoj/r+LHK3pj/+2Ul1hCjaFvL17/2dc4562zWrl3L2qOO4i1vfgtZlvHAAw/w8pe/nKc85SkcddRRnH/+s/jsZz9LmqZc9IKLWLxkMVdffTVpkvKOd7yD5cuW8/rXvZ5vf/tbHPmUIzn55JP50Z0/YnpqmsMOPZQ1B61havsU1lhu/OpXOfTQQ3nDG95Au+UK8Ndffz0rV67k7/7u7+h02nz+c5/nwgsvpDnf5JWveiVHH300J5xwAqc87WlceeWb2bJlK+9///tZvnwF55x7Ds945jN52tOfzoc+9GH+8UP/yPjYBGc+40yOP/44LrroIr7//e+5i/dduDM7Zrj4BRdz3PHHceqpp/LKV74Sg+Hiiy/m2GOPZdGiCZ567FM57bTTuOGGL3Des57FF7/wBd7/gfdzyCGHcMaZZ3Daaadx7rnnsW3bNi666PkceaS77jPOOIOr3/Me/uHv/4EjjzySH9zyQ3q9hAue+1z++LV/zPoHHmTlypUcddRRnPr0UznjjNN505vexNS2KV71qv/BaaedylnPPIs/vPRSHnzgQaa27+B1V7yOU592Gmec9kwufsHFTG6dLIIpiYd+WgreMCP8JD4hENI9BamWqDCgWq0yPj7O8mXLWbVyJStXHcCyZUsYGx+jWq0QxzFZZmg020hVQsga3W6JqLSMtomYaSzhockqD810MXaEQIQIkdLttmk05+imUwidEUfTkGakXYuwmjhOqdViRkeHKcVVQhmihCQKApYuXsTo8DClKCZLEjqdDnNzczSbTZrNJlmWYYyr5W3ZuoXvfvd7PLThIddLlDe9DTCuGqPpdrskaYKxlixzXESGPK/mHCSHIBps1slzdQKsRBAgCHEWWAAKIRRSOp86iiNOftop/PEVr+WiSy7mlKc/nXPPP4+Tn/Y0DlxzEKVyGWvyWkhfj+yt+mSfiRSQFoPkpJfuYPUz2nz2ZUv50v8apbqiRhL1WHxowus+1iEYxheb8zDatZLndmDnjMRvk1j6XkolEYiyYGu2g8tf/WpOPfU0Pvrhj/Cjn/yYt73tbbz4JS/mk//6SW6/fR3/8q//wsjICFe9/SquesdVHHLIIWzftp00Sbn5lpv54+y13HzzzY5Dv+M89izLmJqa4id3/4SNmzayeetmyrELo7XWfPCDHyRNM77+9a8zvWOaFZUVZGnG/Pw8n/jEJ3j27zybNEnpJT3X7KMNp512On/x53/OT37yE65885UsmpggLrli5HUfvY5ypYLRmkWLFvGZz36WIAh45zvfySEHH8I7//qv+Zu/+VtOP/0MpHJFym984xvcd999fOTDHyHNUt7znvdw2w9v45/+6Z+47dbbeNnLXsarX/1qLr74YrqdLu1Wi26vS5ZlLFq0mI9/7OMuMiqV0FrTbDZ52ctexite8QqMMcRxzIc/9GG2bdvOn77hDdxwww10u12ajSZCCBqNea644rW85MUvQUiBzjQ/+/nP+eIXv8C7//bdnHjiibzlf72Fu3/6U4484in8+/X/zgfe935WLF/Ce65+L1/5r69w0UtehvYpC3D1tz4+P5/w54AN1tNZb9p4L6uWr2DH1DbIMur1muugl5IgCKnXh1BS0i6VaG3qoOIyQ2PL6bZ3oKIqmZmloUsEyRCZiUAlSAI00oEw0pRuV8GIQASSrAez00OMLm8yUk9R99eoVRSVUpnUJERBSCkqsX79gzSbTWq1OitXrmSoXqcUx1QrVcIwJMtcOkwbzdTUFJs2bXRR3QB1hjGGMArZuHkT//mVr7BoYhGHH34kK1eu9DpeIIUq0jia/uAc1wORs6B6QIjMe8a9ASkGYgmyVGO0RilFqVTigAMOYNHiCVavOZBut8fixUsYHh52dSTt0rACx/5q8hPYOTrZC2SfMQrGY+rntgZ8853DbF6nWHVyj4PObqNqGeUhg5TOAVBKolEuLM17FvZLkT+3PhdurOFnt/+YycltPO/C53HE2iM5Yu2RvPBFLyRNUr5641c5/bTTOPucszHG8MIXvYgrrngt9953H0EYMDQ8xF133cXszAx33/1TqtUqWmeFo7VkyRLuuusutm+fYvnS5SilaLWaTE5O8otf/IJLL72Um266ieuuu463vvWtBVx3fn6ea665hrPOPtudtm9gGh8f55BDD+XQww7lvddcwy233MIZZ55Br9fjvddcw9IlS0jShD+89A8RQBxHrFq5irXHrOWFl1zCa694LcZojAEVKA47/HA6nQ5/8OIXc8EFF/Cnb/hTTjr5ZISA1atXY7EsXryYgw4+iPUPrHcoEl8DaTQafPkrX6FcLnHq008lXr4cYwy33nor9XqdOIr5o8suI9OasbExNmzYwKc+/Sk3uhVnoEulEl/72teY2j6FVIpnnXcep5xyCsPDw7zpz9/Es5/9bC699FKOP/54sIIjjjiCy19zOec/6zye//wX8Hu/dzFhCZSiQMvlzudA6tynYFwfgLGG6R07WL5kKTMzM/zsrjsZGxtDCEFcrvCUp6zlmKOPYb4xz5bNW7BAEEZE8RBKRvQ6AZ2OJhNNMrpYGaLsIqSIwVo/s9nQago6HUWlXKI+uoTNUxlpEpD0Qqo1l7Y0xrEExFFMu9Xme9/7PnNzcwXce2xkhDguOeNQLjM85OaNjIyMUK1WOeaYY1AqoFKt0Wg2SNOUXq9HmqU0m022bNnCfKOBFZIojqhWq8RxjBK4rmsZYHFNdtYIwlBRqVQplUq+ziIKZoEkcb1Fxjs11hqsdjxrebFCCDc8Z9mypfR6KaVy2aexHJ2FsRYyjSm4mmyfTWAn8b/l12Ey9gmj4NJ/kiyRfOIlY3RnBc999xRP+4MOlZqmXLNoHWCMMwZ2IKh2bT394upvZaOWGABV+DC7GUMDTeKnQkWlGGssaZIyMzPD2MQYWZYxPDJcHGZ0dNTl9ns9SqUyK5avQGvN29/+dtasWUOr1URrUzT8XPCcC/jWt77Nfffeyxlnnsm6deuIwoivf+0Gtm7dyqGHHMLdP/kJ77vmfVxxxRVYa6mUK7z0D1/Kxz72MVqtFoEKXDOfVzhhGJImCQLYtm0bRhvCMGRsbLTAqY+MjiCkoyPPxeJy1CAIQldXOOSQg/nABz/A7bev41vf/CYvf8Ur+NCH/pHnPPs5CCnRmS5qGEJ6KGLmlGu73WL9gw/S6XQ4+KCDWXHACk+N3GLDhg0oqcjSlFKpxMknncTRxxzNRz96HbMzMxx62KFYY8nSjKH6EPUhZ0SCMGRi8QQfvfajfOc73+GWW27hyiuv5C1veQuvePmrePe7/5ZvfuMb3Hzzzbzpz/+MO+5cx5vf+W5v6PPNvbs42GKFwghJalxePK+hSCnIsoxKpcz46Bhrn3Iky5YuZni4zoYNG9GZQYgQKw3V+hCBVAhZJdPaRX1o8p4BrRPSLAUsnXaPVhJRSgUZLSpjMDdTp90OCQLHRNBLEoZGhtkxM8OGDQ8yPzuHNZrMgggkzUaTJElpNdsEQcCWQLn0r5SUSiXCKEQgWLx4EctXLC9qOQCLli7igFUrKZVK1GpD9JIuYRQgJWRCIFWANRlZlhKGEUEQEkclJhYtZmRkdEHzqbYCo/3I0YF51O5ZMhiTgtVkmabVbiGkpFKxDvggBDrNMCb1gADIvOG01uxRIfVHllLUQh+LPJ666V5qFHK8Ye7aemIsY1lzbpszXt5g+dKQIATdFSRzgq2bDUsP7qMQrABDz6eOtKe76Bfi5E7rbHl8C/lkSr/09fCbZRBdV6yor7fXUoiFZfnSZYQq4NZbfsiFz3kuP7rjTl78khfzsY9/nKOOWsu3vvktep0enU6H66//dw5YeQAHrl4N3ouu1mp88lOf5AUveAHTU9Mo5UhGgkBx+OGH85nPfoZ2u83TTjmF22+/nWaryde/8Q26vS5XXnklxrgi72c+8xkmJiaI45hLXngJGzZs4LOf/SynPO2UYq6Fm1SXct999zHfmOess85CG42Ukr/6P39VUDer0EWJAqf8tNZ8//s3ccSRRxCECqsdMu3qq9/LrT/8Ie+95r1ccsnFvOqVr+KGG77ABc+9wMEFPec/4AqLUpBpjRSCww49jL//h79HKVfU3j61HakkF110Ea95zWtch28UobOMMIq4/PLLufGrNzI1PeWUitFEccT5v3M+l19+uTtfKbn+s9fzrr95F++75n287vWv5/LLLuNrX/sahx16GK95zWv40pe+xOWXX85ll/8Rn/7Mp3nr3/4tRoNQ88BofpeRQCYDjIBMaqS0bhMoSShDhLGU4xJxGGEyQ61a45nPPJOVK1eS9BI6jTad+QbDtRqlKCKKAuJSiJIVMp0gewkSSZYpMpOCkAT0AIVA08tm6SUTtFoTtMQSshSyrEcvTZGBAmEZqtdpNhvcd/+9bJ3cgkFQqlQIgwAlFXEUuT0sLFqnrj4oHTCil3RI0p5jZZWSbgffBOqK1pseeogtmzdTqVQIwxiUpFwuUy6XqVQqDA+PUKvWCQI3D2V4uARBjArLCBU6rjxfWFYWwsBFZDmIrIAXuyUtiAnnGnN0el2GqjWWLF7sAA8YMuMK5cIIumlGp9MmSXv0uh3SLMEYQ6/XJU1946D1bA6e3cAWD/6jMxCPx/ndS41CX/JrMxpMT3D4mSn//MYJRsY1517aY9Eyw43/ZvnRTYa3fgriElgtIfAEdjlElAU/7tMJpUEU5WP5mxxWZ3E8UBUVsWL1Wt789v/NNX//Hm666ftMbt7KaaedxuGHH86fv+lNvPJVr2TJkiUcuPpAZmdmueiii3w6A4Iw4Oij13LD5z/PMUcfw5f+80uUSiXiuESWZUxMTLBixQHMzc35UF+ybdt2fviDH/Af1/8Hz77g2eyY2sGpp53G17/2dc46+ywHQwxD3vKWt/DNb36zyIVj4Ytf/AKTW7dy1113MTQ0xJvf/BY++clP0u12ufiSSwAHrzz//PORQjA5OcnrXv86Ou0Oc/NzvOMdf1nw7gC84AUv4P9++tM8//nPJ45ipqaneOlLXwr4WcIC32wkCkrowMNA0zSlUu13zFrrkDuluESl7F7XPm0gpWT58uW8+o9ezRv/5xtdsdM3ZH3gAx/kxhtvBASrVq3izW++kjiKueJP/oRFExP8/J57eNvb3spTjnoKhx9+OM973vNYNDHB+g3rednLX06oBFFk+xPKdrcxBL7IKQmDEoGfJFgpVxBCEoYha1avYdmyZRitmZrezpbNW5FCukimNkStVifpdkkT17CmIuHRQQJtNca6PokwUCSJRmtNkoG2IVmSkWUWREgQCnppRhSX0EazY2YKbR2SKIocHNUaRwVjrSWKIoJAFciv4pLypk8j0VY7hyFLMYkzihoLUtJut1EqRCjXXxTFMUpJpFQEQcQRRxzBihUHOAhtECCEJElShFILEUsWBjnscqOQn5IBIoU7rgqpVmtUKlXCUO4Su2UGrB329TVDplO01mRZytzcPPPzc8zNNXyDnCwaW58snOM+YBQ8Nlw6BNKXP1BjfiogVIZPv6tEr2fYsb7Hma+AQOK9u5w3vp+ZW3DM34A0khh8/h+FhRi8XCugEwsMlrKUvPHP/owTTjiB9ffez7IlSzjhxBMZHh7m+BOO51Of+jR33nEHvV6Pgw85mGOPPY5yucQb3/RGFk0sYnxinGOOOYbjjjuO4447DgQcfthhXHvttZx88sn85V++gyzTrF17FO95z9WsPvBArr32Wp551lkAjI6P8vGPf5zZmRkOWHkAH/rQh1i1ahX1oTr//Il/JgxCyuUyf/K6P2Hz5s3EsZtte9hhh7N8+TIuvPBC1qxZXcAXhZQccsjBjI6OsmjxIv+whyxbtoyjj15LjkwWQnDwwQfzyU99kvvvu5+tk5Mcd+yxHH/88QgrWL5iBR/58Ec44cQTsBbGx8a56qqrWLt2Lc1mk8MOO2zB4o6OjvH2q97OypWriodXIHjRi15Iq9lCScWlL7mUiYkJli9fzrKly7j22mvJMu3rFDA2Ps7ExCKuu+46fvbzn9FutVm0aBGnnnYq5XKZ917zXtbdvo5t27axfPlynv2cZztnx408W8h/tGBvCIe4EoIwiJEiQGfad9kvpdlsUi5XSTpdts9tY+PGTezYMcvo0LhTclIhraI533IpMRUglCLVqft8KdAGQKEC6Rv6AlIdkdkySZqgLWQ2JdOCdqtNRQoe2vwQjXaT0dFROt1xDjvkcMIopNVqsn37dtJegtHaRV1xVNQIpXSGVvrxuK6/wRX7hXCOgbYWI6zrWcgSpHEzGHvdHgaNlIooKtNouFoEOM6lLMvcngktgXTpR2s8UGXAGxs0BuBqmQbIMuMNbYQcMCq6r46QAy0zQSAJrWseNX4mfBSFdDsJSZKQ+vN5MoHvwv6aW+pSLA8wy1fF5ILXB5EyOYdR0A258vQJXvq2HsceWOJVv5cSBJZX/12L45+VImNNIg2ZzTACpA3J0KyxVc4zSwkRCE8zuC+mj/oMv5ZMOmz6N5jkbtmghEQLSIUZBNXtsV/LIjmBMU5hAsUgyTJu7KnWhNEefIaB4ljuMeXdmnkzzs5wu11eG8xpPYIYbRY8YAteH3zCchmAlu/2eGbg73bzngVNY1B0JO8iov972BViuKfzXvhhC3/MsgypFPPz834CoCEueaWhcwbTgc8A7pmEO346TdcOwwCVdKglVkIWWCINOzbfyfb1t/Lju77DgQcsoxwF3HnbDwDJ2qOPYvGiRbTbbZrNJnNzDeK4zFBtiKHaEKPDI/S6HZqNeZQAhCCIYqRQaJuhTUZPZ0xNb2fjpo0M1evUKlXGx8ZIexlzc3Ns3z5Fqg1xVGLH7A62T22nl6VY6/pFyuUqY2MjKM8DlqYpWMuyJUtZsmQZYRigjfaplh6tZpNWu0Wj0aBSdmmtKIocJU6oKFUqrlBsNeAgqUIokA5pVC7VWHHACk468WQmJhYzOrKY4eFhlAqQUhCGcdH0KH360BnXgf0hXfooDNx22DY5y/Ztk6xauZLhkUrRZ5jlTlyeFYeig93jKIqIoNFosmnjZprNJt1ez2VJRH/2gjEjJCJmPhghYRyX65ILHN2yhqceAQcdAOVdNnlhynbai+5k9/pIIRcBJIlFWUFY69AVmjiOeeP7E9acmnkIqntfXhyUQiKtRS1Ueb91Mqj77MBrcySkGKLBzWFxneH5mhnH2gp5047o76UB5TmorHaHv97ltcdggPekWB9R4e7peI8wBnGXU92dQYDCc9wT3vxRnd9OfxoETvFdd91H+dznPs8VV7yW5zznOVSr1f4aDxg9seshFpxfrmyslUVHfhCEGG1QOfxUBRhtaDSanqEXyuUyzUab5nyTZr3F/Nwc5VKJUCmUg++gjUZbgxXGdxbD2NgEtVqdMApJewkzc/NMb3fzScrlMrUw4sH1G5memabVbpFmrtibZZoss6Rpr2giBOdMNOebbNq0hUqlQqVaZmJ8nCiKqNZqzM3NMTc3x47pHYyOjbB27dFMTk6yZdtWGq0WUrkpaFEUeWiuKGZMu7SUSxPlX+AiD+saPDxXmUSpwDmUHqrqJs2BtbJIKwkJ2lhKcYUocignnaeZ+tulfw93ijpyaGwcx1SrVdqdziPvnydA9hmjABYZa0Qn4DNvXIEcnieZC/jYOwxpVubAp2pe+q4O0ah0NQXpeVjwDqno//++njp6tCIGvgYcFIACkbWnpRBQOBQL+HwG6v+PW56o+/Boj/ur+Pxf9TUIl3ayxvLd736X22+/jfPOPY///da3ctzxx+7eoD3SvfDGAevm/JVCpyAxlvHxCUqlEtVqzacpHC1HuVwmkCGzM7NMTU0xJxVBoIjDgDCKiOKIMIpQUmGFJ4rUlix1kFCtHSqn0WigZMjipUsJg4h77vkFD23cSLfXBWE9XFY471wojLGensIpSykUmdbMzs7SaDYxWnP/ffcV0VSS9KjX6gCMiTGOfepxNJtNPveF/2By+3YynTE0VKNaqxEGoSscR25CXC/pIpWrFwWB8vUit7kFBmMy8pkUlgxhHZDB5pGCsI551gMcbAa9niaMK4ThwICjgdRRv2C8u1vn6FCCQBH5Gc6DzXhPluw14zgfUSzotmT80Dbb79ckWyQTSwy9LRFSRTTuS7GVOYwJsSbCoSC6KOm0mPHoFU8/85hmN/8miAPnOnEr4hRE1ciFUWTuvUjPJe8Z3ETu7vyq7ud+2bPkaQUMrXaLz93weW787xt57Wuv4PLLLmP16tWOtPBR6gtX1M5IdRdNRhxGSOuo53NuHvCzl40gjEICEaBQ1Ot1hkYkykCn0yk6jV09oZ8HkUoShKEzFIEiCCRSVgjDEuVyCZ1Z7r//AR5c/xCNRgOdaVSgEEoBwitAEAS4jmHtKSGMp5RwaUkpJZnWtNtN2u0WpbiENi5lqpTCCsFxJ55Aq9vmi1/6Itu2T9LpdgnDyNGiJAlpW1CtxaSpRhCCCAjCCBVqhHBUKtKE7rrIC5AGjMH45yD3jax0SEZjFKmxzLUzqpWqn8mTEogEdIiRkcvO5A+hv33FsC+BT22DlIErikcR7VbL//rJqyvsI5GCxRpJXDH86admkEagdEA3sWxeD3d9R9J4KCRtCaJRixAZVmZgM4wvv+3XYQulrEEoyRZpWL6HAmXBlrqnfPr+RX1iZJe1tXTaHa5+z3v48pf/k8suu4xLLnkhixZP7AZGsdNx8jqPyMh0mySdp1xxCJxAhYyMjKGUayTLG/OUdH0cQRBQH6q7obYGqtWqU4zGYvzgqizL0J4pVghJZkxBUqczTbVWI1ABGyc3s2HDQ0xu2+4KrdLtrby51JHZueJxn7TRFZKLAVnWIoMAmedrLEVuxgIqCIhLMcYYjj32OObmZvn+97/HXGO2OK7rdzEF0SG4Ok25XCZQAaFyaDNchsxvfUE/o2/BczBpa3yh2zUF9jJDo5OCMvS045xSQqEIMGbXTMVg0C1wn5dfWrVSYXhoiGajgTGpY0MepGt+AmXvGsf5CAcxWhBHlgDJg7cLvvzhgJ98U5G1K6xam1Af0+4hEakPu4xPIVnfRbhf8lWoaoUxPbZkU2Q7UiTCzaiQLo+aF9gG2Uh3KRTvlydEjDV0uv18cq6kLJYf33UXf/Hnf8EnPvEv/M273sXpzzgTsyeExABCzSliSaVco14S2EyjpETYDK3TAiJr/CQxJRQqCAiEmyesivpFfwZIZhwyhiwjJ5lTytFf5wreWsvGjZu466672bp10itlF7ULZR27vcwZSimu0ylj56xoo/umzyv1nGBO5iyjQrjzDQLiOCJNU04//XSSpMf3b/oeYZh3Hrv9ndfJEJY4ioijCCUccZ6DQQs/8Mcbr4FyjutsN6RJQkaGFQFGBHR7KY12j07SZPGEQg2FWJ0SiwCrJMq1LCx8dgTFtQ9CfqI4pFqrEcUxmc7Q+leTsX00sm9ECtZjfa3l5utj/vtDZdb/KCSqWrKG5cwXJ/zeVVMEGBLtLS4SYQ3Sh35yTxju3yJxW1xiMSTSctO3vsu1r7qS6cntZN0eoZDF5s/ZKXcnORIj54pxzpNduKv3y8NKUbQf+NnNUbbF2NYFYh2mXQCdbodbfnAzv/u7v8v5F1/E77/kbcRymB47pUWFBwkIi5CWZUsOpTx+ANj7yHopaa+HyXp0uk16njgu0SlZkqB1hhW5gXAKMkszpFDIwFNAaN9UmM8uz5E9UhCGIb00ZdPmLfz4rrtY/8BGQBBIP2SzUOb903XMsrkxMX3f3Dp+IivwHc+GzLpYxfj8vsU5NEZAs932zYMlzjzzLJIk4d5773ORgYYgdNyoQgiSJCEKQ8d/IEEIN6/Bfa5rfXXYCo/qsq7egDGYTDPbmCXVAqlKdFLLfEvT6rUYGyljjAO6VJWgXDWoIOdNomg+F2ZhVjZ/jiwQhpJqtUS320L4Bs4n4xHba43CgtS1cN6EDODf/qpG42eCE/+ow0kXaP71z6qMH5hRG7G05kI3jjMUHmOpKCeGkpTYQHovh8c0bGdvkjyraASkyk0kjXtQ1aDD/D27R6TkDoqk/74gdMNAdK/Xf7DozwKA/msLj5UDt3+pET/7BXap/BcpE+/JCkThDYNbc5nvWwuhCml12txy060cufZHnHjKOdhkV40hBAjpUHuN1gy9dpNKNSWQgiiOGV+2yBevnQHQaDqdDo25ObrdHq1Gk6TbQxiLIPGRhKdnkOTV4IJ0TwQKKSXtTocH1m/gF7/4BZs3bynOxaWL3Pm4lJBzlY2vxrp0jPHEfoPYTQCJySMF7dNNQlOlb4YAACAASURBVCF8+7EKQreCIi8YW0ZGRjn++JPZvn2a2dk5jAHpBr9jtaHTatPtdFEqIAoDn2bK0dJ9umtyviIhkH4GQxQGDNdq9FJNkhoy5WogaWZptppMiTahFKSBJc0sY3LYU5xbilIFor8N/M211rh7HChK5RJSKqxNC/TYrjd50CETxb+/rI7ba40C+FANAIuw0GlJjnt2l+/Mxtz6kTo/+y9Np2NIE0EoDNW6JcFxm4CjMgi0a9Lq6IxA+7zkY5iyszfQ2xZUu7itroUlxXGyBNpigv4GeLizFQPvklKxbPWBXPjKS6k3M0KpENqSGd33Vjz3+6AJdd5S7knZhR6v2DeN7ZMtFnw04H4a9P6EVxq3r1vHD35wi8t9W4seGL8phfPEn/HMZ3D1h/8ZVZrgR3fP7eaTvKcrwWrB7OwOph5cRxj2KEUhoVJMbi1RrpRQSlKr1RibGGXp0mUcdshhdDodV1Tu9UjbXTcroNWi1Wo4OGqWQqtDkiUY6yLHOI7p9nps2ryFn99zD5s2bUJrjZJRMZe4j8+3SI/IydlI8z3l9qBBSEmOn3czLjRpmmKMRUrV33NWEKgAJV3qymJRCnpJ6ovMsa9RuL1vjOPSqtdqjI6OFtQaxchPH50If8KZ7dtwKSTSDycKoxgjJBZJYiTtbB4b9KgPVRkeiiiFioosIWnT6/Ucd5RwiCelfEJuJ/CGELbgpyqXXbNmNxFQOLO7CxfsQC1KPC6rsJcahb6HFNjcQzbI2PL7f93g7Ms6rPtijfu+XeaBW8v81/sCGrMRL/6r7cgoQ2UKKyRGapSADZ155ho7WDntZjuLnazqw4naXXPUr0EEgtQ3+iBgrgTNSJCOl7FjAi39A7eHv98ZYBR0O6xZsYzzr3ony41ASflb3s3xa5KdWTKF85Tfe/V7+d73v+tpng0ShRWGchhzzjnncNlll3HBBRfQtpJfbDZkWYKwNYwQWCGwEkp0wQhMqsCEbN38EHfe/h3CuEQkFPVqmUrFoYPq9RoHHXwgw2PDdLtdtmzaTKvVYmxslOHhEcpRBaUiAhVRrlZR0tFj9HRGu90hTTM67TYbNm7kF/f+gvvve5CNmzbT7SWEQYRVuLkOwkXx1qecfHsyQgUu/WPyArODzTo16GsXuHSPzUAJ5SJ+30nmUlISKYUHzDnEocU5hamxfrZEziqbgVCMjAwxXC8TKb1AYTu/qF8GVjYf8iMQVrsRqEDOnmCsJVCwYkhQ1ymjJqVmAiILwrZcjcRYDMY35+H4jdi10TOvxWAgDkLK5ZhWp+3WxkqEnEMgkdk4QoGylsBPlNQCtHQxvP0l1fteaRR2rgn7MrPL60nD4oMSzvmTOU5/eYu5TQF3f7HGz2/3XgCWTCRuo9gQARxYGmZlWGakJt0UNuvaEh85CBADbIi/XhHWooJ+SNAOIVFwbzbDvG7T2XU08G5/dsdyRmVIOAq1QMjdvOthZA9R7K/s/b8t5wJ77OrOU0dKSqQKKYURq1YdyFVXXcUZp5/G2PgEIFEBPt1UHcjT5+k/t8+tEG5MpJGkiSbRPbq4Yna2tUcpDjn0kENYdeDB1OpVHnzgfn585484/vjjGR1bTLvV4hc/+xmbN22i2+4QV2LiKKJeqxGWYoRUWCxzjTnuu+9e7r//frZumyTTCcoNiXZjSgv/amGKUiCK4UAFuME3iLlUFb7DOStYWEURbrgII69FuDnJAUanGOtqX0lmyTRoK0EGaOMikVpcYnx8EdVqlSiKUEp5gj3hEEZFRCwKEkVw60nuqOLAogaNxDIxWmbRSBW0RkifJhID3we6iY0RoPqzu91a5FxHlpxU0fE1KXS2eyC9HQTSFPtP/NL7fK80CrsVYUC5G9Daoeg0FDoVxGXNOa/u8LzhBGMhNcJXb5wnkQpDNYhZVRojrOAI0azYbQC2O7FPEgzskUS58laRZ1WB8wpUp7Fg5vSj3Qfajasm8p7qY9o/j3WzPZGR1r58LrDr1vI/68w3cEnJksWL+Z1nnc/b3vY2Fi9a4mgmvAQ4z9dYhVQWaWVB1yJ9Y5kQObVHiJQhGtd5a01KOY45/rhjOevss6jWazz00Abuf+BBVqw4gNWr16C15s477uS/vvxl2q0WSgrGJsao12qU4hIqckR1SZowNzfPhg3reeD++9FYRzCnPIpHesXvff+8CS/vMpZFilQUCl8ITypojJ/ToBfUYlxEYMBKVOCoMbZtm6TVahHGMWEYezptU1BJuNSSwBhLGEYsW7aMcrlCEISEoaO3QIDQxlO24wwqDjVlrLsnFpf68mXn4pwkFoRxEQvCGUIhcJfbT7taq/17dhOfW7zTaglDNwI3CALHoGoEj0YfPZ6i9D5hFEQeBArB5rtDbnjjCJM/l7TmLUHJcsTZKee8XnLgUy1ZJhw6IlAYNLORoYshyIxrYLN5GWlPHyZ2QtH8+g0C+I00oAxKbqwujRh6v+woOTHQ0DbgreyXX78IKamWq/z+7/8+f/jSl3LSCSdQqVYh9YN+ch4evNLXgO/ONXagFodLyTgDIQb2kGB0dIQzTz+Vk086ASUlGzZsoN1ssPbIp7BsyVJmd8xw5x13cMvNt7BtcjuNxhxZmrB162aiOCbNMiyGOI5QKqDb7bBt2xRGZ252Qe7MYwlxZIUIWdjOIn8vAOFRPlLhWhgyX1TOMFY7gjujEdZihPH1CY8Uku617du38ZWvfoW4VKI+NEKtNoxSina7TTdJnD0pMseOTmJ8fJxABQRB5LqQfdFWCInwRXUjbHEtwuR1NbDW02KAX3OXzSje4D/HNd/l92qwjmDAqtwG+PfniCfXoyGlpFapEAUhXdt9UrTRXmkUBpWfsLlzINBW8IWrakzeLzn7Sk08LOhMW/77vZLgWsmLr+khlOkXiHA3yrd+FCGqfZieBVGgAfYOY/BEigCCgeKwQ4OwV9RQfitkD1tMWMHRa9dy43//N2uPOopKtYIKXEMZwWBh332TnsPFDj44FlLr8viJzYrhLq1eiziusPLAAzjvnLM56sgj6LbbbNjwEN1Om4NWr6ZerTE3M8vtt97GTTd9n5mZGVqtFiCo1+oICc1mg2azQaod/38+ocxoSxg4ygrp8/2OS8ulsqQA6zuUpcyhzflXn3ROWovRGqudUTA+S55LTmoYSMduKoWg3W6yeXPm2E41rlYhlIsClCSKQkfJYS1RHLF40SJqtbqj7A4Cl+7JF09Kn0ZyCh3pIMEoO8An5dffu63uvPwRBjqX3URIWURFDHy3wtGKOKZbs2BP5NFUGEYFH5Qx9gl/PvdKo7BbcWBhdmxQnPO2hNNe4jlJLJTrhm9f54Z3y8iSWZfjc7ALZ8WBPHBlwcoPIj98567Lze70y99AEQP/LpDf7Mve60VIwbnnnYtAuKIkduFw8dxw9+ugKAWJXehQGeGRPVahlEGFIbWhUQ455GDOO/eZLF+2lEarydaNm0iThJWrVlKKS2zYsJ4f3Xknd/34x3Q6HbTWjI2PenK6OdKeG7qUZmkfEuI1pFSqaFyDQSXYTxchBlNHsvCk3cAi36egXZnYWJ/GGej6clGCQfhmM6EkgWdWxboJe1rnk/YyR1JXr3m4q+tgjqKYRUuWMDRUJwhDZJATwdji/PxJIn2ncRC4ORQuhauKDnCbf9m86Q5sYWA80shDXfOQoDCYxZqIIjLA+qjKvz9QinJcQorBzuonTvZ6o+A2udv5mVD0EqiuEPRSgzQSYSTDyyWtOUUYWVIsmbBe/ftEohWuau+fGCPswmJ2Xtwa8JJ3ySLtl/3yZIlwA4zA02V7h2gXfZAroL5m9ogWJ1oahA1QBoIgpT5U54STnsm5555EtVxmZnaGbdu2UY0jVh14IOU4ZHLTRm5ft457772HTreDUoJSOSZNBM1mg16vQ7PTJM1Sl1vfZdCAMwoC4RBGMi8A9xWtHCwyCw8DxZHfCVyRV1uDNpk3Bv0vi4sajDVIESCVJY4jwqhEEEdeuVrfw+ANkpRIFbjoQiikUoRhyKrVayiVSn0FvMDqgmt2siC0rzW4axLeIlvfY1FE2tZNz+tnGwZSRsIWcGPoGwKHYMrXw492G7DsSkhCoajEMXEQkma9R9w+j1f2SqOwc43dO0MoJN1exEd+x78qXVGHQFFbbl3oJjXWz2f2wAW3sawoDEG73UanWT/t57tzozB0c2v9SL+9oUdhv/wWyoBGKeiyd4d38DrGmP4vil5oIRA6QgBxAEoajj7qqQzXnko5nqfRmGPzpk3Uh2ocdOAapLVs2PgAt/3gZn56991kSYqxfqaAUrRbLebn5+n0em6KGn4SmnSU2XnTne+W89UM4dNI0qeB82hCIKRy9QPpui7zUZrgamdaZz5KsGQGXziRDjnoe2ikcIXzIIgJgggpIjydEVJKDI5AL1QRSoVonWBlAEjKpSoToxNUKvWiyO1E9vOoueKxFNGDLF7sfytuhxAFp5LY6fXBXh47WEQoig0L72txzwXIMKJUqROVKph2BxHIfvrjCZC90ijsTvJC6PEv6DG72VlUiSs8CWB4mUZJQ0Ze/LH+/wQK3+kgIE0SGnPzbuwfuNZ336TVxnkVsR8LGMfxnrn098t+eaJlT8/9gNLo102dZskLzc4weGCFBWsU1WqVcmzYsuUe5mZ3sGzZMhYvXozJMtY/+CA33fQdHnrwAZIkIVQhpTgkSVKazTbT0zO0Oz2XlskDcMAiC4Xn4KDuBIueASl9zl+ST5grUkwqcL8Xvi6gAoxJSdPEGQTj0jLCJ/WldMOxpNHIQHnUUFSgipxDF6KtJdWOmM8a61lUncLWWYYgZHR0jKVLlxIEOzWPFWu+k6Hwrwm5526eIipQu9cZu/MxH4l9x1qXGiyVykglvTHsEwU+EQWGfcIo5MZaSZhYZhkaAo31jopBKsHYKo3OBCZw3obAhZCB/ykRmlgGZDojEDA6Pu7znha0dXzwSYLWGqMN3W6XZqtFKY4pV8ootb+1a7/8GmV3BsJorBjYl1YsTHmKFGsjrAaEYm5mGzt6s0ilWXnAAYwMDZH2Eu6+68fcse42Nj20HiksQ0PDpKmm1+0yP9dgavs0c42Wn3Ng0QykW4QtFLdUgYsChOt9yZV9XjvIu5WlcFQUjivJzUt26SVHvqc9E6slHwxkEd74CCCKyoRhyPDQMFFUIvQDd+rDI4yOTVCuVuilKa1Ol1azRbPZBuEazLQfBrRs+XJGRkcKb3xBV/lgzaa4zj3fBuirZrG7NN/DiXDZop1V+0DJGyGgVIqolKsgBVlmvOF/ZKPwy5iMvdIo5Os6uDAS17n3009VmXrA0JOCNJE0pwOEECw5OuOYc7pE4xqNRBAiBWQkuCYTi7GZ6wAMArpJj0qlgk5dd2IQBG44uP+8Xq9Hu91mvjFPq92iVq1RLpd3P/5xH5PdbcL9spfLbtML/TxTThi3QE/YqICsArRaCbESHLT6AISxtBoNfvbzn3PbrbfwwP33M1QdIogkVim6nS7NRostk9uYm5snzUxRUNW5wrcitwtO+SuJUM5AGBX4fLkcQNe4kzE+XWuFdM1tEkfjISDVGZl1STArrIOi5igfYQmFIAwiakPD1IeHieOKqwmqEG0lnSRFBBlKBYyPjjE6NMLmyS3Mz8/7RjiDCKA+XEeFIVL5+cl5jTlfPtNfN+uz1Lvch53vx+4MwiPobbFzWlAM6L0BBahCEGHMAw9tZcuOFiPja1iyUrrIyQqk9RPlrEAJEDb1SfT8BAc/5OEx7HulUYDdWE4jydKAP7h2HptJku2CG/855OZPKSYO05z7miZRRWCMIpAOdZAXtITvdBbGoBxUmma7SRD6EXtYhM4/1UUYURQShsNUKhVHENZs0Ol0KJXLlEquKWaXOcS7Oe9fleze+ch31M43fR+XwXB+v+wqxboEBALiCJSwSGHJfJHT43Q87QWIQDExPsSSYUEsLNunt/OjO+9k3brbmZubo1oqUYoUKpDMzc3RbneYnt7O9PQ2n57pl0/7AEzvqwoB5NQPHlFktYsKwNcW3Bk7XiP3mpIBSkjfl2CxWoPJENaPwzQGrEEYUyA/rBQgHOmeixgUYalCXKpQKleJ4ypKRkgBnVZKqz3L3OwU1kgEGqkMUVimFI2SZSUaXY0SDtpaGAVfGsl1fIFe3Cn3nyvt4m9w8xfyp9EyYKgf4VbuYufpRwkaMAiC0hAbNze4ad1NrFo9z/kHnuHWx/+HzU2A9PfBOCjwgg96ZA211xoF2CmrpyBUgomDLPffJPjYG0K2bwg59Q+6XPJ/2owu79JOBFlPEJYzFAI3Ysd1Nbs7ZwkChZCCdrvtZqGWq+Rt9rmCdevmPj2O3cSmWrXK/Pw8jcY8vW7kJ1aVijm8Nv+TJ0iR7YkyfyfX8In58F+DPJEG9jdG/CJFIQTSedJIUSgj691Qq1zPQqkSUI8s0zum+cHNN/GTH99Ft9tFIahWa5RKih1TO8h6CVOTk0xPTREsmDP98HdE+SF+rgLgTlAwoLS85GVoJS2BkqjAEd31egnWdzDnHXjS5gxG+DQTWGuYb+6g1ZkhDC2l+gjV+hiVckylUiOOy+4rHKJSHWY8g62TD9JNZlFBSKBiul3Bjh09SpGkVIZySYFx+XupHIbF99qRNx3v4tR7A5CDZT07RaHMlehf655kZx29c0CYHzsFaiNlliw/mMZ3v8ZsYwapLELb/ol5Pm6BdbOk7aBRePRP074xjtO6QCjpwr//jeEb/79ApIZnXdbjxHNgyy8Ekw/FrDi6R1QSQOznQmks2uftLMJDzGrDQ3QMpElGInrEYegZFxfGf4MAgSAMmJiYoNvr0phvMN9o0Ol2qNVqRFFUvNkOxJniMdyIJ1P2N6j9hkiurw1gtKOxwNE+6J3urwW2tofZ2h7G2jUsOeEYFh3XZ17N5w88Xik4jQZc4KJrefB8jKfRHviF9dVrR9FgC6OXE+O5YTx2wfvIB/AIvH/sjIdSrvdBa0uWtInjKp1u09FtBB2Ugju2NNC9UZRylBL581q0EPjPz5klFsDUB67RDlxTEaPlv7OD7/gl1tM7s0q1sTZl5IDDecMb/xGlIoRSCJ2bDbFgFooSEKr+5+b1nEcje3WkMChSaFqdkB/cIJGJAGu48aOKG/9Jgqiw6piU//kfPZQSaEKMFVibYKUlwOOffXFayYByuey41G3XsyO6QT79KVC73khjDVEUMzYekSQ9GvMNpqenqZQrVOs1VBC4oSbWotQ+s7R7pey3WXuQwYXx6Y5S7PP6wqCEekS0ohCuS/ZXHVnmVOsLDutTT3sMaHdOxwweQyx8w+4GPwmpPAzXeBZWiRECjUvlWGUhikiERkRuTrJVkgxLpjUisL4hTLrO8OI8KAoMIk9vWfra3huqhcp/pwvKLckvK7Z/LtKGCBQycDTdGovWmTNyRnij6JzffDBSEIj+ZRS9EI8s+8g4Tjc7oDamefctlqyZsWiuji0bejajW512TfBG0OlaglD4Apef92odaZUit/aOaIpSiV6nS6Mxz8jwCLaYD/twJ+0MSxzHhOMh3W6X2dlZ2t0OtXoNYzVSSsrlMpGMeLKGbf9Gyf4le3TiH3KlXK+CS9UE7uVHtYZPjunNFXmRRhH91xaeZ38+x0Ll31dogxPb+sezPhvgOp/z94jcO5YWIQzGdxkbIb22FUipPSzU5YsW2K3cltnMsZCKgcjGKoyVRSSz++t+NEzMDy8i/9fGgJtV73o+BNb4epF0g3+MN1ICiCJBGKrd2dZHlH0jfSSM4063htmNgpv+b8ht/5XQ6ylkLDnluRWe8aKUkaUCLSVWZFhpEZ7zyNJv+XcNbm5ISSAVgVTMz8zSaDSo1esF38ijESkllUqFIAhotprMzs2grWV8dPQxHWe/7JfHI5UyTCwO2DQni34euRca1sEUhitb/7/2zi1Gtuys779vrX2pa19OH5uZOWdsjwM2NjKMn+KLsGJjCxFEJCJFScBRJD/YD5ZARApSlIfwgBDioihSQHGQsIXjNwRWBEHCNg6QBCuOhCzEYAuJi21mmHNmTnVXV3fVrtp7fXlYa+/a1V3VXd3n9Onqc/ZvVNPVdar3XnvvqvXt9V3+35KWr0smr5MvldtQVd9vJfRViIJoZGWEyv1Vixf/d4UzwddTMzaAqEOqaIg/kX7u8LHJU1k7J9zD9XN+Xh+v4BWqNrPe5RLUWm/UKFdUptJhMoIXiBZDr+tot0oDttbGK26Ej0PUgBPyieFLv5byP38j4sUPF7R3Zwz2hd/7VMLhCD7xMzlHoWxNKLwqKr6XqwnqqIoiTqsWgnEc0ev3GI/HTCZj0q1txpOxjxOsgSokScJueou00+LVe3/PcDikKAp2+jvIhROXHx9ae8AZdxSbOfyGgAH2bie8OiqwqmgR5Jwfsw/uQgoA9Tv9S25LJMjJh0rqvHQjLbhyTt+cGQXkdN2RMUpNM8QH6rWU/D75JTjd22CFV2w5dS/bGl4mrXpER9WeS6OSG2EWOWJVzFToxsqzfaGbnjeI5dwM95H6a5jPDH/5fwwf+qjj4z8/8aqFxvHZ/xjz5d9K+Of/Voi7zpeam5lXSNWCWAWz5DKJgLER3U6XfJYzGo0wxtJK00qFcb0DFIw1pK2Und0dsnHG8GCIFEK/3yeKoo11I50c1cnfG9/+ZqP4LJc3PCN07gnjA8Ga05kyTyr+LrtsfONQtfPZcgWr/rlQECkDxSFrSBRdedu/vOmN38D5Y7/I+7WU03b2VJ2RIjhjUOcVa+MI7jwXhcLdi3MjVgpl1Wa7n/LgXsG7vj9hNrW4wmckvPDOKV/4XIILHZUcMxwzcJao9LLWxKvKE2XEYKxXQexvbRFPJuwPBnS6XXq9Lt7neP60qKETh6pjVuTc2tuDwnEwOOTBgwd0e11aaQtjy4biDQ2PBj8V+rTUu89ajoZK4YQogvEZc9aThKMscCu/q2d/Z9da0Mjc9aIX7Ux4ZSzGKKp1kOLTaQVaieP5u5Z2evmZ5kYYBYIjaJrlPPcPUv7Xb8Nb32no78G9b1t+/zNtnn3eIZqjRY5KHqy8wTr4JsdB/2hxEViViQvEUUTS7+NcwYMHA1SVfr8XBLtWnF6d+0lF/QVywYikaYvdHcvh6JDBYECSJGxvb5Om6TydrqHhYQmuh1jgzjMwGQnf+huHE2H8lCzzDPW+62u8/4Jfvc35rga155ARJYCEBAPjlCJz3H7OcveOXeI0W58bYhQUdWDE8eIP5fzmf2jx/77Qo7fnGH3LYtIZP/YLY2zkTaZYn0vmddqVt2lvIdDkF1xUk7NWP5VOu4O9bdnf3/dxgZ1toujs0+RT5XzKatnOT9URJzE72zukacr4eMz+/j7dbpdOp7PgT11157IpH8WGzSZkTpJaeMtbYXIsvPagTKW8on1u0IfT5/KXPoDzByZLnp1Ga8826GDLYww/IvFi4g7lzrMJL7wgtCwY94SvFER8g+woyfnARwtu3y34q6/F7N+z7N5W3vbeGd/9HoeNhELKCkgfmClQjsgpcJhwuIJWyrgnL3kc5LNFhNFoxOHwkH6/j42iYJ3l1IekLNjR8LOeWWCModvxjcFHoxFZNgWEdppSFuSsCrhdVe3bSZ/kU3JD+cQiqE+3RujH8Pa3C8lfKwf36/nzjxZD6Ph23U1HxIEr24yeleo496V5l4thXaMwnynWGM4ZI7j8+7Wqm5DSX6ReMTYuhDQx7D5jedfboCsQM19JXMaDuJFGQbTUVfctNgQwheByR5IY3vG+Ge/6yBQbB8knVawN4lmiFIzxp2MbxIU8JHDieygEdd/qSnh9EqkmfCOmEr979d6rHB0f8x1vfKNvfHJiNi0ndBXlYLTP8XhE37bpdDrgfOcoUNIopnVrjwcPHnDwYMCs06Hf6yEFiLVLg9qVMOAVz9oL2UcNNw4b3KLlJ+hWB7a/R3judfj61/+Oo4lhStsXeRnf1rYs9PKInyS1vdb+yhpaZ8Bde8+Ri6sXVzJnZ7IpcYQ5AqQaqtCdklhDvyU8+5zhhRegDdV8WR7fZVKTN8corBi80WAkRLBG+NMvxnz+P3X55H85YPu28uVPp/zdN5QPfSzjzd9X4At4LP6i5jjNg1Eoswn8vlYtf32Vom+MnqYpzz13h+PjYwaDAVvbWyRxErKJwqBLw4LPDx68PiA/zJlsTyibbtS1lPIswxxnHOY50yyj3+t5A/IYaWQunjxOXk4D3NoR3v3uu7zyquO1QUaBMs4yprPZXK9H8Ln5ata+vS0LpsSYNfLxl63Hz3h/VVewbub++tu/yWMh1GMkztJqG1otYWcL3nIXkqA5VRoEqf3NZdgYo7DqszV3rvgMot/51ZTxocOIEiVKe2fGn/1RRDazfPxTE4oiRA+MRdVV4WWfc1zOhqszpBcukvi+sa1WizyfMRgMaLVa7OzsUhQ5cRR7WQzng839/hbP332eqLB0ko5vA2jmd2POOWzaxs4ihlsxeZ5zcHDgG/ok6cJ+GxrWJnxk67k3AkQW+h3ovWC481ybSQa56zArwsQuc12f+nbWIojFbai81xOJqE8oSCKfbZZEkEJNIrvGQ3j1NsYonI1Pvkqs5dt/0eYTvzTizltyjmfC+//VEa3bMZ//d31Go2N6/cjro1O21HacLjxZc68heBVFlt3dW4yPjxmNRgwGD2i1Wl4qA0KPVyW2Edu3domLCHFyYunmayU1UaTXpVfkFHlOJ8+5f/819m7dotPtnK7wbGi4DMJCnvpWCv107jU9VbR4AUq3ZmMPHj/lNXMOrIYmb494yth4o+Dnd8WoMp3Azhvgr74W830fEtK+cpwZXvoDi8QFcVRO/2U9wDzMcl4G81krFWssxhq6PS96N80yJpMJRVHQSlvESYwW3idlSl32UxdKQUIDc4E4SohbCeQFiDA8I3YdCgAADndJREFUHDKZZj6obe1Da6ZcOYvVMw0bRv3z7ithqZIgYLEfjHCxSX69aoCGq6AgrASl5gZ+xIZh440CodQcFGOV9/7wlP/xn3v82R9Z+nsz7v21Mtqf8uFPeIVU50xIT3MgilW3kA10Vjxh+f6r/yEidDptWmnK6GjE4eGILMvo9frYKHSdCvsyy2b16tvph+ec9+y2ux0QYTAYUKhjZzukwW7wquF0bkbDRqELH11g7mJYZgD89SxYB5/OHbJ31v2IXnRpcZXvv8FjKb3RVU3tFUwRm28U8KmezgnOOD7wL49QV/B//8AyeFmJXcGH/3XCB3585tUQXRE6fVhU1SsZhhiCKSflJVbBC+6dvjql+JRzpbiWBBXUDpGNmE6nHBwcsLu7Q7vVJptkvk5Cyus9v3oqtdu1quWg/7dWp81eZBkMBgyGB2xtbRNZ28y4DQ+H1j5CJ2IPdfxrl+hDft7ns/yqrZvMc5Xvv8ljCTyO+pAbYRQERYxirfDFX2/zgX+a8f6PdPjKHwr/6Ee3Gc0m/PdftvzYzw0xqeL7i/t1lamd9WrZe8kTW/n7JdQzRBFxkqCq3L9/39cjpCkuioiiCFv2c9YT26ivGMrX8cJ62zs7HB4OGQ4P6Pf7VdyioeFGctGbmqt8/00ey2Pk6pNxF3KkHo6ZKl/9nZjjoXDwesRXvzwljSPuf1v50y9Z4sQLQvk78LkM7sJwdD6khcfamWF+Ui8NhDHC1tYWe7f2mE6nPHjwOpNs4l1DZceoKif8LH11L4Wbpglb/S1msxnD4SFFsd6SvqGhoeFRcPVGoZ7mcCl88LgwMHUgkpJJRu4KpqM+STImMoZ2NyYbWzTUJJQxBRXfqWhhiw+5BPOSGH7SN8YXntkoYmdnh1baYppNGR4OGU/GFK7wf6H1E3H2AJI0ZXdnl6IoGB2OyPO8tsI4eXauB9H542p3tOL5Wa81NDRcms0r26shJ9wsIoIay9FhDxP5O/DjERjj0FlE0vLdh6r4lxoEE2R1S/sk3kjoicclZhd1rgrmJXFMmqbc2tuj2+tSFAXD4ZDR8RHTfEYRGmG40CvRN1Zfve20ldLv9ZhkE46OjiiKYiFdVQEnGmq1n2Ie1eE/5aexoaFk42MKZUqqqDI5Eo6Hwn/96DYkUxjDT70/AlJuvzO4dRC0dOWLwS7cYEupoL3CBFzCMJzI9atacSYJo9ERo9ERk0lGu92inbZ8nIHz5iAvsNfutFFVhoeHRFFMq5Via8FARYjFXDiD4aT20Y3gxg14gzkvhfEKM1s2livI97+pbLxRMGFS10KJrOODHz9gNra4GZCDjRQtYPsZR3ZgiHYdBTGIJQ7ZPbkKDoMR37quMMs0QS4e/CjjC3LyVfXGodfzQnhHR0cc7B+QtTN63R5xsn7wuNPp4FQ5Pj7GiNBqtRBT1XjTxveMUFWKh5w4T56S6nsij8FNtIq6x+0qDcOTaHSetgqzk8bscUz0FzWgN8D4bLxRgKDGKBD3lB/5N4dILqSxoTg2DF+xtPsFye6Mwjpy5xuZU+UdeZE8DfXNqmXj6/NZP9V4+daMMbRaKWmSMB6PORyNeG38Gu12m+2dbYyYM//eD0LodrtMp1PG43HoLe0vm29T7p9d5JN2Y7WPNvzLdGN4Us/jdRzXRfd5A879RscU6oiBIoc///2YX/wn2wxejvjcz7b46R/o8hPv2+FL/y1BJNyloxgKDEVor1e/daiyVc9+PNKxC51uhzfcvk1/q0+WZbz88iscDA/Ii7w2tmUD8DIbvV7XVz1nk+pwyprtojIODQ01Lvs5fujkkA3hIsfwJBzvI2LjjYLRUP7lDBTw+Z9NaW1l7L9i+OPPxnzwozPe/eGML3+mhY0cUaQIM5QxSga4oDUPUO+jcA3HYg3dbo+923tsbfWZjCcMHgwYDodMp1M/PvEtQMv/wAvpxWlKt9tjmk0pXHFV9quhoeEp59rdR0qlYlH9Xp/oCgETsoicAR0mfOQXh3zjK5Y2hn/8kxn3vjnjV/7ZHocHlvaOb91ZTZgKKQajBkOIMl+j+0QEoiii3+/T6XY5Hh9zdHTM0XhMksQkSUq73SaKLCbEClyIU0RJzGw2Q50uFJ8anZ/Dh1GtbAxMQ0PD1RuFNQIx5Wq1TO88mR0kRoK2nWIi5Wu/HfG3/zvlu947Y/9l+JNPd/iON+fEHb8Bn3QaAcIM56UpamNYlJ941Ky/Do2MZbu3Rb/dJZtkZNMpxXTGYDLBJjHtVqvSdHdFQZZlJHGM9UGTR7LiPessNEaioeHp49pXCl4LvFZbAIvPmRuMyCrv+9iY3/25BM2FH/hkxktfsLz0uy1+8N8fYRKD4jDqg8oFhhxHDjhVrPPFAU7CPq+AC8l0q3dnRcYSdTp02x0KVzCaTpjhGE8zptmUvMixDuI4otvtVtlHDz/Wcyb+xs/a0PDUcfVGYdXEEmZ6i5CGtMp86ZsVxeFCbuQHf+KYf/gvMuKWI+nAK39uect7cu68OMMAhSvDJAaHMhHFhNBzvUtUsXJgZ0lRnI+9wEQqgLiwTgpNVa21bPf7FAJ5njNLZ96gWYs1hkh8+9FCOLfr1Sq8oIYQYaoA9cPqQjU0NDwZXN9KQeY/UgyRBqOwdKJTxApFAVaU7m1wM0sUO9704pSsyIlsEP41pqrOKlM9I4TQ5iAUr+nqdOGQvgpUxmE9cQqCZPYFJ9aqMZv6XwwUrsDhdZXSVoJTH1MQEQqdr6y8ttLFKPtQC9AlaoLVDQ0NC1y7+wiBBEOEQXArgqV+tRBZh1NBJEIiJdd5bCBHUfV91vwrXkguCXGFgUxpq0XwE3ekvpPzqX2JVA1IFL+iCNM1IssNQxnQlhAPcZVZOZs8yFR4dxbMJOdIinDEftXRUksLf1xOhSJsuxDIKSh0/WTUMqNJw299os1PP2toaHisXK9RCDPnFi3eoC2meowLd/IuRJ1VyhItxZWNYcX3JhAcqjlC22fkSAEyDhv2ekYRwquS8UV5FScFQZ6OHK1cSPVpVWrxBss8QD2rejyffSxmjahCuZKYSsGexiRi2ZcpCd5oOdSbSFVyHAWKVUtbDYkaMlU6GnOPY5KaG0ll8VjMiSm/NApOQDAkRFjqHR8aGhqedq5/pQA4hJ4kJC7zk2B5x73gh3GUw1VmNTePRSWnVEX199RlO05FMBwz4wjFrAgwz0UjZMGtVIS9Vq6oc6KyClUK6ZnUXGevy9S7tIAjCuIQHLeY4L4qDVfBlLz6u5GbUohybITiRGX0fJKXSoZDCDUfAkYMXWJa5eWv1/Zdf1JWQ0PDNXKtRkEV8uA6ebNs8S2OyHGIGAxuxeRaOnYcULbenDKf1Beb6khwPfm/nLtflg8oxL+lNA5aa1B4roSd32dY6VyUckx5GGsRfpb38S6IAiKlK8tgjCEXBWx1tupN1ZX5KkA0yIUotKzhe9nlTXRPuY+uau5u4hYNDTeDazUKEia4HNgiYU8TXgfUCRMpyMvb9kqsZ9E54ilfq9fm++dmITpwUuziJPPpsd66oLyLX9z3GTziWXXhiEwwfBqMncyN1uJupTIIKvM2oxoUWndIeZ7uvP5tZdS9oaHhaePa44wmPDoY7sQ9WmIw4srQ6pXsU3XZQyvzsfBQ2JQZs1ojhTiCYz6fz51fNWdYzU6W1dEtDM/SZpt4ccMNDQ0NbIBRgLkr+61s84ztkKuXeGtcDqupz+OlQZDaM/DZS5F6GYwYQ4rhjnR4Fzsk9W00RqGhoSFwvYHmEAS1wUXTBt7ODocm476OUXXk4lNNdWlFWd1ldIHdntjUWXUFc/fReixNcz1nHw+LLDy3laW3Gi6wClaUPgnvYIut8A53xeNqaGi4eWxE9pHPIfKxhR0ivlO2manyumYkCpk4ctySyfbRrCWq7S5JMDrdjGfNba35OqwdreC0ETyZLiQ+GI3PMLLixy9AWhjeHvV5htbK2EqzMmtoaNgIo0CoBI7w6al36TIzDnVDBjqt5K5Fl9y5X1KT4uTUWj15yDvn1eIZj5qTexKMCgbxhkB9zpVRIcHwgu3zVrOFZW6EzEnr0KwaGhqeekTdJfInr4razOmAb3LES26f19yYDIcTV0lV1Au2ID+9LeCskMnpPKZ5Zk8dhcWI7Tmsuus/K3jzMOF0wXeS8ymnBhvajiKCUeWNtHib2eZNdEmpBaY356o3NDRsEJuxUiip3bka4Hk6pMbwTUa86sbcdxPfWlPV1wOEDJyL9BC4XBRiU/CGy0BVeYFTnCqJGiIFMUKkvqp617R5kVvcJSUHZng3nV25/YaGhqedzVoplMi8PK0AZjgOmfJSsc9rOuZIp8yM1yUSI+QyW76RFU6b046X+ftPxhDmSqTrrhSWv+9hVwqmGl8YrfqCOVVvFGI1dLDEJqEvCe8wW7w5FKfltdFbyuDzWofT0NDwlLGZRgFAFiezAphQcMiUnJy/cAfMUDIK7pvx6o2seHW5+6j+F6Hga+VWlpOvcGUtNwp+ol/HKEQIVr1wYKnHZPB9ImJn2DEJd02HZ6VLC0uXCIs/b2WBW1nXkNC4jxoaGpazuUYhULqGlLmYRQ50cyXXgkKVwygHMxeiqwemT25LAbeGv0lEiPEP76evi0as5iBfZaBO44xQmPWi27ETtNBKrkJEMOJ/OitEYokxfsKHuQUo91V7ftGMqoaGhqeHjTcK1IxCwdytVBZflUaiZF7de/ruvF6pfHHW/av11xV+LKVq0urtC1KpmS47rnIlYKjFxHXxjXU72KwSGhoaVrH5RqFGfdVQNwTJqtTKZUd2QSVQx9wQrUN8kbN5kQ2fxSpVu42oV29oaLhJbFb20TmUd7ilX7zkVIVyXRBoCRedt6/cap61g8rQKUSP4IAaGhoazuBGGYVVLF0QrHLVy+Vuzq+k2neVP2gZpeVbNpCr0Q1saGh4Cvn/6A7wLauyrs8AAAAASUVORK5CYII=;" parent="1" vertex="1">
          <mxGeometry x="200" y="50" width="389" height="278" as="geometry" />
        </mxCell>
        <mxCell id="o6fvaKxSV-aN3Dgb0OQI-1" value="" style="rounded=0;whiteSpace=wrap;html=1;" vertex="1" parent="1">
          <mxGeometry x="200" y="360" width="240" height="160" as="geometry" />
        </mxCell>
        <mxCell id="o6fvaKxSV-aN3Dgb0OQI-2" value="" style="rounded=0;whiteSpace=wrap;html=1;" vertex="1" parent="1">
          <mxGeometry x="200" y="600" width="240" height="260" as="geometry" />
        </mxCell>
        <mxCell id="o6fvaKxSV-aN3Dgb0OQI-3" value="" style="whiteSpace=wrap;html=1;aspect=fixed;" vertex="1" parent="1">
          <mxGeometry x="509" y="470" width="180" height="180" as="geometry" />
        </mxCell>
        <mxCell id="o6fvaKxSV-aN3Dgb0OQI-4" value="" style="ellipse;whiteSpace=wrap;html=1;aspect=fixed;" vertex="1" parent="1">
          <mxGeometry x="210" y="360" width="80" height="80" as="geometry" />
        </mxCell>
        <mxCell id="o6fvaKxSV-aN3Dgb0OQI-5" value="my head with glasses" style="text;html=1;align=center;verticalAlign=middle;whiteSpace=wrap;rounded=0;" vertex="1" parent="1">
          <mxGeometry x="220" y="385" width="60" height="30" as="geometry" />
        </mxCell>
        <mxCell id="o6fvaKxSV-aN3Dgb0OQI-6" value="" style="shape=callout;whiteSpace=wrap;html=1;perimeter=calloutPerimeter;" vertex="1" parent="1">
          <mxGeometry x="210" y="40" width="120" height="80" as="geometry" />
        </mxCell>
        <mxCell id="o6fvaKxSV-aN3Dgb0OQI-7" value="" style="swimlane;startSize=0;" vertex="1" parent="1">
          <mxGeometry x="400" y="110" width="200" height="200" as="geometry" />
        </mxCell>
      </root>
    </mxGraphModel>
  </diagram>
</mxfile>
